<?xml version="1.0" encoding="utf-8"?>
<!-- Generator: Adobe Illustrator 15.0.2, SVG Export Plug-In . SVG Version: 6.00 Build 0)  -->
<!DOCTYPE svg PUBLIC "-//W3C//DTD SVG 1.1//EN" "http://www.w3.org/Graphics/SVG/1.1/DTD/svg11.dtd">
<svg version="1.1" id="Layer_1" xmlns="http://www.w3.org/2000/svg" xmlns:xlink="http://www.w3.org/1999/xlink" x="0px" y="0px"
	 width="2000px" height="1660px" viewBox="0 0 2000 1660" enable-background="new 0 0 2000 1660" xml:space="preserve">
<g id="continent">
	<path id="whole_map" stroke="#000000" stroke-width="10" stroke-miterlimit="10" d="M808.5-546.5c-0.167,0.833-0.334,1.667-0.5,2.5
		c-1.725,3.594-7.159,8.504-12.5,7c-0.246,5.21-2.494,6.45-3.5,9.5c-0.549,1.665,6.221,43.821,7,45.5
		c4.277,9.213,36.42,29.618,46,37c3.631,2.797,5.237,7.405,8.5,10.5c7.501,7.115,17.1,12.891,23.5,21
		c13.89,17.599,15.703,42.701,14,70c-0.616,9.871,2.588,21.111,1,31c-2.265,14.102-8.939,26.178-13.5,37.5
		c-5.105,12.678-4.461,26.588-8,40.5c-1.24,4.875-3.938,13.58-3.5,20c1.818,26.675,31.902,34.562,24,66
		c-1.698,6.756-5.783,10.927-8.5,16c-1.334,3.833-2.667,7.667-4,11.5c-4.26,7.057-10.605,15.236-14.5,22.5c-1,3-2,6-3,9
		c-2.5,3-5,6-7.5,9c-8.558,13.408-13.705,37.485-9,58.5c7.919,35.369,36.369,54.45,61.5,73c27.477,20.281,47.4,43.916,56,83.5
		c2.577,11.864-0.631,27.833,3,39.5c2.487,7.992,8.307,17.736,11,25.5c6.097,17.578,7.346,39.706,4.5,59.5
		c-0.727,5.043,1.739,10.271,0.5,16c-8.038,37.159-34.155,59.291-44,93.5c-2.651,9.213,1.822,16.061,0,26
		c-1.082,5.9-1.909,12.121-3.5,19.5c-2.382,11.047-9.65,19.819-13,30c-5.8,17.624-9.113,31.419-16,48
		c-1.704,4.104-5.556,7.02-7.5,10.5c-2.382,4.262-5.327,28.657-6,36c0.333,5.333,0.666,10.667,1,16
		c-3.413,17.98-8.719,40.894-18.5,53.5c-3.333,2.666-6.667,5.334-10,8c-4.99,4.461-7.424,10.331-13.5,14
		c-5.488,3.314-11.415,2.645-18.5,5c-13.082,4.35-28.146,9.961-41,14.5c-9.443,3.335-17.012,3.544-26,7.5
		c-25.204,11.094-53.44,20.644-80.5,30c-5,0.5-10.001,1-15,1.5c-8.981,2.362-25.849,8.07-37.5,6c-10.332-2.333-20.668-4.667-31-7
		c-18.77-9.34-28.499-33.435-41.5-49c-4-1.833-8-3.667-12-5.5c-4.182-2.802-18.36-16.445-21.5-20.5
		c-7.173-9.262-12.369-26.725-23-32c-7.768-3.854-17.729,1.559-27-1c-11.815-3.261-19.877-11.568-31.5-14.5
		c-0.086-4.96-5.035-9.922-8-14c-3.363,1.006-5.622-0.435-4.5-4c1-0.167,2-0.333,3-0.5c-1-0.333-2-0.667-3-1
		c-3.535-15.237-0.952-31.799-6.5-47c-5.243-0.121-11.879,1.872-18.5,0.5c-6.347-1.315-21.722-8.592-28.5-7.5
		c-11.852,1.908-23.253,9.441-33.5,13.5c-6.434,2.548-18.932,6.57-22.5,12c-1,5.166-2,10.334-3,15.5
		c-3.778,9.673-11.313,19.241-16,28c-0.667,5.333-1.334,10.667-2,16c-2.833,8.166-5.667,16.334-8.5,24.5
		c-4.502,9.771-13.772,12.032-20,19.5c-4.02,4.819-6.544,10.992-10.5,16c-3.191,4.04-16.038,14.188-20.5,17.5
		c-8.191,6.081-23.698,8.506-35.5,10.5c-7.686,1.298-14.044-3.765-20,0c-5.898,3.729-8.171,11.536-17.5,15.5
		c-24.345,10.344-36.563,9.646-61-0.5c-2.833-1.833-5.667-3.667-8.5-5.5c-4.166-1.333-8.334-2.667-12.5-4
		c-7.504-4.528-22.986-15.703-27.5-23c-8.635-13.958-12.485-32.857-26-42c-0.667-3.666-1.334-7.334-2-11
		c-1.99-0.291-1.301-0.665-2.5,1c-3.512,13.185,10.729,16.156,13.5,25c-0.334,2.5-0.667,5-1,7.5c3.918,16.033,6.771,45.76-3,60.5
		c-4.868,7.344-13.433,13.419-23,16c-4,0.5-8,1-12,1.5c-2.833,2.333-5.667,4.667-8.5,7c-3.333,1.166-6.667,2.333-10,3.5
		c-5.5,3.833-11.001,7.667-16.5,11.5c-6.987,4.276-20.011,6.607-28.5,8.5c-8.893,1.982-47.957-2.843-51,0.5
		c-13.834,13.296-8.738,23.166-31.5,32c2.521,31.94-9.864,39.232-35,47c-9.252,2.858-20.408,7.106-32,2.5
		c-8.5-4.833-17.001-9.667-25.5-14.5c-4.895-3.866-6.559-9.028-10-14.5c-4.012-6.377-17.073-13.614-24-17
		c-10.615,1.951-16.735,7.063-27.5,9c-6.061,1.092-12.105-1.112-16-2.5c-19.529-6.958-28.287-23.617-24-48.5
		c-7.823-0.515-15.721-0.055-24.5-0.5c-2.817,7.767-23.275,24.202-31,27.5c-4,0.833-8,1.667-12,2.5
		c-14.082,4.539-27.652,14.521-41.5,18c-6.539,1.643-12.894-0.908-18.5-0.5c-12.63,0.919-24.866,0.123-37.5,0
		c-4.619-0.045-12.055,1.872-17.5,0.5c-4.499-1.134-8.38-4.154-12-5.5c-6.373-2.368-10.926,1.636-18,0.5
		c-10.252-1.646-20.521-4.539-30-8.5c-8.241-3.443-11.247-10.533-17.5-15.5c-23.941-19.018-46.537-39.593-22.5-77.5
		c10.601-16.719,35.109-17.159,49.5-30c5.975-5.331,6.479-15.506,13-20.5c-2.54-8.896-0.762-25.048,0-35
		c-14.576-11.072-13.746-36.28-15-56.5c-7.086,2.769-14.979,2.757-23,1.5c-6.165-0.966-12.65,1.725-19,0
		c-13.336-3.623-25.126-12.799-39-16c-8.125-1.874-14.776,2.085-21.5,3c-3.667-0.5-7.334-1-11-1.5
		c-6.833,0.833-13.667,1.667-20.5,2.5c-5.424,2.689-8.944,8.472-13.5,12c-8.827,6.837-26.5,13.046-40,14
		c-9.483,0.67-15.458-4.646-22-6.5c-20.444-5.791-42.923-6.132-57.5-17.5c-6-6.166-12-12.334-18-18.5
		c-1.167-2.333-2.333-4.667-3.5-7c-6.258-4.895-17.829-3.829-25.5-7c-17.927-7.409-51.004-28.573-61-43.5
		c-2.941-4.392-5.386-10.623-6.5-16.5c-1.333-7.032,3.252-20.688,0-25.5c-7.416-10.975-1.733-17.869-2-31
		c-1.167-0.667-2.333-1.334-3.5-2c3.705-18.389-7.42-25.781-13.5-41.5c-1.621-4.19-0.43-10.59-1.5-14.5
		c-1.443-5.27-5.195-11.958-3.5-20.5c4.314-21.741,8.994-38.378,20-53c2.333-2.166,4.667-4.334,7-6.5
		c3.642-5.257,5.539-10.673,10.5-14.5c6.43-4.96,18.321-9.253,23.5-15c0.833-2.833,1.667-5.667,2.5-8.5
		c3.542-7.311,9.736-16.875,12.5-24.5c4.261-11.755,5.182-25.936,12-35c3.943-5.242,9.545-7.151,15-11
		c5.399-3.81,9.12-8.676,16.5-11c12.824-4.039,28.418,1.822,41.5-0.5c6.343-1.126,9.972-3.593,15-5c0-1.167,0-2.334,0-3.5
		c4.833-0.167,9.667-0.333,14.5-0.5c-0.083-2.816-0.125-3.317,1-5.5c4.07,0.258,5.963,2.759,8.5,3c2.301,0.219,2.929-3.155,7-2
		c4.833,2.666,9.667,5.334,14.5,8c5.283,1.149,8.479-3.734,12-4.5c3.833,0.666,7.667,1.333,11.5,2c0-0.167,0-0.333,0-0.5
		c0.167,0,0.333,0,0.5,0c1-2,2-4,3-6c4.792,0.863,9.755,7.635,12.5,11c0.51-2.16,0.353-3.853,2-5c7.013-3.727,18.353-0.965,26-5
		c-1.895-5.883,1.452-7.856,2.5-12c0.955-3.775-2.167-4.426-1.5-8c0.167,0,0.333,0,0.5,0c0.833,0.167,1.667,0.333,2.5,0.5
		c1.69,8.263,7.329,10.296,5.5,20.5c6.986,2.37,10.086,8.098,15.5,12c27.848-5.258,52.246,7.148,65.5,21c3,4.666,6,9.334,9,14
		c8.885,5.369,18.083,8.582,26.5,14.5c2.833,3,5.667,6,8.5,9c2.783,2.072,11.014,7.693,12.5,7c11.215-4.486,19.074-12.647,31.5-16
		c-0.186-26.052,14.53-33.915,30-44c2.833-1.167,5.667-2.334,8.5-3.5c1.793-1.765,7.699-12.952,10-16
		c-4.552-7.511-6.247-16.483-5-27.5c0.662-5.854-2.463-11.735-1-18.5c3.109-14.375,13.47-25.161,19.5-36.5
		c2.562-4.816,2.986-8.995,6-13c3.166-2.666,6.333-5.334,9.5-8c4.148-4.953,6.428-9.976,12-13.5c9.166-3.5,18.334-7,27.5-10.5
		c4.966,2.759,7.359,6.168,11.5,9c-1.533-3.45-3.617-6.651-3.5-10c10.017-9.428,25.098-2.764,40-6.5
		c10.844-2.719,27.892-11.768,37.5-17.5c3.396-2.026,8.621-11.394,14-6.5c-0.936,4.224,0.356,7.42,0,12
		c5.17,2.338,7.279,11.621,10,16.5c-0.167-2.333-0.334-4.667-0.5-7c-1.294-1.82-0.969-1.434-3-1.5c0.521-3.303-2.095-5.911-2.5-9
		c1.5-6,3-12,4.5-18c32.135-13.619,35.291-3.438,62,7c11.8,4.611,15.063-2.74,20,9.5c10.914,0.625,19.42,5.78,28.5,6.5
		c0-0.166,0-0.334,0-0.5c-6.771-6-11.508-3.385-20.5-7c-5.283-2.124-7.088-7.988-11-11.5c-16.195,2.848-34.995-9.229-48.5-16.5
		c0.762-15.633,11.663-48.967,20-56c-7.656-13.539-19.185-26.346-23-44c-0.334-10.499-0.667-21.001-1-31.5
		c-0.797-4.205-3.498-9.341-2.5-15.5c1.294-7.986,2.431-17.6,5-26c1.677-5.482,4.994-8.654,6-15
		c-10.842-8.577-25.516-42.336-25.5-63c-11.511-2.1-10.508-23.055-6-32c1.777-3.527,5.166-3.059,6-8c0.57-3.98-2.248-5.203-3-9
		c-3.008-15.189,2.052-27.586,14-31.5c0.265-6.341,2.211-9.814,3.5-14c-0.5-1.5-1-3-1.5-4.5c-1.354-7.946,4.873-12.139,11-13
		c-1.5-2.333-3-4.667-4.5-7c-1.328-4.112,0.693-6.828,1.5-9.5c0-2.667,0-5.333,0-8c1.441-6.506,5.641-6.574,10-10
		c-4.997-8.661,2.363-18.961,10-21c0.424-7.888,1.057-12.372,7.5-15.5c-4.061-9.891,6.719-27.121,18-27
		c2.129-6.952,9.124-11.993,15.5-14.5c-0.682-7.567-0.543-12.693,3-17.5c6.73-2.253,9.374-0.464,13.5,3.5
		c0.833-0.333,1.666-0.667,2.5-1c-1.367-7.521,8.473-11.823,13-15.5c0.666-1.667,1.334-3.333,2-5c7.879-10.669,12.221-12.74,28-9.5
		c-0.922-3.465-0.715-4.715,1-7.5c1.333-0.167,2.666-0.333,4-0.5c3.301,0.674,4.028,2.088,4.5,5.5c6.396-0.732,10.13,1.758,10.5,8.5
		c5.724-0.672,9.81,2.22,14.5,1.5c9.291-1.427,16.678-3.243,26-4.5c3.333,0.5,6.667,1,10,1.5c8.736,0.786,25.426-0.001,35.5-1
		c15.255-1.513,25.537-8.712,37.5-12c10.605-2.915,18.347-0.386,29-3.5c12.41-3.627,26.055-9.404,37-14
		c7.549-3.17,31.479-11.267,35.5-16c2.517-2.963,0.744-6.52,2-10c1.333-1.5,2.666-3,4-4.5c1.422-3.525,0.456-5.872,2.5-9
		c1.833-0.333,3.666-0.667,5.5-1c5.996,1.029,8.947,12.4,14.5,9.5c11.949-3.712,20.142-11.065,29.5-17c3.333-1.333,6.667-2.667,10-4
		c11.665-9.499,23.334-19.001,35-28.5c9.398-12.244,19.586-22.929,29-35c3.166-2.667,6.334-5.333,9.5-8
		c9.093-12.23,17.242-23.49,28.5-33.5c-1.313-7.036-0.805-13.707,2.5-18.5c6.116-1.737,6.49,0.424,11,2
		c3.746,1.309,10.843-2.586,17-2c2.5,0.667,5,1.333,7.5,2c0-0.167,0-0.333,0-0.5c-1.024-2.663-0.762-4.206,0-7
		c4.834-3.512,7.771-2.129,11.5,1.5c9.008-4.538,10.398-12.877,23-4.5c0.897,0.597,6.457-2.45,9.5-1.5c2.043,0.638,2.567,3.13,4,4
		c3.195,1.942,30.021-2.218,35-1c1,2,2,4,3,6c2.662-1.024,4.206-0.761,7,0c2.708,4.184,9.243,15.715,9.5,21
		c4.511,0.563,13.413,11.743,15,15.5c-0.34,2.686-1.984,4.862-1,5.5c9.618,10.291,21.271,17.746,32.5,26.5
		c16.029,12.497,25.923,31.588,43.5,43c5.956,3.867,14.645,3.97,21.5,7c15.976,7.061,34.637,13.552,51.5,21
		c8.359,3.692,18.135,10.63,26,14.5c4.742,2.333,9.014,2.329,13,5c7.545,5.055,18.1,21.262,22.5,29.5c2.267,4.245,3.97,10.779,8,13
		c4.499,1,9,2,13.5,3c3,2,6,4,9,6c7.599,3.643,15.039,3.518,23.5,6.5c14.394,5.073,31.869,13.494,46,18.5
		c11.943,4.23,20.081,4.623,25,16c9.192-4.128,18.133,1.211,26.5-0.5c5.1-1.042,7.719-4.627,12.5-6.5c-0.5-1.5-1-3-1.5-4.5
		c0.5-0.667,1-1.333,1.5-2c3.5-0.5,7-1,10.5-1.5c1.086,0.913,1.585,1.417,2.5,2.5c0,0.167,0,0.333,0,0.5
		c-4.451,6.265-7.789,11.524-13.5,16.5C810.833-546.5,809.666-546.5,808.5-546.5z"/>
</g>
<g id="Nation1">
	<path id="outline" fill="none" stroke="#000000" stroke-width="12" stroke-miterlimit="10" d="M-258.5-202.5
		c24.729-0.001,34.609,6.57,50,14c0.333,3.666,0.666,7.334,1,11c20.143,0.186,33.852-2.205,45-5c16.857,14.193,36.239-2.858,43-1
		c4.271,1.174,10.388,22.23,19,26c17.229,7.541,43.572-4.863,66,0c17.164,3.723,16.99,14.195,40,14c0,6.333,0,12.668,0,19
		c21.252,9.409,37.798-6.521,54-3c14.064,3.058,27.372,6.06,43,6c0.666-1,1.334-2,2-3c0-4.333,0-8.667,0-13
		c8.004,0.638,8.02,4.559,13,6c11.646,3.369,23.926-13.864,35-4c0,5,0,10,0,15c5.666,3.333,11.334,6.667,17,10
		c-7.363,17.879-31.506,21.018-32,48c2,1.333,4,2.667,6,4c-2.242,5.451-2.181,14.717-2,23c-3.333,2.333-6.667,4.667-10,7
		c0.663,10.4,2.109,13.901-2,22c-3.333,0.666-6.667,1.334-10,2c0.225,10.104,3.946,15.322,7,23c7.965,0.774,20.773,5.845,25,11
		c-7.196,6.767-18.996,11.295-32,12c-1.333,2.666-2.667,5.334-4,8c0.313,13.024,10.697,25.172,5,34
		c-9.177,20.297-22.461,31.114-45,38c-4,0-8,0-12,0c-5.607,2.646-1.024,7.014-11,8c-2.333-1.333-4.667-2.667-7-4
		c-0.666,0.667-1.334,1.333-2,2c-1.666,6.999-3.334,14.001-5,21c-16.332,0.333-32.668,0.667-49,1c0,6.666,0,13.334,0,20
		c-11.271,2.836-8.304,8.893-15,15c-5.666,2.666-11.334,5.334-17,8c-2.75,2.129-23.461,32.813-26,37
		c-10.157,16.745,3.397,24.02-20,32c0.429,10.875-0.005,19.202-4,25c-6.253,2.554-10.379,6.831-14,12c0.149,12.149-0.67,24.559-2,34
		c10.424,4.479,15.895,17.726,19,30c4,2,8,4,12,6c-0.666,1-1.334,2-2,3c-6.199,1.966-11.902,5.784-15,11
		c2.896,7.792,8.229,9.328,3,18c-29.535,5.332-65.443,16.41-101,10c-9.503-14.713-18.027-27.47-28-41c-8.666,0-17.334,0-26,0
		c-1.508,6.748-5.777,21.515-11,25c-15.227,5.788-71.899,7.33-93,3c-4.6-0.943-10.529-6.613-18-4c-23.173,8.106-51.441,23.298-78,28
		c0-0.333,0-0.667,0-1c2.717-5.827,5.181-9.688,4-17c-3,0-6,0-9,0c-0.242-16.289-6.915-22.396-11-36c-8.232-1.903-12.85-5.221-23-6
		c0-59.327,0-118.673,0-178c0-11.757-2.807-56.467,2-62c4-2,8-4,12-6c3.333-5.333,6.667-10.667,10-16
		c-20.089-41.511,15.027-98.948,38-116c9.999-4,20.001-8,30-12c4.333,3.333,8.667,6.667,13,10c-3.089-4.777-4.902-8.223-3-13
		c11.77-3.25,33.196-1.561,45-6c15.283-5.748,28.393-19.912,43-24c0.666,0.334,1.334,0.667,2,1c-0.473,10.997,1.602,15.23,7,20
		c-3.283-7.363-3.436-22.313,4-27c24.207-15.715,61.932,5.645,79,17c11.332,2.666,22.668,5.334,34,8c-6.604-5.529-14.93-4.246-24-8
		c-5.548-2.297-7.35-9.941-12-12c-5.333-0.333-10.667-0.666-16-1c-10.999-5.333-22.001-10.667-33-16
		c0.848-20.428,9.137-44.504,20-56C-246.934-155.91-257.717-168.891-258.5-202.5z"/>
	<polygon id="agent_anchor" fill="#A7A9AC" points="-704.492,-303.496 -720.492,-289.496 -700.492,-281.496 	"/>
	<polygon id="pointer" fill="#F1F2F2" points="-789.802,-166.342 -396.821,-89.846 -651.809,-391.331 	"/>
	<g id="33">
		<path id="N1T3" fill="#2B3990" stroke="#6D6E71" stroke-width="3" stroke-miterlimit="10" d="M-451.5,403.5
			c-0.242-16.289-6.915-22.396-11-36c-8.232-1.903-12.85-5.221-23-6c0-59.327,0-118.673,0-178c0-11.757-2.807-56.467,2-62
			c4-2,8-4,12-6c3.333-5.333,6.667-10.667,10-16c-20.089-41.511,15.027-98.948,38-116c9.999-4,20.001-8,30-12
			c9.479,5.18,16.144,14.303,20,25c2.667,0.334,5.333,0.667,8,1c1-1.333,2-2.667,3-4c0.667,0.334,1.333,0.667,2,1
			c0.069,10.913,5.285,40.811,12,43c1.803,0.588,7.874-1.404,11-1c3.959,5.771,5.582,11.623,9,19c13.198-0.572,14.53,2.349,19,10
			c8.21-0.369,11.074-0.428,16-4c15.963,11.817,8.084,34.023,10,52c23.78,12.56,21.344,32.393,50,39c74.326,0,148.674,0,223,0
			c0,5.666,0,11.334,0,17c-11.271,2.836-8.304,8.893-15,15c-5.666,2.666-11.334,5.334-17,8c-2.75,2.129-23.461,32.813-26,37
			c-10.157,16.745,3.397,24.02-20,32c0.429,10.875-0.005,19.202-4,25c-6.253,2.554-10.379,6.831-14,12
			c0.149,12.149-0.67,24.559-2,34c10.424,4.479,15.895,17.726,19,30c4,2,8,4,12,6c-0.666,1-1.334,2-2,3
			c-6.199,1.966-11.902,5.784-15,11c2.896,7.792,8.229,9.328,3,18c-29.535,5.332-65.443,16.41-101,10
			c-9.503-14.713-18.027-27.47-28-41c-8.666,0-17.334,0-26,0c-3.666,8.666-7.334,17.334-11,26c-19.584-0.15-31.83,8.196-53,4
			c-6.805-1.349-55-7.053-58-6c-23.188,8.141-51.437,23.217-78,28c0-0.333,0-0.667,0-1c2.717-5.827,5.181-9.688,4-17
			C-445.5,403.5-448.5,403.5-451.5,403.5z"/>
		<polygon id="text_anchor" fill="#EC008C" points="-320,237 -336,251 -316,259 		"/>
	</g>
	<g id="32">
		<path id="N1T2" fill="#2B3990" stroke="#6D6E71" stroke-width="3" stroke-miterlimit="10" d="M104.5-137.5
			c8.004,0.638,8.02,4.559,13,6c11.646,3.369,23.926-13.864,35-4c0,5,0,10,0,15c5.666,3.333,11.334,6.667,17,10
			c-6.798,16.492-31.501,20.788-32,48c2,1.333,4,2.667,6,4c-2.196,5.885-1.399,19.303-4,25c-2.666,1.666-5.334,3.334-8,5
			c0.663,10.4,2.109,13.901-2,22c-3.333,0.666-6.667,1.334-10,2c0.225,10.104,3.946,15.322,7,23c7.965,0.774,20.773,5.845,25,11
			c-7.196,6.767-18.996,11.295-32,12c-1.333,2.666-2.667,5.334-4,8c0.313,13.024,10.697,25.172,5,34
			c-9.158,20.251-22.523,31.133-45,38c-4,0-8,0-12,0c-5.607,2.646-1.024,7.014-11,8c-2.333-1.333-4.667-2.667-7-4
			c-0.666,0.667-1.334,1.333-2,2c-1.666,6.999-3.334,14.001-5,21c-67.66,0.667-135.34,1.333-203,2c-29.545,0.001-66.241,3.218-87-6
			c-9.763-4.335-6.422-11.627-12-20c-6.666-4.333-13.334-8.667-20-13c0-0.333,0-0.667,0-1c2.872-11.25,5.096-40.83-6-47
			c-4.365-3.029-12.413,0.205-20,1c-1.666-3-3.334-6-5-9c-4.666-0.333-9.334-0.666-14-1c-2.232-9.563-3.061-15.343-11-19
			c-1.736-0.573-8.711,1.174-9,1c-8.402-5.041-9.703-29.84-12-43c-6.947,1.074-5.729,2.315-13,2c-2.719-10.028-9.581-13.488-11-25
			c1-0.666,2-1.334,3-2c8.844-5.754,28.996-1.638,40-5c17.178-5.248,30.256-20.665,46-25c0.666,0.334,1.334,0.667,2,1
			c-0.208,14.926,5.647,17.109,9,28c0.333,0,0.666,0,1,0c0-1.666,0-3.334,0-5c-4.945-6.611-8.881-23.725,1-30
			c20.302-13.297,40.693,0.479,57,7c25.289,10.115,53.567,13.441,79,25c11.152,5.068,18.75,14.8,28,20c6,0,12,0,18,0
			c7.434,1.597,11.146,8.014,16,12c1.236,0.551,55.57-0.81,56-1c6.868-3.045,17.683-12.889,24-17c0.107-0.07,8.135,2.509,12,1
			c1.666-1.666,3.334-3.334,5-5c12.521-6.863,26.107,0.057,29-17c13.489-6.344,33.954-63.016,46-80c9.061,1.309,13.554,1.752,18-4
			C105.166-130.166,104.833-133.834,104.5-137.5z"/>
		<polygon id="text_anchor" fill="#EC008C" points="-100,52 -116,66 -96,74 		"/>
	</g>
	<g id="31">
		<path id="N1T1" fill="#2B3990" stroke="#6D6E71" stroke-width="3" stroke-miterlimit="10" d="M-258.5-202.5
			c24.729-0.001,34.609,6.57,50,14c0.333,3.666,0.666,7.334,1,11c20.143,0.186,33.852-2.205,45-5c16.857,14.193,36.239-2.858,43-1
			c4.271,1.174,10.388,22.23,19,26c17.229,7.541,43.572-4.863,66,0c17.164,3.723,16.99,14.195,40,14c0,6.333,0,12.668,0,19
			c27.455,11.65,52.744-9.132,81,2c-1.333,1.333-2.667,2.667-4,4c-5.009,15.266-36.443,79.048-47,86
			c-11.125,5.182-30.628,12.928-41,10c-2.772,9.193-18.91,11.312-25,18c-19.102-5.836-34.614,1.352-55,1
			c-5.442-17.474-18.404-5.048-33-13c-8.844-4.818-18.162-15.541-28-20c-15.665-4.666-31.335-9.334-47-14
			c-5.551-2.296-7.348-9.938-12-12c-5.333-0.333-10.667-0.666-16-1c-10.999-5.333-22.001-10.667-33-16
			c0.848-20.428,9.137-44.504,20-56C-246.934-155.91-257.717-168.891-258.5-202.5z"/>
		<polygon id="text_anchor" fill="#EC008C" points="-79,-100 -95,-86 -75,-78 		"/>
	</g>
	
		<text id="WM" transform="matrix(1 0 0 1 -398.916 58.9658)" display="none" enable-background="new    " font-family="'MyriadPro-Regular'" font-size="60">West Middleton</text>
</g>
<g id="Nation2">
	<path id="outline" fill="none" stroke="#000000" stroke-width="12" stroke-miterlimit="10" d="M277.5-194.5
		c-0.333,2.333-0.667,4.667-1,7c-2.333,3-4.667,6-7,9c-4.005-2.166-12.066-3.194-16,0c-3.974,2.164-3.506,3.532-5,8
		c-10.666-0.666-21.334-1.334-32-2c-0.333,1-0.667,2-1,3c-2.036,2.555-2.164,5.891-2,11c-7.999,0.334-16.001,0.667-24,1
		c1.333,1.666,2.667,3.334,4,5c-3.028,6.955-6.293,9.975-12,14c-11.543-0.582-34.476-7.077-48-2c-3.273,1.229-7.811,7.071-14,6
		c-6.401-1.107-7.936-7.455-18-5c-0.334,5-0.667,10-1,15c-17.665-2-35.335-4-53-6c-10.431,3.172-23.891,8.352-39,4
		c-0.334-6.666-0.667-13.334-1-20c-6.333-0.333-12.668-0.666-19-1c-1.713-4.584-4.135-9.26-9-11c-0.334,0.666-0.667,1.334-1,2
		c-3.666-1.333-7.334-2.667-11-4c-19.664,0.666-39.336,1.334-59,2c-4.529-0.882-8.438-2.996-11-6c-7.446-4.317-7.784-12.519-12-20
		c-3.333-0.666-6.667-1.334-10-2c-7.906,5.934-17.829,6.389-33,6c-1.333-2.666-2.667-5.334-4-8c-12.285,4.925-23.479,8.175-44,8
		c0-3.333,0-6.667,0-10c-8.332-4.666-16.668-9.334-25-14c-9.332-0.666-18.668-1.334-28-2c-1-6.666-2-13.334-3-20
		c1.924-15.383,9.293-28.282,11-42c-7.986-6.271-37.158-71.014-34-86c1.394-6.611,7.42-9.644,9-14c-1.333-7.999-2.667-16.001-4-24
		c2.33-11.709,9.914-10.883,15-18c4.829-6.758,1.664-19.203,3-27c3.333-1.667,6.667-3.333,10-5c-3.467-5.569-7.605-18.653-2-28
		c3-2,6-4,9-6c2.134-4.255-2.647-11.396,2-17c2.666-1.333,5.334-2.667,8-4c7.08-10.292,4.623-26.325,12-36
		c3.676-4.82,9.173-3.209,14-7c6.33-4.971,5.316-10.875,15-14c-0.57-8.844-0.361-14.905,5-18c5.973-2.158,8.243,1.621,14,3
		c0.82-8.481,18.279-28.123,25-31c6,0,12,0,18,0c0.333-2.333,0.666-4.667,1-7c2,0,4,0,6,0c4.683,6.313,10.875,4.61,13,14
		c22.467-2.904,51.053,2.733,80-2c18.484-3.022,30.429-10.297,46-14c22.033-5.239,39.337-5.938,59-14
		c9.227-3.783,36.307-10.601,41-19c4.582-8.198,2.516-25.249,14-23c3.666,3,7.334,6,11,9c45.47-9.348,77.896-56.583,106-85
		c12.665-13.665,25.335-27.334,38-41c2.364-6.062-1.393-11.496,2-17c1.517-1.926,1.791-1.77,4-3c9.676,3.748,21.291,0.704,32,3
		c-0.628-4.311-1.273-5.353,2-8c5.063-1.77,7.441,2.671,11,2c2.333-1.667,4.667-3.333,7-5c0,138.986,0,278.014,0,417
		c0,42.996,0,86.004,0,129c0.001,13.697,2.597,34.842-2,45c-12.504,2.049-28.666,8.924-38,15c0.533,9.123,3.458,16.635,0,24
		c-0.333,0-0.667,0-1,0C293.465-185.021,286.053-193.174,277.5-194.5z"/>
	<polygon id="agent_anchor" fill="#A7A9AC" points="-427.494,-918.994 -443.494,-904.994 -423.494,-896.994 	"/>
	<polygon id="pointer" fill="#F1F2F2" points="-506.315,-791.811 -192.841,-655.324 -329.324,-982.301 	"/>
	<g id="35">
		<path id="N2T5" fill="#39B54A" stroke="#6D6E71" stroke-width="3" stroke-miterlimit="10" d="M204.5-298.5
			c0,46.662,0,93.338,0,140c-6.448-0.522-12.653-1.072-15,3c1.333,1,2.667,2,4,3c-3.028,6.955-6.293,9.975-12,14
			c-11.543-0.582-34.476-7.077-48-2c-3.273,1.229-7.811,7.071-14,6c-6.401-1.107-7.936-7.455-18-5c-0.334,5-0.667,10-1,15
			c-17.665-2-35.335-4-53-6c-10.431,3.172-23.891,8.352-39,4c-0.334-6.666-0.667-13.334-1-20c-6.333-0.333-12.668-0.666-19-1
			c-1.713-4.584-4.135-9.26-9-11c-0.334,0.666-0.667,1.334-1,2c-3.666-1.333-7.334-2.667-11-4c-19.664,0.666-39.336,1.334-59,2
			c-4.53-0.879-8.436-3-11-6c-7.527-4.445-5.551-11.804-11-18c-5.131-5.091-27.56,1.529-44,2c-1.333-2.666-2.667-5.334-4-8
			c-12.285,4.925-23.479,8.175-44,8c0-3.333,0-6.667,0-10c-8.332-4.666-16.668-9.334-25-14c-9.332-0.666-18.668-1.334-28-2
			c-1.521-24.188,0.574-41.508,9-61c-9.349-7.207-13.848-19.627-19-31C-110.85-298.5,46.85-298.5,204.5-298.5z"/>
		<polygon id="text_anchor" fill="#EC008C" points="27,-229 11,-215 31,-207 		"/>
	</g>
	<g id="34">
		<path id="N2T4" fill="#39B54A" stroke="#6D6E71" stroke-width="3" stroke-miterlimit="10" d="M204.5-358.5c0,19.665,0,39.336,0,59
			c-119.321,0-238.679,0-358,0c-16.396,0.002-112.196,2.26-116-3c-4.174-7.193-1.089-20.014-6-28c-4.77-7.755-13.787-15.836-7-31
			c2.333-2.333,4.667-4.667,7-7c2.835-8.016-6.755-17.924-3-29c2.665-7.861,9.897-7.652,14-13c1-8.999,2-18.001,3-27
			c3.333-1.667,6.667-3.333,10-5c-10.104-15.558,3.322-30.768,6-41c22.763,19.882,52.16,29.776,78,47
			c6.005,4.002,5.151,10.116,14,12c25.029-21.656,33.23,8.131,50,14c9.332,0.666,18.668,1.334,28,2c4.389,3.584,5.588,10.895,10,14
			c8.332,3,16.668,6,25,9c9.76,6.869,10.67,34.758,40,25c4-3.666,8-7.334,12-11c16.8-4.943,37.715,11.074,49,15
			c0,0,40.41-6.021,43-7c-1.666-0.666-3.334-1.334-5-2c0.333-1,0.666-2,1-3c1.666-2.333,3.334-4.667,5-7
			c14.674-6.719,31.451,1.649,48,2c3.021,5.223,3.561,6.181,5,12C172.271-357.935,184.88-358.346,204.5-358.5z"/>
		<polygon id="text_anchor" fill="#EC008C" points="-150,-371 -166,-357 -146,-349 		"/>
	</g>
	<g id="33">
		<path id="N2T3" fill="#39B54A" stroke="#6D6E71" stroke-width="3" stroke-miterlimit="10" d="M205.5-527.5
			c45.329,0,90.671,0,136,0c0,72.326,0,144.674,0,217c0,22.551,5.471,74.336-2,91c-12.504,2.049-28.666,8.924-38,15
			c0.65,8.73,4.55,18.461-1,24c-8.742-4.174-13.314-12.172-23-14c-0.113,9.499-3.225,11.545-8,16c-4.005-2.166-12.066-3.194-16,0
			c-3.974,2.164-3.506,3.532-5,8c-10.666-0.666-21.334-1.334-32-2c-0.333,1-0.667,2-1,3c-2.036,2.555-2.164,5.891-2,11
			c-2.666,0-5.334,0-8,0C205.5-281.488,205.5-404.512,205.5-527.5z"/>
		<polygon id="text_anchor" fill="#EC008C" points="261,-381 245,-367 265,-359 		"/>
	</g>
	<g id="32">
		<path id="N2T2" fill="#39B54A" stroke="#6D6E71" stroke-width="3" stroke-miterlimit="10" d="M15.5-527.5
			c62.994,0,126.006,0,189,0c0,55.994,0,112.006,0,168c-19.629,0.268-32.238,0.621-47-3c0.322-6.342-0.158-8.479-6-11
			c-13.498-5.549-34.4-6.145-49-3c-2.371,4.389-3.745,5.816-4,13c-12.427-0.105-32.289,7.985-38,6c-18.826-6.543-46.694-25.963-61-3
			c-38.635-0.002-23.704-14.807-40-26c-18.512-12.716-19.778-3.576-34-23c-9.999-0.666-20.001-1.334-30-2
			c-16.953-6.659-14.428-20.792-42-21c-2.635,3.377-5.02,5.802-10,7c-3.666-4-7.334-8-11-12c-21.146-13.563-65.075-28.45-78-48
			c2.182-9.023,6.959-6.557,11-12c0.333-3.333,0.666-6.667,1-10c2.984-7.003,8.645-25.522,15-30c3.333-1,6.667-2,10-3
			c6.336-4.971,5.361-10.803,15-14c-0.303-8.021,0.488-13.418,3-18c7.825-1.357,9.138,1.458,16,3c0.949-8.632,18.129-28.074,25-31
			c6-0.333,12-0.667,18-1c0.333-2,0.666-4,1-6c2.333,0,4.667,0,7,0c0.438,1.057,11.016,12.22,12,13c0.674,0.534,79.117,0.307,90-2
			c12.332-4.333,24.668-8.667,37-13C15.5-582.169,15.5-554.831,15.5-527.5z"/>
		<polygon id="text_anchor" fill="#EC008C" points="13,-466 -3,-452 17,-444 		"/>
	</g>
	<g id="31">
		<path id="N2T1" fill="#39B54A" stroke="#6D6E71" stroke-width="3" stroke-miterlimit="10" d="M341.5-528.5
			c-108.322,0-216.678,0-325,0c0-26.997,0-54.003,0-81c32.99,0.045,77.277-18.75,98-33c2.333-7.666,4.667-15.334,7-23
			c2.333,0,4.667,0,7,0c3.666,3,7.334,6,11,9c45.593-8.497,134.907-102.98,146-145c9.725-0.211,25.225-0.339,36,2
			c0-2.667,0-5.333,0-8c10.969-1.488,11.005,0.848,20-3C341.5-716.509,341.5-622.491,341.5-528.5z"/>
		<polygon id="text_anchor" fill="#EC008C" points="229,-623 213,-609 233,-601 		"/>
	</g>
	
		<text id="BIG" transform="matrix(1 0 0 1 -95.9741 -389.5176)" display="none" enable-background="new    " font-family="'MyriadPro-Regular'" font-size="60">Bigopolis</text>
</g>
<g id="Nation3">
	<path id="outline" fill="none" stroke="#000000" stroke-width="12" stroke-miterlimit="10" d="M344.5-813.5
		c9.804,0.603,18.467,3.598,25,6c11.665-0.333,23.334-0.667,35-1c12.737,6.353,27.993,33.298,33,48c0.666,0.667,1.333,1.333,2,2
		c11.665,8.999,23.334,18.001,35,27c9.666,10.999,19.334,22.001,29,33c10.531,8.465,22.905,10.244,37,16
		c28.538,11.654,59.06,22.22,85,38c13.358,8.126,21.045,38.88,31,44c30.002,15.432,100.521,23.781,117,49
		c15.597-1.689,27.57-1.82,39-6c0-2.333,0-4.667,0-7c4.905-0.812,9.556-1.724,13,1c-5.245,9.839-17.195,25.242-30,27
		c-17.44,80.579,65.781,83.501,89,134c6.724,14.623,8.596,38.785,6,59c-1.482,11.545,4.013,24.056,1,36
		c-6.938,27.512-22.546,57.172-25,91c-1.656,22.841,21.902,33.177,26,53c3.459,16.736-8.443,25.803-12,37c-1.333,0-2.667,0-4,0
		c-0.215-4.514-0.708-5.391-2-8c-6.999,0.334-14.001,0.667-21,1c-0.529,2.419-13.031,19.07-15,21c-15.943-1.717-27.803-10.709-39-16
		c-7.666,0.666-15.334,1.334-23,2c-2.333-2.666-4.667-5.334-7-8c-10.999,0-22.001,0-33,0c-0.985-8.119-6.129-10.134-15-10
		c-1,2-2,4-3,6c-1-0.333-2-0.666-3-1c-3.46-4.602-5.906-11.783-9-17c-18.242,0.178-24.251,4.649-35,8
		c-14.342,4.471-31.133-4.016-41-6c-10.666,0-21.334,0-32,0c-13.013-2.514-22.827-8.38-34-12c-0.983-51.785-55.19-23.598-98-34
		c-12.602-3.063-17.762-13.705-35-14c-22.852,27.043-68.058,12.342-87-8C344.5-419.48,344.5-616.52,344.5-813.5z"/>
	<polygon id="agent_anchor" fill="#A7A9AC" points="916.113,-936.802 900.113,-922.802 920.113,-914.802 	"/>
	<polygon id="pointer" fill="#F1F2F2" points="849.731,-975.611 707.998,-657.497 1047.719,-840.624 	"/>
	<g id="34">
		<path id="N3T4" fill="#FFF200" stroke="#6D6E71" stroke-width="3" stroke-miterlimit="10" d="M556.5-350.5
			c13.875,4.729,58.566-5.974,75,5c3.666,9.666,7.334,19.334,11,29c5.622,6.779,36.693,17.935,44,15c3.595-7.142,5.282-1.077,12-3
			c7.757-8.997,13.943-12.276,21,0c11.666,0.666,23.334,1.334,35,2c2.333,5,4.667,10,7,15c5.666,0.666,11.334,1.334,17,2
			c-0.373,10.471,1.115,17.832,5,24c11.119,1.766,39.043-4.225,45,1c3,5.333,6,10.667,9,16c3.333,0.334,6.667,0.667,10,1
			c-1.6,9.016,13.578,14.836,21,18c-7.627,27.123,17.259,38.067,23,58c5.303,18.414-7.367,28.181-11,41c-1.333,0-2.667,0-4,0
			c-0.333-2.666-0.667-5.334-1-8c-7.333,0.334-14.668,0.667-22,1c-2.288,9.41-9.824,11.493-14,21c-16.537-1.729-28.268-11.033-40-16
			c-7.666,0.666-15.334,1.334-23,2c-1.707-0.898-5.224-7.159-7-8c-10.999,0-22.001,0-33,0c-1.024-8.138-5.896-10.221-15-10
			c-2.227,2.341-1.688,3.332-5,5c-0.333,0-0.667,0-1,0c-3.566-4.618-5.966-10.522-8-17c-18.566,0.178-25.085,4.598-36,8
			c-14.333,4.469-31.053-4.008-41-6c-10.332,0-20.668,0-31,0c-13.713-2.482-23.396-8.295-35-12c-1-6.666-2-13.334-3-20
			c-17.377-12.574-36.188-14-68-14c-8.999,0-18.001,0-27,0c-12.662-3.106-17.652-13.463-35-14c-23.214,27.782-63.704,12.185-82-8
			c8.571-3.797,12.288-8.032,24-10c4.87-13.015,15.193-12.91,20-27c5-0.666,10-1.334,15-2c2.801-12.508,1.17-15.354,9-22
			c11.032,1.168,23.015,10.644,37,5c4.787-2.031,10.722-6.299,13-11c3.565-22.954,8.302-21.732,27-34
			c-0.351-9.537-1.197-15.672,2-21C517.241-350.545,537.67-341.078,556.5-350.5z"/>
		<polygon id="text_anchor" fill="#EC008C" points="684,-237 668,-223 688,-215 		"/>
	</g>
	<g id="33">
		<path id="N3T3" fill="#FFF200" stroke="#6D6E71" stroke-width="3" stroke-miterlimit="10" d="M795.5-491.5
			c4.828,4.895,4.618,13.552,10,18c23.433,19.366,64.137,41.829,78,69c8.012,15.702,13.439,75.137,8,97
			c-5.333,13.332-10.667,26.668-16,40c-2.333,13.332-4.667,26.668-7,40c-2.666-0.333-5.334-0.666-8-1c-1.193-6.39-7.361-7.819-13-9
			c0.122-5.711,1.652-4.203-2-7c-3.333-1-6.667-2-10-3c-2.333-5.333-4.667-10.667-7-16c-16.146,0.335-28.776,4.013-45,1
			c-1.473-5.354-2.754-20.853-7-24c-5-1-10-2-15-3c-2-4.666-4-9.334-6-14c-11.999-0.666-24.001-1.334-36-2
			c-5.584-3.271-2.311-7.541-12-9c-7.943,5.652-8.433,8.477-21,8c-1,2-2,4-3,6c-37.521-11.107-37.717-17.407-54-49
			c-23.491-1.578-49.323,0.64-72,1c0.333-1,0.667-2,1-3c1.666-1,3.334-2,5-3c-0.087-9.115-2.064-17.824-1-21
			c9.137-2.118,9.528-7.141,8-17c7.334-3.365,20.387-6.502,23-15c-3.651-0.912-2.045,0.038-4-2c14.688,0.674,23.521-1.607,29-10
			c0.553-36.493,23.224-23.855,53-34c1.333-6,2.667-12,4-18c6.999-0.333,14.001-0.667,21-1c1.771-7.789,4.189-11.331,10-15
			c0.333,0,0.667,0,1,0c4.908,11.261,20.08-2.594,33,3c3.335,1.444,8.929,9.272,12,12C767.659-473.411,787.292-482.557,795.5-491.5z
			"/>
		<polygon id="text_anchor" fill="#EC008C" points="765,-394 749,-380 769,-372 		"/>
	</g>
	<g id="32">
		<path id="N3T2" fill="#FFF200" stroke="#6D6E71" stroke-width="3" stroke-miterlimit="10" d="M518.5-347.5
			c0-113.655,0-227.345,0-341c24.24,3.513,95.019,33.917,111,47c9.421,7.712,18.916,36.83,27,41c29.854,15.4,100.699,23.86,117,49
			c15.597-1.689,27.57-1.82,39-6c0-2.333,0-4.667,0-7c4.905-0.812,9.556-1.724,13,1c-5.236,9.785-17.237,25.247-30,27
			c-2.98,13.616-0.273,26.012,1,43c-8.043,6.44-30.563,23.268-44,19c-4.333-3.666-8.667-7.333-13-11c-9.999,0.667-20.001,1.333-30,2
			c-1-1.667-2-3.333-3-5c-6.375,3.581-8.346,7.65-11,15c-6.999,0.667-14.001,1.333-21,2c0.24,10.17-2.041,13.637-6,19
			c-18.744-0.531-37.986,4.477-50,12c0.722,11.922,1.45,16.257-4,25c-8.195,3.572-16.245,5.203-30,5c0.333,0.666,0.667,1.334,1,2
			c2.333,1,4.667,2,7,3c-1.333,1.666-2.667,3.334-4,5c-9.021,1.102-13.23,4.125-19,8c0.852,7.028,0.773,10.178-2,15
			c-2.333,0.666-4.667,1.334-7,2c1.045,6.402,5.141,12.563,2,20C554.767-344.908,532.396-346.57,518.5-347.5z"/>
		<polygon id="text_anchor" fill="#EC008C" points="627,-548 611,-534 631,-526 		"/>
	</g>
	<g id="31">
		<path id="N3T1" fill="#FFF200" stroke="#6D6E71" stroke-width="3" stroke-miterlimit="10" d="M344.5-813.5
			c9.74,0.5,18.568,3.36,25,6c11.665-0.333,23.334-0.667,35-1c5.123,2.629,31.56,33.886,34,41c-0.333,2.333-0.667,4.667-1,7
			c12.332,9.666,24.668,19.334,37,29c7.666,8.999,15.334,18.001,23,27c6.999,5.666,14.001,11.334,21,17c0,113.322,0,226.678,0,340
			c-12.748-0.389-18.652,1.643-26,5c0.513,7.536,2.234,10.969,1,18c-8.332,5.666-16.668,11.334-25,17
			c-4.729,7.617-0.645,15.237-4,22c-4.8,1.593-6.921,3.869-10,7c-16.819,0.229-23.809-4.627-36-6c-3.333,1.666-6.667,3.334-10,5
			c0.262,6.893,0.009,13.862-2,18c-4.666,0.666-9.334,1.334-14,2c-1.313,10.513-11.64,17.973-21,20c0.666,2,1.333,4,2,6
			c-13.717,2.177-17.082,9-29,11C344.5-419.48,344.5-616.52,344.5-813.5z"/>
		<polygon id="text_anchor" fill="#EC008C" points="430,-544 414,-530 434,-522 		"/>
	</g>
	
		<text id="NE" transform="matrix(1 0 0 1 375.4873 -366.5234)" display="none" enable-background="new    " font-family="'MyriadPro-Regular'" font-size="60">Northeasterland</text>
</g>
<g id="Nation4">
	<path id="outline" fill="none" stroke="#000000" stroke-width="12" stroke-miterlimit="10" d="M873.5-131.5
		c0.333,2.666,0.667,5.334,1,8c1.666,0,3.334,0,5,0c-10.666,17.998-21.334,36.002-32,54c-31.363,81.586,58.438,108.64,88,148
		c0,0.333,0,0.667,0,1c-182.315,0-364.685,0-547,0c-58.994,0-118.006,0-177,0c-27.916,0.001-62.553,3.133-87-2
		c-0.396-13.081-5.625-13.405-6-27c9.321-7.574,25.211-12.129,36-18c-0.298-5.588-1.02-5.838-3-9c-7.666-2.666-15.334-5.334-23-8
		c-2-5.666-4-11.334-6-17c4-1.666,8-3.334,12-5c0.683-8.871,1.131-11.721,0-20c10.173-6.664,11.277-19.363,12-35
		c-4.326-2.733-5.66-2.774-6-10c1.76-0.952,31.77-39.052,32-41c-6-4-12-8-18-12c0.666-4.333,1.334-8.667,2-13
		c19.268,0.446,24.793,0.554,38-5c0.333-4.333,0.667-8.667,1-13c7.332-0.333,14.667-0.666,22-1c-0.862-5.337-0.99-8.977,1-13
		c11.755,0.338,24.329,4.492,34,0c1-2.666,2-5.334,3-8c5.666,0.334,11.334,0.667,17,1c3.729-4.765,7.043-6.047,8-14
		c7.068,5.671,12.414,13.64,24,12c0.333-1,0.667-2,1-3c3.45-9.268-1.812-17.111,2-24c9.029-0.051,30.006-10.055,38-14
		c15.694,7.371,28.375,31.937,59,24c12.571-3.258,21.117-14.258,34-16c8.999,4.666,18.001,9.334,27,14
		c32.879,8.051,79.967-11.773,93,15c1,6,2,12,3,18c7.999,3.666,16.001,7.334,24,11c6.77,2.019,84.11,9.338,88,8
		c9.931-3.416,14.614-8.007,32-8c1.715,9.796,4.234,14.185,12,18c1.666-0.666,3.334-1.334,5-2c1.308-4.472-0.662-2.009,3-4
		c6.185,2.689,5.805,5.028,10,9c10.666,0.334,21.334,0.667,32,1c1.587,0.906,5.264,7.191,7,8c7.666-0.666,15.334-1.334,23-2
		c13.588,4.411,26.258,15.005,45,17c1.986-13.287,10.21-12.193,14-23C862.166-131.5,867.834-131.5,873.5-131.5z"/>
	<polygon id="agent_anchor" fill="#A7A9AC" points="1273.971,-70.015 1257.971,-56.015 1277.971,-48.015 	"/>
	<polygon id="pointer" fill="#F1F2F2" points="1265.095,-142.344 939.599,-17.862 1289.096,99.145 	"/>
	<g id="32">
		<path id="N4T2" fill="#00A79D" stroke="#6D6E71" stroke-width="3" stroke-miterlimit="10" d="M509.5-197.5
			c-0.333,92.324-0.667,184.676-1,277c-84.991,0-170.009,0-255,0c-40.9,0-91.908,5.792-129-2c-0.396-13.081-5.625-13.405-6-27
			c9.321-7.574,25.211-12.129,36-18c-0.298-5.588-1.02-5.838-3-9c-7.666-2.666-15.334-5.334-23-8c-2-5.666-4-11.334-6-17
			c4-1.666,8-3.334,12-5c0.683-8.871,1.131-11.721,0-20c10.173-6.664,11.277-19.363,12-35c-4.326-2.733-5.66-2.774-6-10
			c1.76-0.952,31.77-39.052,32-41c-6-4-12-8-18-12c0.666-4.333,1.334-8.667,2-13c19.268,0.446,24.793,0.554,38-5
			c0.333-4.333,0.667-8.667,1-13c7.332-0.333,14.667-0.666,22-1c-0.862-5.337-0.99-8.977,1-13c11.755,0.338,24.329,4.492,34,0
			c1-2.666,2-5.334,3-8c5.666,0.334,11.334,0.667,17,1c3.729-4.765,7.043-6.047,8-14c7.068,5.671,12.414,13.64,24,12
			c0.333-1,0.667-2,1-3c3.45-9.268-1.812-17.111,2-24c9.029-0.051,30.006-10.055,38-14c15.694,7.371,28.375,31.937,59,24
			c12.571-3.258,21.117-14.258,34-16C461.669-200.176,472.223-197.35,509.5-197.5z"/>
		<polygon id="text_anchor" fill="#EC008C" points="336,-61 320,-47 340,-39 		"/>
	</g>
	<g id="31">
		<path id="N4T1" fill="#00A79D" stroke="#6D6E71" stroke-width="3" stroke-miterlimit="10" d="M509.5-197.5
			c20.677-0.825,42.725,1.518,49,15c1,6,2,12,3,18c7.999,3.666,16.001,7.334,24,11c6.77,2.019,84.11,9.338,88,8
			c9.931-3.416,14.614-8.007,32-8c1.715,9.796,4.234,14.185,12,18c1.666-0.666,3.334-1.334,5-2c1.308-4.472-0.662-2.009,3-4
			c6.185,2.689,5.805,5.028,10,9c10.666,0.334,21.334,0.667,32,1c1.642,0.965,5.211,7.141,7,8c7.666-0.666,15.334-1.334,23-2
			c12.868,4.37,29.17,17.134,45,17c1.986-13.287,10.21-12.193,14-23c5.666,0,11.334,0,17,0c0.333,2.666,0.667,5.334,1,8
			c1.666,0,3.334,0,5,0c-10.666,17.998-21.334,36.002-32,54c-31.389,81.604,58.436,108.648,88,148c0,0.333,0,0.667,0,1
			c-141.986-0.333-284.015-0.667-426-1C509.5-13.49,509.5-105.51,509.5-197.5z"/>
		<polygon id="text_anchor" fill="#EC008C" points="683,-36 667,-22 687,-14 		"/>
	</g>
	
		<text id="CT" transform="matrix(1 0 0 1 295.4731 -17.0293)" display="none" enable-background="new    " font-family="'MyriadPro-Regular'" font-size="60">Central Tinyville</text>
</g>
<g id="Nation5">
	<path id="outline" fill="none" stroke="#000000" stroke-width="12" stroke-miterlimit="10" d="M418.5,82.5
		c128.987,0,258.013,0,387,0c32.663,0,65.336,0,98,0c9.559,0,30.365-2.868,36,2c13.487,11.66,20.428,36.891,24,58
		c0.333,10.332,0.667,20.668,1,31c4.666,10.666,9.334,21.334,14,32c5.704,20.37,6.407,62.683,0,81
		c-10.359,29.614-34.734,50.73-42,82c-4.014,17.272,1.572,32.367-3,48c-7.339,25.092-25.759,63.199-37,86
		c-7.786,15.792-1.123,36.506-5,57c-5.604,29.623-19.739,60.545-43,72c-5.666,1-11.334,2-17,3c-20.098,6.04-40.258,12.501-62,20
		c-41.941,14.465-114.554,56.936-170,33c-19.658-8.486-25.114-33.498-39-48c-10.233-10.688-25.869-13.805-35-26
		c-5.333-9.332-10.667-18.668-16-28c-8.32-10.106-23.135-1.738-36-6c-9.666-4.666-19.334-9.334-29-14
		c-6.396-5.125-3.732-11.082-13-15c-2-17.332-4-34.668-6-52c-2.333,0-4.667,0-7,0C418.5,359.848,418.5,221.152,418.5,82.5z"/>
	<polygon id="agent_anchor" fill="#A7A9AC" points="1288.579,545.603 1272.579,559.603 1292.579,567.603 	"/>
	<polygon id="pointer" fill="#F1F2F2" points="1316.089,483.121 1004.092,432.109 1244.093,673.611 	"/>
	<g id="33">
		<path id="N5T3" fill="#F15A29" stroke="#6D6E71" stroke-width="3" stroke-miterlimit="10" d="M418.5,498.5
			c0-138.652,0-277.348,0-416c64.66,63.994,129.34,128.007,194,192c0,114.988,0,230.012,0,345c6.104,2.189,5.296,7.726,10,10
			c4.666,0.667,9.334,1.333,14,2c5.227,3.581,5.826,8.532,13,12c-1.498,12.17-11.447,17.233-13,23c4.386,1.063,5.627,2.145,8,5
			c0,0.333,0,0.667,0,1c-6.666,3.333-13.334,6.667-20,10c0,3.333,0,6.667,0,10c-41.832-4.308-42.249-30.277-64-53
			c-10.231-10.688-25.873-13.801-35-26c-6.333-10.332-12.667-20.668-19-31c-8.328-6.179-22.826,0.3-33-3
			c-9.666-4.666-19.334-9.334-29-14c-6.384-5.101-3.805-11.033-13-15c-2-17.332-4-34.668-6-52
			C423.167,498.5,420.833,498.5,418.5,498.5z"/>
		<polygon id="text_anchor" fill="#EC008C" points="506,386 490,400 510,408 		"/>
	</g>
	<g id="32">
		<path id="N5T2" fill="#F15A29" stroke="#6D6E71" stroke-width="3" stroke-miterlimit="10" d="M613.5,275.5
			c92.657,91.657,185.343,183.343,278,275c-1.376,78.809-61.969,83.429-122,104c-42.371,14.52-86.907,44.089-144,39
			c0-3.666,0-7.334,0-11c7.332-3.333,14.667-6.667,22-10c-3.389-3.507-8.059-5.844-9-9c7.945-2.759,11.431-11.248,12-21
			c-9.258-2.694-6.486-5.791-12-11c-6.944-6.561-18.874-1.439-25-13c0-28.33,0-56.67,0-85C613.5,447.509,613.5,361.491,613.5,275.5z
			"/>
		<polygon id="text_anchor" fill="#EC008C" points="724,517 708,531 728,539 		"/>
	</g>
	<g id="31">
		<path id="N5T1" fill="#F15A29" stroke="#6D6E71" stroke-width="3" stroke-miterlimit="10" d="M421.5,82.5c128.32,0,256.68,0,385,0
			c32.663,0,65.336,0,98,0c9.384,0,29.487-2.762,35,2c13.512,11.667,20.389,36.887,24,58c0.333,10.332,0.667,20.668,1,31
			c4.666,10.666,9.334,21.334,14,32c5.712,20.353,6.409,62.699,0,81c-10.373,29.618-34.699,50.731-42,82
			c-4.029,17.26,1.575,32.373-3,48c-4.333,8.666-8.667,17.334-13,26c-5.333,16.998-10.667,34.002-16,51c-3,4-6,8-9,12
			c-1.666,13.999-3.334,28.001-5,42c-10.999-10.999-22.001-22.001-33-33C712.182,370.515,566.818,226.485,421.5,82.5z"/>
		<polygon id="text_anchor" fill="#EC008C" points="780,205 764,219 784,227 		"/>
	</g>
	
		<text id="EB" transform="matrix(1 0 0 1 487.4531 339.959)" display="none" enable-background="new    " font-family="'MyriadPro-Regular'" font-size="60">Eastburgh</text>
</g>
<g id="Nation6">
	<path id="outline" fill="none" stroke="#000000" stroke-width="12" stroke-miterlimit="10" d="M415.5,82.5
		c0,138.986,0,278.014,0,417c-13.976-0.613-20.807-6.034-32-8c-11.578-2.033-57.538,20.022-61,26c-1,5-2,10-3,15
		c-5.666,9.332-11.334,18.668-17,28c-5.319,16.216-3.09,28.696-10,42c-6.666,5.666-13.334,11.334-20,17
		c-9.988,12.002-15.224,23.789-28,33c-8.713,6.281-23.309,10.237-36,12c-6.999-0.333-14.001-0.667-21-1c-5,5-10,10.001-15,15
		c-8.999,3-18.001,6-27,9c-18.136,3.248-33.053-6.259-43-12c-6-2-12-4-18-6c-27.654-15.563-44.06-52.928-55-82
		c-7-0.667-14.001-1.333-21-2c0.385-7.33,1.368-17.032-3-20c-13.707-5.659-16.4-4.567-23-17c-10.841-1.101-20.414-2.981-34-3
		c-2.172-18.732-27.613-9.695-19-39c-4.98-5.232-8.015-7.304-19-7c-0.334-4-0.667-8-1-12c-5-0.333-10-0.667-15-1
		c2.234-2.743,2.342-1.908,3-7c-3.329-1.905-5.637-5.164-7-9c4.439-1.67,5.598-3.518,8-7c-0.198-9.934-3.219-9.337-8-14
		c0.274-8.025,2.712-10.324,4-15c2.702-9.808-3.16-20.875-4-30c10.821,0.654,19.301,0.688,23-6c4.187-10.645-5.185-12.078-2-19
		c6.608-2.382,11.711-6.199,15-12c-0.666-1-1.334-2-2-3c-4-1.666-8-3.334-12-5c0.145-12.338-10.189-24.499-18-29
		c3.218-6.851,2.211-20.969,2-31c11.949-9.309,18.704-12.952,18-36c22.068-8.002,9.969-13.546,19-31c0.282-0.545,25-37,25-37
		c6.332-3,12.667-6,19-9c6.88-6.506,4.361-10.846,15-15c0-6.333,0-12.667,0-19c15.665,0,31.335,0,47,0
		c2.333-7.666,4.667-15.334,7-23c4.13,2.503,9.828,3.903,16,2c0.666-2.333,1.334-4.667,2-7c41.611,0.27,42.078-23.304,62-42
		C222.823,82.5,319.176,82.5,415.5,82.5z"/>
	<polygon id="agent_anchor" fill="#A7A9AC" points="382.129,920.094 366.129,934.094 386.129,942.094 	"/>
	<polygon id="pointer" fill="#F1F2F2" points="516.631,895.604 305.499,695.497 276.644,969.1 	"/>
	<g id="34">
		<path id="N6T4" fill="#D7DF23" stroke="#6D6E71" stroke-width="3" stroke-miterlimit="10" d="M260.5,373.5
			c9.332,8.666,18.668,17.334,28,26c-1.59,34.428,26.387,38.126,39,63c4.666,0.333,9.334,0.667,14,1
			c0.482,14.427,7.943,19.467,15,27c0.333,3,0.667,6,1,9c-10.012,2.807-30.221,9.531-35,18c-1,5-2,10-3,15
			c-5.666,9.332-11.334,18.668-17,28c-5.303,16.229-3.095,28.692-10,42c-6.666,5.666-13.334,11.334-20,17
			c-11.484,13.796-17.836,27.864-34,37c-14.949,8.449-33.937,3.641-52,8c-1.131-10.838-4.42-25.599-7-38
			c-3.666-0.333-7.334-0.667-11-1c-1-3-2-6-3-9c-11.246,0.417-20.707-0.015-27-4c-4.84-15.507-17.974-21.112-22-36
			c21.266-15.396,4.25-12.274,13-31c24.221-51.832-30.922-49.646-7-92c10.332-1.666,20.668-3.334,31-5c3-4,6-8,9-12
			c8.666-0.333,17.334-0.667,26-1c5.101-1.688,23.645-10.666,28-15c3.666-5.333,7.334-10.667,11-16
			C240.411,394.254,257.646,394.228,260.5,373.5z"/>
		<polygon id="text_anchor" fill="#EC008C" points="225,503 209,517 229,525 		"/>
	</g>
	<g id="33">
		<path id="N6T3" fill="#D7DF23" stroke="#6D6E71" stroke-width="3" stroke-miterlimit="10" d="M-103.5,303.5
			c120.988,0,242.012,0,363,0c0,24.664,0,49.336,0,74c-2.298,8.536-60.278,53.175-71,57c-7.333,0-14.668,0-22,0
			c-2,0.667-4,1.333-6,2c-3.666,4.333-7.334,8.667-11,13c-8.999,1.333-18.001,2.667-27,4c-0.666,0-1.334,0-2,0
			c-23.011,21.082,12.891,45.808,15,55c3.806,16.586-3.832,28.888-7,37c0,6.666,0,13.334,0,20c-4.333,4-8.667,8-13,12
			c4.891,13.445,17.803,27.021,26,39c7.999,0.333,16.001,0.667,24,1c1.491,9.635,5.648,8.606,14,11c0.288,14.936,4.804,24.995,6,37
			c-33.426,26.042-46.556,25.333-87,8c-16.232-6.956-30.789-12.552-40-26c-4.333-9.666-8.667-19.334-13-29
			c-4.333-4.666-8.667-9.334-13-14c-2.675-5.777-0.909-11.444-3-17c-7-0.667-14.001-1.333-21-2c0.385-7.33,1.368-17.032-3-20
			c-13.707-5.659-16.4-4.567-23-17c-10.841-1.101-20.414-2.981-34-3c-2.172-18.732-27.613-9.695-19-39c-4.98-5.232-8.015-7.304-19-7
			c-0.334-4-0.667-8-1-12c-5-0.333-10-0.667-15-1c2.234-2.743,2.342-1.908,3-7c-3.329-1.905-5.637-5.164-7-9
			c4.439-1.67,5.598-3.518,8-7c-0.198-9.934-3.219-9.337-8-14c0.274-8.025,2.712-10.324,4-15c2.702-9.808-3.16-20.875-4-30
			c10.821,0.654,19.301,0.688,23-6c4.187-10.645-5.185-12.078-2-19c6.608-2.382,11.711-6.199,15-12c-0.666-1-1.334-2-2-3
			c-4-1.666-8-3.334-12-5c0.145-12.338-10.189-24.499-18-29C-102.666,324.504-103.288,312.557-103.5,303.5z"/>
		<polygon id="text_anchor" fill="#EC008C" points="54,385 38,399 58,407 		"/>
	</g>
	<g id="32">
		<path id="N6T2" fill="#D7DF23" stroke="#6D6E71" stroke-width="3" stroke-miterlimit="10" d="M259.5,82.5
			c0,73.326,0,146.674,0,220c-120.988,0-242.012,0-363,0c5.998-18.496,18.3-7.118,18-39c22.068-8.002,9.969-13.546,19-31
			c0.282-0.545,25-37,25-37c6.332-3,12.667-6,19-9c6.88-6.506,4.361-10.846,15-15c0-6.333,0-12.667,0-19c15.665,0,31.335,0,47,0
			c2.333-7.666,4.667-15.334,7-23c4.13,2.503,9.828,3.903,16,2c0.666-2.333,1.334-4.667,2-7c41.611,0.27,42.078-23.304,62-42
			C170.829,82.5,215.171,82.5,259.5,82.5z"/>
		<polygon id="text_anchor" fill="#EC008C" points="135,191 119,205 139,213 		"/>
	</g>
	<g id="31">
		<path id="N6T1" fill="#D7DF23" stroke="#6D6E71" stroke-width="3" stroke-miterlimit="10" d="M260.5,82.5
			c51.661,0,103.339,0,155,0c0,138.986,0,278.014,0,417c-24.143-0.784-35.416-11.406-57-1c-0.333-3.333-0.667-6.667-1-10
			c-2.074-2.836-7.897-2.546-10-6c-2.333-6.999-4.667-14.001-7-21c-4.666-0.333-9.334-0.667-14-1c-1.675-16.836-13.455-11.418-21-21
			c-5.999-8.999-12.001-18.001-18-27c-1.101-6.203,2.683-9.935,0-16c-33.719-16.842-27.002-47.361-27-96
			C260.5,227.841,260.5,155.159,260.5,82.5z"/>
		<polygon id="text_anchor" fill="#EC008C" points="327,264 311,278 331,286 		"/>
	</g>
	
		<text id="LM" transform="matrix(1 0 0 1 -47.3218 345.998)" display="none" enable-background="new    " font-family="'MyriadPro-Regular'" font-size="60">Lower Middleton</text>
</g>
<g id="Nation7">
	<path id="outline" fill="none" stroke="#000000" stroke-width="12" stroke-miterlimit="10" d="M-108.5,422.5
		c-1.333,9.666-2.667,19.334-4,29c2.666,2.333,5.334,4.667,8,7c-1.104,8.441-5.847,8.945-10,14c0.666,1,1.334,2,2,3
		c2.333,2,4.667,4,7,6c-3.259,3.515-5.113,3.354-4,9c5.666,0,11.334,0,17,0c0.333,4,0.666,8,1,12c7.83-0.204,12.065,0.908,17,3
		c0.053,7.464-1.274,8.992-4,13c7.392,10.776,11.301,16.013,24,22c0.333,2.666,0.666,5.334,1,8c13.757-0.352,25.548,0.374,35,4
		c3.689,12.755,11.102,12.527,24,16c0.333,6.666,0.666,13.334,1,20c8.334-0.46,17.216-0.214,21,4c0.666,4.333,1.334,8.667,2,13
		c4,4,8,8,12,12c0.666,9.332,1.334,18.668,2,28c5.045,29.364-5.158,50.218-25,58c-5.333,0.667-10.667,1.333-16,2
		c-21.512,9.138-35.349,25.283-63,31c-24.193,5.002-39.135-7.271-57,6c-5.596,14.557-15,17.456-25,27
		c0.906,55.483-63.017,58.179-94,34c-13.404-10.461-13.584-28.139-36-31c-38.867,16.438-67.078,5.855-65-43c-7.999,0-16.001,0-24,0
		c-10.552,18.883-25.106,22.717-47,31c-13.332,5.999-26.668,12.001-40,18c-25.959,4.146-66.581-2.262-83-7c-8.666,0-17.334,0-26,0
		c-27.602-6.796-60.282-31.83-70-56c-22.072-54.896,57.566-60.127,70-94c-0.333-4.333-0.667-8.667-1-13
		c-0.244-30.356-12.596-38.393-13-70c4.974-1.069,7.369-2.693,10-6c-0.199-8.767-4.227-12.884-5-17c11.539-4.532,14.234-9.223,33-9
		c0.667-0.333,1.333-0.667,2-1c-0.215-16.146,5.752-16.138,8-27c-1.333-0.667-2.667-1.333-4-2c13.62-11.455,42.121-2.004,60-10
		c3.142-13.344,16.808-15.618,30-19c-1.073-12.4-11.839-15.045-10-22c27.259-5.231,56.112-22.287,81-29
		c7.208-1.944,10.593,3.296,16,4c33.756,4.395,67.37,2.303,96-3c5.74-10.761,8.781-34.722,32-24c10.535,5.899,20.475,27.913,27,39
		c25.026,6.972,64.425,0.344,83-5c0.882,7.95,0.117,6.563-2,14c0.333,0.333,0.666,0.667,1,1
		C-111.834,422.5-110.166,422.5-108.5,422.5z"/>
	<polygon id="agent_anchor" fill="#A7A9AC" points="-1085.488,823.502 -1101.488,837.502 -1081.488,845.502 	"/>
	<polygon id="pointer" fill="#F1F2F2" points="-1079.286,948.105 -675.806,775.614 -1101.785,766.614 	"/>
	<g id="33">
		<path id="N7T3" fill="#C49A6C" stroke="#6D6E71" stroke-width="3" stroke-miterlimit="10" d="M-108.5,422.5
			c-1.333,9.666-2.667,19.334-4,29c2.666,2.333,5.334,4.667,8,7c-1.104,8.441-5.847,8.945-10,14c0.666,1,1.334,2,2,3
			c2.333,2,4.667,4,7,6c-3.259,3.515-5.113,3.354-4,9c5.666,0,11.334,0,17,0c0.333,4,0.666,8,1,12c7.83-0.204,12.065,0.908,17,3
			c-0.835,18.99-0.039,22.085,4,43c-0.334,0-0.667,0-1,0c-11.044-9.443-48.947-18.713-63-22c-6.531,7.643-6.709,13.332-22,13
			c-0.773-4.419-0.604-3.715-3-6c-8.552,0.493-13.979,2.434-19,6c-1.666,5.666-3.334,11.334-5,17c4.324,4.619,7.096,9.859,8,18
			c-0.334,0.333-0.667,0.667-1,1c-48.328,0-96.672,0-145,0c-6.666,10.332-13.334,20.668-20,31c-72.326,0-144.674,0-217,0
			c0.944-28.882-12.167-37.12-13-68c4.974-1.069,7.369-2.693,10-6c-0.199-8.767-4.227-12.884-5-17c11.539-4.532,14.234-9.223,33-9
			c0.667-0.333,1.333-0.667,2-1c-0.215-16.146,5.752-16.138,8-27c-1.333-0.667-2.667-1.333-4-2c13.62-11.455,42.121-2.004,60-10
			c3.142-13.344,16.808-15.618,30-19c-1.073-12.4-11.839-15.045-10-22c27.259-5.231,56.112-22.287,81-29
			c7.208-1.944,10.593,3.296,16,4c33.756,4.395,67.37,2.303,96-3c5.74-10.761,8.781-34.722,32-24c10.535,5.899,20.475,27.913,27,39
			c25.026,6.972,64.425,0.344,83-5c0.882,7.95,0.117,6.563-2,14c0.333,0.333,0.666,0.667,1,1
			C-111.834,422.5-110.166,422.5-108.5,422.5z"/>
		<polygon id="text_anchor" fill="#EC008C" points="-304,471 -320,485 -300,493 		"/>
	</g>
	<g id="32">
		<path id="N7T2" fill="#C49A6C" stroke="#6D6E71" stroke-width="3" stroke-miterlimit="10" d="M-175.5,575.5
			c0.769,19.894-3.149,21.373-15,28c2.628,32.637-11.305,44.096-28,62c-13.455,0.221-22.53-2.137-33-4
			c-3.521,11.416-10.67,34.299-17,44c-21.159,3.59-36.659,8.599-58,14c-6.43,1.627-7.455,8.033-12,10c-7.666,0-15.334,0-23,0
			c-10.528,18.888-25.121,22.721-47,31c-13.332,5.999-26.668,12.001-40,18c-25.862,4.222-66.676-2.229-83-7c-8.666,0-17.334,0-26,0
			c-27.623-6.817-60.253-31.816-70-56c-24.908-61.8,69.84-52.676,69-108c72.326,0,144.674,0,217,0c7.332-10.666,14.668-21.334,22-32
			C-271.505,575.5-223.495,575.5-175.5,575.5z"/>
		<polygon id="text_anchor" fill="#EC008C" points="-467,679 -483,693 -463,701 		"/>
	</g>
	<g id="31">
		<path id="N7T1" fill="#C49A6C" stroke="#6D6E71" stroke-width="3" stroke-miterlimit="10" d="M-134.5,527.5
			c24.627,5.442,41.366,14.344,65,22c-1-6.666-2-13.334-3-20c7.439,3.583,16.321,9.873,19,19c13.757-0.352,25.548,0.374,35,4
			c3.689,12.755,11.102,12.527,24,16c0.333,6.666,0.666,13.334,1,20c8.334-0.46,17.216-0.214,21,4c0.666,4.333,1.334,8.667,2,13
			c4,4,8,8,12,12c0.666,9.332,1.334,18.668,2,28c5.045,29.364-5.158,50.218-25,58c-5.333,0.667-10.667,1.333-16,2
			c-21.512,9.138-35.349,25.283-63,31c-24.193,5.002-39.135-7.271-57,6c-5.596,14.557-15,17.456-25,27
			c0.906,55.483-63.017,58.179-94,34c-13.404-10.461-13.584-28.139-36-31c-18.937,8.251-44.506,13.05-58-5
			c-7.067-9.454-13.43-37.663,0-45c4.224-2.182,9.825-0.401,16-2c13.377-3.463,31.912-10.771,48-15
			c4.612-12.977,13.582-30.723,15-43c11.042,1.457,22.36,5.35,35,3c8.999-11.332,18.001-22.668,27-34c4.009-9.971-1.396-21.985,2-30
			c6.55-1.63,9.127-3.963,13-8c0.297-20.298-6.078-28.34-8-42c5.262-9.939,8.798-20.482,25-16c0.333,1.666,0.666,3.334,1,5
			c3.666-0.333,7.334-0.667,11-1C-140.059,536.944-137.756,532.086-134.5,527.5z"/>
		<polygon id="text_anchor" fill="#EC008C" points="-118,649 -134,663 -114,671 		"/>
	</g>
	
		<text id="SS" transform="matrix(1 0 0 1 -457.3262 623.4961)" display="none" enable-background="new    " font-family="'MyriadPro-Regular'" font-size="60">South Shore</text>
</g>
<g id="Nation8">
	<path id="outline" fill="none" stroke="#000000" stroke-width="12" stroke-miterlimit="10" d="M-558.5,503.5
		c-0.333,2-0.667,4-1,6c-4.333,2-8.667,4-13,6c0,1.333,0,2.667,0,4c6.292,2.299,9.128,6.559,7,14c-2,0.667-4,1.333-6,2c0-2,0-4,0-6
		c-15.055,1.658-35.96,4.703-50-1c-9.999-4.666-20.001-9.334-30-14c-8.51-1.854-15.598,2.04-21,3c-10.812,1.921-23.544-3.08-34,1
		c-4,4-8,8-12,12c-9.305,6.957-23.601,11.646-37,14c-12.1,2.126-75.258-17.284-83-23c-9.3-6.867-13.417-19.967-22-27
		c-9.333-2.333-18.667-4.667-28-7c-20.221-8.276-51.176-27.127-61-46c-10.246-19.684-3.2-62.117-9-86
		c-4.666-8.666-9.334-17.334-14-26c-7.03-18.559-5.415-42.474,0-60c5.604-18.141,20.529-43.443,35-53c7-4,14-8,21-12
		c22.055-33.448,14.911-73.077,56-90c12.095-4.981,27.124,1.803,40,0c19.138-2.679,29.899-13.374,47-15c6,3,12,6,18,9
		c3.333-1.666,6.667-3.334,10-5c3.666,0.667,7.333,1.333,11,2c0.667,0,1.333,0,2,0c1-2,2-4,3-6c7.181,1.697,8.601,5.833,13,10
		c3.525-8.438,18.391-7.283,28-9c-0.589-5.642,1.379-18.438,4-20c12.899,45.257,28.156,20.723,63,37
		c18.635,8.705,20.835,22.479,34,32c15.224,11.01,30.019,17.661,44,29c11.332-5.666,22.668-11.334,34-17
		c-0.418-19.6,8.575-30.329,21-37c0.333,79.992,0.667,160.008,1,240c35.115,1.975,20.125,23.708,35,41c2.667,0.333,5.333,0.667,8,1
		c-2.283,10.141-9.372,10.324-12,19c5.958,4.765,12.068,11.154,16,18c-12.598,8.93-24.542,6.43-31,22
		c-11.666-0.667-23.334-1.333-35-2c0.333,1.333,0.667,2.667,1,4c-10.496-0.18-18.229,2.33-25,6c1.333,2.666,2.667,5.334,4,8
		c-7.088,6.525-6.162,10.335-9,22C-543.166,503.5-550.834,503.5-558.5,503.5z"/>
	<polygon id="agent_anchor" fill="#A7A9AC" points="-1482.265,132.645 -1498.265,146.645 -1478.265,154.645 	"/>
	<polygon id="pointer" fill="#F1F2F2" points="-1511.263,249.14 -1046.286,268.64 -1461.766,39.15 	"/>
	<g id="34">
		<path id="N8T4" fill="#603913" stroke="#6D6E71" stroke-width="3" stroke-miterlimit="10" d="M-955.5,376.5
			c69.993,0,140.007,0,210,0c18.958,0,70.244-4.87,83,2c-1.231,3.015-1.303,1.83-1,5c5.73,2.474,7.849,7.33,12,10
			c4.333,0.667,8.667,1.333,13,2c8.485,7.273,5.765,18.784,11,30c3.333,2.666,6.667,5.334,10,8c1.667,6.333,3.333,12.667,5,19
			c7.848,15.675,17.042,31.75,27,45c-1.547,10.717-5.276,15.044,0,25c-1.333,2.333-2.667,4.667-4,7
			c-27.371,5.154-38.757-7.695-58-14c-15.332,0.333-30.668,0.667-46,1c-25.7,4.068-38.556,35.927-73,28
			c-13.489-3.104-62.26-15.824-72-23c-9.588-7.063-13.566-18.994-22-27c-11.332-3.333-22.668-6.667-34-10
			C-935.417,463.854-964.363,437.659-955.5,376.5z"/>
		<polygon id="text_anchor" fill="#EC008C" points="-775,445 -791,459 -771,467 		"/>
	</g>
	<g id="33">
		<path id="N8T3" fill="#603913" stroke="#6D6E71" stroke-width="3" stroke-miterlimit="10" d="M-663.5,250.5
			c0,41.996,0,84.004,0,126c-97.324,0-194.676,0-292,0c-4.081-27.854-27.669-55.531-22-86c5.1-27.409,18.509-57.646,37-72
			c7.999-4.666,16.001-9.334,24-14c13.162-19.316,12.382-48.33,26-68c5.753-8.31,25.91-21.826,37-24c12.999,0.333,26.001,0.667,39,1
			c6-3,12-6,18-9c0,48.328,0,96.672,0,145c0.667,0,1.333,0,2,0C-750.838,249.833-707.162,250.167-663.5,250.5z"/>
		<polygon id="text_anchor" fill="#EC008C" points="-871,290 -887,304 -867,312 		"/>
	</g>
	<g id="32">
		<path id="N8T2" fill="#603913" stroke="#6D6E71" stroke-width="3" stroke-miterlimit="10" d="M-663.5,250.5
			c-44.329,0-88.671,0-133,0c0.333-48.662,0.667-97.338,1-146c2.667,0,5.333,0,8,0c0.333-1.666,0.667-3.334,1-5
			c19.943,2.768,42.622,14.274,58,0c6.084,2.221,7.846,6.107,12,10c3.525-8.438,18.391-7.283,28-9c-0.589-5.642,1.379-18.438,4-20
			c4.852,15.93,12.109,22.262,21,33C-663.5,159.162-663.5,204.838-663.5,250.5z"/>
		<polygon id="text_anchor" fill="#EC008C" points="-737,165 -753,179 -733,187 		"/>
	</g>
	<g id="31">
		<path id="N8T1" fill="#603913" stroke="#6D6E71" stroke-miterlimit="10" d="M-558.5,503.5c-0.333,2-0.667,4-1,6
			c-4.333,2-8.667,4-13,6c0,1.333,0,2.667,0,4c6.292,2.299,9.128,6.559,7,14c-2,0.667-4,1.333-6,2c0-2,0-4,0-6
			c-6,0.667-12,1.333-18,2c0-0.333,0-0.667,0-1c5.9-8.916,2.663-22.85,5-35c-17.151-8.668-23.233-38.668-30-58
			c-2.06-5.884-9.686-7.313-12-12c-0.333-3.666-0.667-7.334-1-11c-6.951-17.958-19.683-23.69-35-32c0-89.991,0-180.009,0-270
			c26.763-1.608,51.1,4.863,64,20c3.666,5.666,7.333,11.334,11,17c15.202,11.059,30.131,17.448,44,29
			c11.332-5.666,22.668-11.334,34-17c-0.418-19.6,8.575-30.329,21-37c0.333,79.992,0.667,160.008,1,240
			c10.232,0.266,15.291,3.506,23,6c-0.005,3.838,10.163,33.092,12,35c2.667,0.333,5.333,0.667,8,1c-2.257,10.373-9.337,10.222-12,19
			c6.02,4.809,12.05,11.041,16,18c-12.544,8.887-24.568,6.526-31,22c-11.666-0.667-23.334-1.333-35-2c0.333,1.333,0.667,2.667,1,4
			c-10.496-0.18-18.229,2.33-25,6c1.333,2.666,2.667,5.334,4,8c-7.088,6.525-6.162,10.335-9,22
			C-543.166,503.5-550.834,503.5-558.5,503.5z"/>
		<polygon id="text_anchor" fill="#EC008C" points="-583,297 -599,311 -579,319 		"/>
	</g>
	
		<text id="WL" transform="matrix(1 0 0 1 -856.3672 329.4521)" display="none" enable-background="new    " font-family="'MyriadPro-Regular'" font-size="60">Westland</text>
</g>
</svg>
