<?xml version="1.0" encoding="utf-8"?>
<!-- Generator: Adobe Illustrator 15.0.0, SVG Export Plug-In . SVG Version: 6.00 Build 0)  -->
<!DOCTYPE svg PUBLIC "-//W3C//DTD SVG 1.1//EN" "http://www.w3.org/Graphics/SVG/1.1/DTD/svg11.dtd">
<svg version="1.1" id="Map" xmlns="http://www.w3.org/2000/svg" xmlns:xlink="http://www.w3.org/1999/xlink" x="0px" y="0px"
	 width="2000px" height="1660px" viewBox="0 0 2000 1660" enable-background="new 0 0 2000 1660" xml:space="preserve">
<g id="continent">
	<path id="whole_map" stroke="#000000" stroke-width="10" stroke-miterlimit="10" d="M808.5-546.5c-0.167,0.833-0.334,1.667-0.5,2.5
		c-1.725,3.594-7.159,8.504-12.5,7c-0.246,5.21-2.494,6.45-3.5,9.5c-0.549,1.665,6.221,43.821,7,45.5
		c4.277,9.213,36.42,29.618,46,37c3.631,2.797,5.237,7.405,8.5,10.5c7.501,7.115,17.1,12.891,23.5,21
		c13.89,17.599,15.703,42.701,14,70c-0.616,9.871,2.588,21.111,1,31c-2.265,14.102-8.939,26.178-13.5,37.5
		c-5.105,12.678-4.461,26.588-8,40.5c-1.24,4.875-3.938,13.58-3.5,20c1.818,26.675,31.902,34.562,24,66
		c-1.698,6.756-5.783,10.927-8.5,16c-1.334,3.833-2.667,7.667-4,11.5c-4.26,7.057-10.605,15.236-14.5,22.5c-1,3-2,6-3,9
		c-2.5,3-5,6-7.5,9c-8.558,13.408-13.705,37.485-9,58.5c7.919,35.369,36.369,54.45,61.5,73c27.477,20.281,47.4,43.916,56,83.5
		c2.577,11.864-0.631,27.833,3,39.5c2.487,7.992,8.307,17.736,11,25.5c6.097,17.578,7.346,39.706,4.5,59.5
		c-0.727,5.043,1.739,10.271,0.5,16c-8.038,37.159-34.155,59.291-44,93.5c-2.651,9.213,1.822,16.061,0,26
		c-1.082,5.9-1.909,12.121-3.5,19.5c-2.382,11.047-9.65,19.819-13,30c-5.8,17.624-9.113,31.419-16,48
		c-1.704,4.104-5.556,7.02-7.5,10.5c-2.382,4.262-5.327,28.657-6,36c0.333,5.333,0.666,10.667,1,16
		c-3.413,17.98-8.719,40.894-18.5,53.5c-3.333,2.666-6.667,5.334-10,8c-4.99,4.461-7.424,10.331-13.5,14
		c-5.488,3.314-11.415,2.645-18.5,5c-13.082,4.35-28.146,9.961-41,14.5c-9.443,3.335-17.012,3.544-26,7.5
		c-25.204,11.094-53.44,20.644-80.5,30c-5,0.5-10.001,1-15,1.5c-8.981,2.362-25.849,8.07-37.5,6c-10.332-2.333-20.668-4.667-31-7
		c-18.77-9.34-28.499-33.435-41.5-49c-4-1.833-8-3.667-12-5.5c-4.182-2.802-18.36-16.445-21.5-20.5
		c-7.173-9.262-12.369-26.725-23-32c-7.768-3.854-17.729,1.559-27-1c-11.815-3.261-19.877-11.568-31.5-14.5
		c-0.086-4.96-5.035-9.922-8-14c-3.363,1.006-5.622-0.435-4.5-4c1-0.167,2-0.333,3-0.5c-1-0.333-2-0.667-3-1
		c-3.535-15.237-0.952-31.799-6.5-47c-5.243-0.121-11.879,1.872-18.5,0.5c-6.347-1.315-21.722-8.592-28.5-7.5
		c-11.852,1.908-23.253,9.441-33.5,13.5c-6.434,2.548-18.932,6.57-22.5,12c-1,5.166-2,10.334-3,15.5
		c-3.778,9.673-11.313,19.241-16,28c-0.667,5.333-1.334,10.667-2,16c-2.833,8.166-5.667,16.334-8.5,24.5
		c-4.502,9.771-13.772,12.032-20,19.5c-4.02,4.819-6.544,10.992-10.5,16c-3.191,4.04-16.038,14.188-20.5,17.5
		c-8.191,6.081-23.698,8.506-35.5,10.5c-7.686,1.298-14.044-3.765-20,0c-5.898,3.729-8.171,11.536-17.5,15.5
		c-24.345,10.344-36.563,9.646-61-0.5c-2.833-1.833-5.667-3.667-8.5-5.5c-4.166-1.333-8.334-2.667-12.5-4
		c-7.504-4.528-22.986-15.703-27.5-23c-8.635-13.958-12.485-32.857-26-42c-0.667-3.666-1.334-7.334-2-11
		c-1.99-0.291-1.301-0.665-2.5,1c-3.512,13.185,10.729,16.156,13.5,25c-0.334,2.5-0.667,5-1,7.5c3.918,16.033,6.771,45.76-3,60.5
		c-4.868,7.344-13.433,13.419-23,16c-4,0.5-8,1-12,1.5c-2.833,2.333-5.667,4.667-8.5,7c-3.333,1.166-6.667,2.333-10,3.5
		c-5.5,3.833-11.001,7.667-16.5,11.5c-6.987,4.276-20.011,6.607-28.5,8.5c-8.893,1.982-47.957-2.843-51,0.5
		c-13.834,13.296-8.738,23.166-31.5,32c2.521,31.94-9.864,39.232-35,47c-9.252,2.858-20.408,7.106-32,2.5
		c-8.5-4.833-17.001-9.667-25.5-14.5c-4.895-3.866-6.559-9.028-10-14.5c-4.012-6.377-17.073-13.614-24-17
		c-10.615,1.951-16.735,7.063-27.5,9c-6.061,1.092-12.105-1.112-16-2.5c-19.529-6.958-28.287-23.617-24-48.5
		c-7.823-0.515-15.721-0.055-24.5-0.5c-2.817,7.767-23.275,24.202-31,27.5c-4,0.833-8,1.667-12,2.5
		c-14.082,4.539-27.652,14.521-41.5,18c-6.539,1.643-12.894-0.908-18.5-0.5c-12.63,0.919-24.866,0.123-37.5,0
		c-4.619-0.045-12.055,1.872-17.5,0.5c-4.499-1.134-8.38-4.154-12-5.5c-6.373-2.368-10.926,1.636-18,0.5
		c-10.252-1.646-20.521-4.539-30-8.5c-8.241-3.443-11.247-10.533-17.5-15.5c-23.941-19.018-46.537-39.593-22.5-77.5
		c10.601-16.719,35.109-17.159,49.5-30c5.975-5.331,6.479-15.506,13-20.5c-2.54-8.896-0.762-25.048,0-35
		c-14.576-11.072-13.746-36.28-15-56.5c-7.086,2.769-14.979,2.757-23,1.5c-6.165-0.966-12.65,1.725-19,0
		c-13.336-3.623-25.126-12.799-39-16c-8.125-1.874-14.776,2.085-21.5,3c-3.667-0.5-7.334-1-11-1.5
		c-6.833,0.833-13.667,1.667-20.5,2.5c-5.424,2.689-8.944,8.472-13.5,12c-8.827,6.837-26.5,13.046-40,14
		c-9.483,0.67-15.458-4.646-22-6.5c-20.444-5.791-42.923-6.132-57.5-17.5c-6-6.166-12-12.334-18-18.5
		c-1.167-2.333-2.333-4.667-3.5-7c-6.258-4.895-17.829-3.829-25.5-7c-17.927-7.409-51.004-28.573-61-43.5
		c-2.941-4.392-5.386-10.623-6.5-16.5c-1.333-7.032,3.252-20.688,0-25.5c-7.416-10.975-1.733-17.869-2-31
		c-1.167-0.667-2.333-1.334-3.5-2c3.705-18.389-7.42-25.781-13.5-41.5c-1.621-4.19-0.43-10.59-1.5-14.5
		c-1.443-5.27-5.195-11.958-3.5-20.5c4.314-21.741,8.994-38.378,20-53c2.333-2.166,4.667-4.334,7-6.5
		c3.642-5.257,5.539-10.673,10.5-14.5c6.43-4.96,18.321-9.253,23.5-15c0.833-2.833,1.667-5.667,2.5-8.5
		c3.542-7.311,9.736-16.875,12.5-24.5c4.261-11.755,5.182-25.936,12-35c3.943-5.242,9.545-7.151,15-11
		c5.399-3.81,9.12-8.676,16.5-11c12.824-4.039,28.418,1.822,41.5-0.5c6.343-1.126,9.972-3.593,15-5c0-1.167,0-2.334,0-3.5
		c4.833-0.167,9.667-0.333,14.5-0.5c-0.083-2.816-0.125-3.317,1-5.5c4.07,0.258,5.963,2.759,8.5,3c2.301,0.219,2.929-3.155,7-2
		c4.833,2.666,9.667,5.334,14.5,8c5.283,1.149,8.479-3.734,12-4.5c3.833,0.666,7.667,1.333,11.5,2c0-0.167,0-0.333,0-0.5
		c0.167,0,0.333,0,0.5,0c1-2,2-4,3-6c4.792,0.863,9.755,7.635,12.5,11c0.51-2.16,0.353-3.853,2-5c7.013-3.727,18.353-0.965,26-5
		c-1.895-5.883,1.452-7.856,2.5-12c0.955-3.775-2.167-4.426-1.5-8c0.167,0,0.333,0,0.5,0c0.833,0.167,1.667,0.333,2.5,0.5
		c1.69,8.263,7.329,10.296,5.5,20.5c6.986,2.37,10.086,8.098,15.5,12c27.848-5.258,52.246,7.148,65.5,21c3,4.666,6,9.334,9,14
		c8.885,5.369,18.083,8.582,26.5,14.5c2.833,3,5.667,6,8.5,9c2.783,2.072,11.014,7.693,12.5,7c11.215-4.486,19.074-12.647,31.5-16
		c-0.186-26.052,14.53-33.915,30-44c2.833-1.167,5.667-2.334,8.5-3.5c1.793-1.765,7.699-12.952,10-16
		c-4.552-7.511-6.247-16.483-5-27.5c0.662-5.854-2.463-11.735-1-18.5c3.109-14.375,13.47-25.161,19.5-36.5
		c2.562-4.816,2.986-8.995,6-13c3.166-2.666,6.333-5.334,9.5-8c4.148-4.953,6.428-9.976,12-13.5c9.166-3.5,18.334-7,27.5-10.5
		c4.966,2.759,7.359,6.168,11.5,9c-1.533-3.45-3.617-6.651-3.5-10c10.017-9.428,25.098-2.764,40-6.5
		c10.844-2.719,27.892-11.768,37.5-17.5c3.396-2.026,8.621-11.394,14-6.5c-0.936,4.224,0.356,7.42,0,12
		c5.17,2.338,7.279,11.621,10,16.5c-0.167-2.333-0.334-4.667-0.5-7c-1.294-1.82-0.969-1.434-3-1.5c0.521-3.303-2.095-5.911-2.5-9
		c1.5-6,3-12,4.5-18c32.135-13.619,35.291-3.438,62,7c11.8,4.611,15.063-2.74,20,9.5c10.914,0.625,19.42,5.78,28.5,6.5
		c0-0.166,0-0.334,0-0.5c-6.771-6-11.508-3.385-20.5-7c-5.283-2.124-7.088-7.988-11-11.5c-16.195,2.848-34.995-9.229-48.5-16.5
		c0.762-15.633,11.663-48.967,20-56c-7.656-13.539-19.185-26.346-23-44c-0.334-10.499-0.667-21.001-1-31.5
		c-0.797-4.205-3.498-9.341-2.5-15.5c1.294-7.986,2.431-17.6,5-26c1.677-5.482,4.994-8.654,6-15
		c-10.842-8.577-25.516-42.336-25.5-63c-11.511-2.1-10.508-23.055-6-32c1.777-3.527,5.166-3.059,6-8c0.57-3.98-2.248-5.203-3-9
		c-3.008-15.189,2.052-27.586,14-31.5c0.265-6.341,2.211-9.814,3.5-14c-0.5-1.5-1-3-1.5-4.5c-1.354-7.946,4.873-12.139,11-13
		c-1.5-2.333-3-4.667-4.5-7c-1.328-4.112,0.693-6.828,1.5-9.5c0-2.667,0-5.333,0-8c1.441-6.506,5.641-6.574,10-10
		c-4.997-8.661,2.363-18.961,10-21c0.424-7.888,1.057-12.372,7.5-15.5c-4.061-9.891,6.719-27.121,18-27
		c2.129-6.952,9.124-11.993,15.5-14.5c-0.682-7.567-0.543-12.693,3-17.5c6.73-2.253,9.374-0.464,13.5,3.5
		c0.833-0.333,1.666-0.667,2.5-1c-1.367-7.521,8.473-11.823,13-15.5c0.666-1.667,1.334-3.333,2-5c7.879-10.669,12.221-12.74,28-9.5
		c-0.922-3.465-0.715-4.715,1-7.5c1.333-0.167,2.666-0.333,4-0.5c3.301,0.674,4.028,2.088,4.5,5.5c6.396-0.732,10.13,1.758,10.5,8.5
		c5.724-0.672,9.81,2.22,14.5,1.5c9.291-1.427,16.678-3.243,26-4.5c3.333,0.5,6.667,1,10,1.5c8.736,0.786,25.426-0.001,35.5-1
		c15.255-1.513,25.537-8.712,37.5-12c10.605-2.915,18.347-0.386,29-3.5c12.41-3.627,26.055-9.404,37-14
		c7.549-3.17,31.479-11.267,35.5-16c2.517-2.963,0.744-6.52,2-10c1.333-1.5,2.666-3,4-4.5c1.422-3.525,0.456-5.872,2.5-9
		c1.833-0.333,3.666-0.667,5.5-1c5.996,1.029,8.947,12.4,14.5,9.5c11.949-3.712,20.142-11.065,29.5-17c3.333-1.333,6.667-2.667,10-4
		c11.665-9.499,23.334-19.001,35-28.5c9.398-12.244,19.586-22.929,29-35c3.166-2.667,6.334-5.333,9.5-8
		c9.093-12.23,17.242-23.49,28.5-33.5c-1.313-7.036-0.805-13.707,2.5-18.5c6.116-1.737,6.49,0.424,11,2
		c3.746,1.309,10.843-2.586,17-2c2.5,0.667,5,1.333,7.5,2c0-0.167,0-0.333,0-0.5c-1.024-2.663-0.762-4.206,0-7
		c4.834-3.512,7.771-2.129,11.5,1.5c9.008-4.538,10.398-12.877,23-4.5c0.897,0.597,6.457-2.45,9.5-1.5c2.043,0.638,2.567,3.13,4,4
		c3.195,1.942,30.021-2.218,35-1c1,2,2,4,3,6c2.662-1.024,4.206-0.761,7,0c2.708,4.184,9.243,15.715,9.5,21
		c4.511,0.563,13.413,11.743,15,15.5c-0.34,2.686-1.984,4.862-1,5.5c9.618,10.291,21.271,17.746,32.5,26.5
		c16.029,12.497,25.923,31.588,43.5,43c5.956,3.867,14.645,3.97,21.5,7c15.976,7.061,34.637,13.552,51.5,21
		c8.359,3.692,18.135,10.63,26,14.5c4.742,2.333,9.014,2.329,13,5c7.545,5.055,18.1,21.262,22.5,29.5c2.267,4.245,3.97,10.779,8,13
		c4.499,1,9,2,13.5,3c3,2,6,4,9,6c7.599,3.643,15.039,3.518,23.5,6.5c14.394,5.073,31.869,13.494,46,18.5
		c11.943,4.23,20.081,4.623,25,16c9.192-4.128,18.133,1.211,26.5-0.5c5.1-1.042,7.719-4.627,12.5-6.5c-0.5-1.5-1-3-1.5-4.5
		c0.5-0.667,1-1.333,1.5-2c3.5-0.5,7-1,10.5-1.5c1.086,0.913,1.585,1.417,2.5,2.5c0,0.167,0,0.333,0,0.5
		c-4.451,6.265-7.789,11.524-13.5,16.5C810.833-546.5,809.666-546.5,808.5-546.5z"/>
</g>
<g id="Nation1_1_">
	<path id="background1" fill="#DB143B" stroke="#000000" stroke-width="12" stroke-miterlimit="10" d="M-258.5-202.5
		c24.729-0.001,34.609,6.57,50,14c0.333,3.666,0.666,7.334,1,11c20.143,0.186,33.852-2.205,45-5c16.857,14.193,36.239-2.858,43-1
		c4.271,1.174,10.388,22.23,19,26c17.229,7.541,43.572-4.863,66,0c17.164,3.723,16.99,14.195,40,14c0,6.333,0,12.668,0,19
		c21.252,9.409,37.798-6.521,54-3c14.064,3.058,27.372,6.06,43,6c0.666-1,1.334-2,2-3c0-4.333,0-8.667,0-13
		c8.004,0.638,8.02,4.559,13,6c11.646,3.369,23.926-13.864,35-4c0,5,0,10,0,15c5.666,3.333,11.334,6.667,17,10
		c-7.363,17.879-31.506,21.018-32,48c2,1.333,4,2.667,6,4c-2.242,5.451-2.181,14.717-2,23c-3.333,2.333-6.667,4.667-10,7
		c0.663,10.4,2.109,13.901-2,22c-3.333,0.666-6.667,1.334-10,2c0.225,10.104,3.946,15.322,7,23c7.965,0.774,20.773,5.845,25,11
		c-7.196,6.767-18.996,11.295-32,12c-1.333,2.666-2.667,5.334-4,8c0.313,13.024,10.697,25.172,5,34
		c-9.177,20.297-22.461,31.114-45,38c-4,0-8,0-12,0c-5.607,2.646-1.024,7.014-11,8c-2.333-1.333-4.667-2.667-7-4
		c-0.666,0.667-1.334,1.333-2,2c-1.666,6.999-3.334,14.001-5,21c-16.332,0.333-32.668,0.667-49,1c0,6.666,0,13.334,0,20
		c-11.271,2.836-8.304,8.893-15,15c-5.666,2.666-11.334,5.334-17,8c-2.75,2.129-23.461,32.813-26,37
		c-10.157,16.745,3.397,24.02-20,32c0.429,10.875-0.005,19.202-4,25c-6.253,2.554-10.379,6.831-14,12c0.149,12.149-0.67,24.559-2,34
		c10.424,4.479,15.895,17.726,19,30c4,2,8,4,12,6c-0.666,1-1.334,2-2,3c-6.199,1.966-11.902,5.784-15,11
		c2.896,7.792,8.229,9.328,3,18c-29.535,5.332-65.443,16.41-101,10c-9.503-14.713-18.027-27.47-28-41c-8.666,0-17.334,0-26,0
		c-1.508,6.748-5.777,21.515-11,25c-15.227,5.788-71.899,7.33-93,3c-4.6-0.943-10.529-6.613-18-4c-23.173,8.106-51.441,23.298-78,28
		c0-0.333,0-0.667,0-1c2.717-5.827,5.181-9.688,4-17c-3,0-6,0-9,0c-0.242-16.289-6.915-22.396-11-36c-8.232-1.903-12.85-5.221-23-6
		c0-59.327,0-118.673,0-178c0-11.757-2.807-56.467,2-62c4-2,8-4,12-6c3.333-5.333,6.667-10.667,10-16
		c-20.089-41.511,15.027-98.948,38-116c9.999-4,20.001-8,30-12c4.333,3.333,8.667,6.667,13,10c-3.089-4.777-4.902-8.223-3-13
		c11.77-3.25,33.196-1.561,45-6c15.283-5.748,28.393-19.912,43-24c0.666,0.334,1.334,0.667,2,1c-0.473,10.997,1.602,15.23,7,20
		c-3.283-7.363-3.436-22.313,4-27c24.207-15.715,61.932,5.645,79,17c11.332,2.666,22.668,5.334,34,8c-6.604-5.529-14.93-4.246-24-8
		c-5.548-2.297-7.35-9.941-12-12c-5.333-0.333-10.667-0.666-16-1c-10.999-5.333-22.001-10.667-33-16
		c0.848-20.428,9.137-44.504,20-56C-246.934-155.91-257.717-168.891-258.5-202.5z"/>
	<g id="merson1_3">
		<path id="path1_3" fill="#EBEBEB" stroke="#6D6E71" stroke-width="2" stroke-miterlimit="10" d="M-140.451,145.844
			c0-3.43-9.443-33.75-11.737-41.96c-0.299-1.073-1.709-2.318-3.693-3.596c3.927-4.517,6.311-10.412,6.311-16.867
			c0-14.207-11.517-25.724-25.724-25.724c-14.206,0-25.723,11.517-25.723,25.724c0,6.528,2.436,12.483,6.442,17.019
			c-1.925,1.241-3.293,2.449-3.606,3.499c-0.99,3.309-11.212,38.64-11.212,41.905c-0.002,5.547,4.168,9.033,8.071,9.977
			c1.225,10.862,5.72,19.157,6.692,21.877c-6.277,4.732-6.277,9.629,0,9.604c17.201-0.069,18.831-4.114,18.831-4.114h0.497
			c0,0,1.475,4.044,18.985,4.044c9.365,0,6.38-5.488,0-9.534c1.357-2.204,5.86-10.918,7.075-21.933
			C-145.842,154.764-140.451,151.35-140.451,145.844z"/>
		<polygon id="text_anchor_8_" fill="#EBEBEB" stroke="#6D6E71" stroke-miterlimit="10" points="-172,118 -188,132 -168,140 		"/>
	</g>
	<g id="merson1_2">
		<path id="path1_2" fill="#EBEBEB" stroke="#6D6E71" stroke-width="2" stroke-miterlimit="10" d="M-224.451,145.844
			c0-3.43-9.443-33.75-11.737-41.96c-0.299-1.073-1.709-2.318-3.693-3.596c3.927-4.517,6.311-10.412,6.311-16.867
			c0-14.207-11.517-25.724-25.724-25.724c-14.206,0-25.723,11.517-25.723,25.724c0,6.528,2.436,12.483,6.442,17.019
			c-1.925,1.241-3.293,2.449-3.606,3.499c-0.99,3.309-11.212,38.64-11.212,41.905c-0.002,5.547,4.168,9.033,8.071,9.977
			c1.243,11.018,5.777,19.316,6.692,21.877c-6.277,4.732-6.277,9.629,0,9.604c17.201-0.069,18.831-4.114,18.831-4.114h0.497
			c0,0,1.475,4.044,18.985,4.044c9.365,0,6.38-5.488,0-9.534c1.357-2.204,5.86-10.918,7.075-21.933
			C-229.842,154.764-224.451,151.35-224.451,145.844z"/>
		<polygon id="text_anchor_9_" fill="#EBEBEB" stroke="#6D6E71" stroke-miterlimit="10" points="-255,118 -271,132 -251,140 		"/>
	</g>
	<g id="merson1_1_1_">
		<path id="path1_1" fill="#EBEBEB" stroke="#6D6E71" stroke-width="2" stroke-miterlimit="10" d="M-303.451,145.844
			c0-3.43-9.443-33.75-11.737-41.96c-0.299-1.073-1.709-2.318-3.693-3.596c3.927-4.517,6.311-10.412,6.311-16.867
			c0-14.207-11.517-25.724-25.724-25.724c-14.206,0-25.723,11.517-25.723,25.724c0,6.528,2.436,12.483,6.442,17.019
			c-1.925,1.241-3.293,2.449-3.606,3.499c-0.99,3.309-11.212,38.64-11.212,41.905c-0.002,5.547,4.168,9.033,8.071,9.977
			c1.225,10.862,5.72,19.157,6.692,21.877c-6.277,4.732-6.277,9.629,0,9.604c17.201-0.069,18.831-4.114,18.831-4.114h0.497
			c0,0,1.475,4.044,18.985,4.044c9.365,0,6.38-5.488,0-9.534c1.357-2.204,5.86-10.918,7.075-21.933
			C-308.842,154.764-303.451,151.35-303.451,145.844z"/>
		<polygon id="text_anchor_5_" fill="#EBEBEB" stroke="#6D6E71" stroke-miterlimit="10" points="-335,118 -351,132 -331,140 		"/>
	</g>
	<text id="WM" transform="matrix(1 0 0 1 -422.5137 236.9658)" font-family="'MyriadPro-Regular'" font-size="50">West Middleton</text>
	<g id="Agents1">
		<polygon id="Nation1_m3_1" points="-392.583,314.169 -386.422,318.836 -393.583,320.836 		"/>
		<polygon id="Nation1_m3_2" points="-337.51,345.907 -331.35,350.574 -338.51,352.574 		"/>
		<polygon id="Nation1_m3_3" points="-446.583,283.83 -440.422,288.497 -447.583,290.497 		"/>
		<polygon id="Nation1_m1_1" points="-208.918,-150.712 -202.758,-146.045 -209.918,-144.045 		"/>
		<polygon id="Nation1_m1_2" points="-259.496,-59.217 -253.336,-54.55 -260.496,-52.55 		"/>
		<polygon id="Nation1_m1_3" points="-363.642,-19.457 -357.481,-14.79 -364.642,-12.79 		"/>
		<polygon id="Nation1_m4_1" points="62.03,-77.078 68.19,-72.411 61.03,-70.411 		"/>
		<polygon id="Nation1_m4_2" points="-7.537,-86.415 -1.377,-81.748 -8.537,-79.748 		"/>
		<polygon id="Nation1_m4_3" points="80.974,-16.124 87.134,-11.457 79.974,-9.457 		"/>
		<polygon id="Nation1_m2_3" points="-241.529,325.657 -235.369,330.324 -242.529,332.324 		"/>
		<polygon id="Nation1_m2_1" points="-64.42,136.667 -58.26,141.333 -65.42,143.333 		"/>
		<polygon id="Nation1_m2_2" points="-155.913,295.667 -149.753,300.333 -156.913,302.333 		"/>
	</g>
	<path id="outline1_1_" fill="none" stroke="#000000" stroke-width="12" stroke-miterlimit="10" d="M-258.5-202.5
		c24.729-0.001,34.609,6.57,50,14c0.333,3.666,0.666,7.334,1,11c20.143,0.186,33.852-2.205,45-5c16.857,14.193,36.239-2.858,43-1
		c4.271,1.174,10.388,22.23,19,26c17.229,7.541,43.572-4.863,66,0c17.164,3.723,16.99,14.195,40,14c0,6.333,0,12.668,0,19
		c21.252,9.409,37.798-6.521,54-3c14.064,3.058,27.372,6.06,43,6c0.666-1,1.334-2,2-3c0-4.333,0-8.667,0-13
		c8.004,0.638,8.02,4.559,13,6c11.646,3.369,23.926-13.864,35-4c0,5,0,10,0,15c5.666,3.333,11.334,6.667,17,10
		c-7.363,17.879-31.506,21.018-32,48c2,1.333,4,2.667,6,4c-2.242,5.451-2.181,14.717-2,23c-3.333,2.333-6.667,4.667-10,7
		c0.663,10.4,2.109,13.901-2,22c-3.333,0.666-6.667,1.334-10,2c0.225,10.104,3.946,15.322,7,23c7.965,0.774,20.773,5.845,25,11
		c-7.196,6.767-18.996,11.295-32,12c-1.333,2.666-2.667,5.334-4,8c0.313,13.024,10.697,25.172,5,34
		c-9.177,20.297-22.461,31.114-45,38c-4,0-8,0-12,0c-5.607,2.646-1.024,7.014-11,8c-2.333-1.333-4.667-2.667-7-4
		c-0.666,0.667-1.334,1.333-2,2c-1.666,6.999-3.334,14.001-5,21c-16.332,0.333-32.668,0.667-49,1c0,6.666,0,13.334,0,20
		c-11.271,2.836-8.304,8.893-15,15c-5.666,2.666-11.334,5.334-17,8c-2.75,2.129-23.461,32.813-26,37
		c-10.157,16.745,3.397,24.02-20,32c0.429,10.875-0.005,19.202-4,25c-6.253,2.554-10.379,6.831-14,12c0.149,12.149-0.67,24.559-2,34
		c10.424,4.479,15.895,17.726,19,30c4,2,8,4,12,6c-0.666,1-1.334,2-2,3c-6.199,1.966-11.902,5.784-15,11
		c2.896,7.792,8.229,9.328,3,18c-29.535,5.332-65.443,16.41-101,10c-9.503-14.713-18.027-27.47-28-41c-8.666,0-17.334,0-26,0
		c-1.508,6.748-5.777,21.515-11,25c-15.227,5.788-71.899,7.33-93,3c-4.6-0.943-10.529-6.613-18-4c-23.173,8.106-51.441,23.298-78,28
		c0-0.333,0-0.667,0-1c2.717-5.827,5.181-9.688,4-17c-3,0-6,0-9,0c-0.242-16.289-6.915-22.396-11-36c-8.232-1.903-12.85-5.221-23-6
		c0-59.327,0-118.673,0-178c0-11.757-2.807-56.467,2-62c4-2,8-4,12-6c3.333-5.333,6.667-10.667,10-16
		c-20.089-41.511,15.027-98.948,38-116c9.999-4,20.001-8,30-12c4.333,3.333,8.667,6.667,13,10c-3.089-4.777-4.902-8.223-3-13
		c11.77-3.25,33.196-1.561,45-6c15.283-5.748,28.393-19.912,43-24c0.666,0.334,1.334,0.667,2,1c-0.473,10.997,1.602,15.23,7,20
		c-3.283-7.363-3.436-22.313,4-27c24.207-15.715,61.932,5.645,79,17c11.332,2.666,22.668,5.334,34,8c-6.604-5.529-14.93-4.246-24-8
		c-5.548-2.297-7.35-9.941-12-12c-5.333-0.333-10.667-0.666-16-1c-10.999-5.333-22.001-10.667-33-16
		c0.848-20.428,9.137-44.504,20-56C-246.934-155.91-257.717-168.891-258.5-202.5z"/>
	<circle id="control1" display="none" cx="-260" cy="121.172" r="51.229"/>
</g>
<g id="Nation2_1_">
	<path id="background2" fill="#2D8A49" stroke="#000000" stroke-width="12" stroke-miterlimit="10" d="M277.5-194.5
		c-0.333,2.333-0.667,4.667-1,7c-2.333,3-4.667,6-7,9c-4.005-2.166-12.066-3.194-16,0c-3.974,2.164-3.506,3.532-5,8
		c-10.666-0.666-21.334-1.334-32-2c-0.333,1-0.667,2-1,3c-2.036,2.555-2.164,5.891-2,11c-7.999,0.334-16.001,0.667-24,1
		c1.333,1.666,2.667,3.334,4,5c-3.028,6.955-6.293,9.975-12,14c-11.543-0.582-34.476-7.077-48-2c-3.273,1.229-7.811,7.071-14,6
		c-6.401-1.107-7.936-7.455-18-5c-0.334,5-0.667,10-1,15c-17.665-2-35.335-4-53-6c-10.431,3.172-23.891,8.352-39,4
		c-0.334-6.666-0.667-13.334-1-20c-6.333-0.333-12.668-0.666-19-1c-1.713-4.584-4.135-9.26-9-11c-0.334,0.666-0.667,1.334-1,2
		c-3.666-1.333-7.334-2.667-11-4c-19.664,0.666-39.336,1.334-59,2c-4.529-0.882-8.438-2.996-11-6c-7.446-4.317-7.784-12.519-12-20
		c-3.333-0.666-6.667-1.334-10-2c-7.906,5.934-17.829,6.389-33,6c-1.333-2.666-2.667-5.334-4-8c-12.285,4.925-23.479,8.175-44,8
		c0-3.333,0-6.667,0-10c-8.332-4.666-16.668-9.334-25-14c-9.332-0.666-18.668-1.334-28-2c-1-6.666-2-13.334-3-20
		c1.924-15.383,9.293-28.282,11-42c-7.986-6.271-37.158-71.014-34-86c1.394-6.611,7.42-9.644,9-14c-1.333-7.999-2.667-16.001-4-24
		c2.33-11.709,9.914-10.883,15-18c4.829-6.758,1.664-19.203,3-27c3.333-1.667,6.667-3.333,10-5c-3.467-5.569-7.605-18.653-2-28
		c3-2,6-4,9-6c2.134-4.255-2.647-11.396,2-17c2.666-1.333,5.334-2.667,8-4c7.08-10.292,4.623-26.325,12-36
		c3.676-4.82,9.173-3.209,14-7c6.33-4.971,5.316-10.875,15-14c-0.57-8.844-0.361-14.905,5-18c5.973-2.158,8.243,1.621,14,3
		c0.82-8.481,18.279-28.123,25-31c6,0,12,0,18,0c0.333-2.333,0.666-4.667,1-7c2,0,4,0,6,0c4.683,6.313,10.875,4.61,13,14
		c22.467-2.904,51.053,2.733,80-2c18.484-3.022,30.429-10.297,46-14c22.033-5.239,39.337-5.938,59-14
		c9.227-3.783,36.307-10.601,41-19c4.582-8.198,2.516-25.249,14-23c3.666,3,7.334,6,11,9c45.47-9.348,77.896-56.583,106-85
		c12.665-13.665,25.335-27.334,38-41c2.364-6.062-1.393-11.496,2-17c1.517-1.926,1.791-1.77,4-3c9.676,3.748,21.291,0.704,32,3
		c-0.628-4.311-1.273-5.353,2-8c5.063-1.77,7.441,2.671,11,2c2.333-1.667,4.667-3.333,7-5c0,138.986,0,278.014,0,417
		c0,42.996,0,86.004,0,129c0.001,13.697,2.597,34.842-2,45c-12.504,2.049-28.666,8.924-38,15c0.533,9.123,3.458,16.635,0,24
		c-0.333,0-0.667,0-1,0C293.465-185.021,286.053-193.174,277.5-194.5z"/>
	<g id="merson2_5_1_">
		<path id="path2_5" fill="#EBEBEB" stroke="#000000" stroke-width="2" stroke-miterlimit="10" d="M243.554-379.354
			c0-3.43-9.443-33.75-11.737-41.96c-0.299-1.073-1.709-2.318-3.693-3.596c3.927-4.517,6.311-10.412,6.311-16.867
			c0-14.207-11.517-25.724-25.724-25.724c-14.206,0-25.723,11.517-25.723,25.724c0,6.528,2.436,12.483,6.442,17.019
			c-1.925,1.241-3.293,2.449-3.606,3.499c-0.99,3.309-11.212,38.64-11.212,41.905c-0.002,5.547,4.168,9.033,8.071,9.977
			c1.225,10.862,5.72,19.157,6.692,21.877c-6.277,4.732-6.277,9.629,0,9.604c17.201-0.069,18.831-4.114,18.831-4.114h0.497
			c0,0,1.475,4.044,18.985,4.044c9.365,0,6.38-5.488,0-9.534c1.357-2.204,5.86-10.918,7.075-21.933
			C238.163-370.434,243.554-373.848,243.554-379.354z"/>
		<polygon id="text_anchor_14_" fill="#EBEBEB" stroke="#6D6E71" stroke-miterlimit="10" points="212,-408 196,-394 216,-386 		"/>
	</g>
	<g id="merson2_4_1_">
		<path id="path2_4" fill="#EBEBEB" stroke="#000000" stroke-width="2" stroke-miterlimit="10" d="M163.554-379.354
			c0-3.43-9.443-33.75-11.737-41.96c-0.299-1.073-1.709-2.318-3.693-3.596c3.927-4.517,6.311-10.412,6.311-16.867
			c0-14.207-11.517-25.724-25.724-25.724c-14.206,0-25.723,11.517-25.723,25.724c0,6.528,2.436,12.483,6.442,17.019
			c-1.925,1.241-3.293,2.449-3.606,3.499c-0.99,3.309-11.212,38.64-11.212,41.905c-0.002,5.547,4.168,9.033,8.071,9.977
			c1.225,10.862,5.72,19.157,6.692,21.877c-6.277,4.732-6.277,9.629,0,9.604c17.201-0.069,18.831-4.114,18.831-4.114h0.497
			c0,0,1.475,4.044,18.985,4.044c9.365,0,6.38-5.488,0-9.534c1.357-2.204,5.86-10.918,7.075-21.933
			C158.163-370.434,163.554-373.848,163.554-379.354z"/>
		<polygon id="text_anchor_13_" fill="#EBEBEB" stroke="#6D6E71" stroke-miterlimit="10" points="132,-408 116,-394 136,-386 		"/>
	</g>
	<g id="merson2_3_1_">
		<path id="path2_3" fill="#EBEBEB" stroke="#000000" stroke-width="2" stroke-miterlimit="10" d="M83.554-379.354
			c0-3.43-9.443-33.75-11.737-41.96c-0.299-1.073-1.709-2.318-3.693-3.596c3.927-4.517,6.311-10.412,6.311-16.867
			c0-14.207-11.517-25.724-25.724-25.724c-14.206,0-25.723,11.517-25.723,25.724c0,6.528,2.436,12.483,6.442,17.019
			c-1.925,1.241-3.293,2.449-3.606,3.499c-0.99,3.309-11.212,38.64-11.212,41.905c-0.002,5.547,4.168,9.033,8.071,9.977
			c1.225,10.862,5.72,19.157,6.692,21.877c-6.277,4.732-6.277,9.629,0,9.604c17.201-0.069,18.831-4.114,18.831-4.114h0.497
			c0,0,1.475,4.044,18.985,4.044c9.365,0,6.38-5.488,0-9.534c1.357-2.204,5.86-10.918,7.075-21.933
			C78.163-370.434,83.554-373.848,83.554-379.354z"/>
		<polygon id="text_anchor_12_" fill="#EBEBEB" stroke="#6D6E71" stroke-miterlimit="10" points="52,-408 36,-394 56,-386 		"/>
	</g>
	<g id="merson2_2_1_">
		<path id="path2_2" fill="#EBEBEB" stroke="#000000" stroke-width="2" stroke-miterlimit="10" d="M3.554-379.354
			c0-3.43-9.443-33.75-11.737-41.96c-0.299-1.073-1.709-2.318-3.693-3.596c3.927-4.517,6.311-10.412,6.311-16.867
			c0-14.207-11.517-25.724-25.724-25.724c-14.206,0-25.723,11.517-25.723,25.724c0,6.528,2.436,12.483,6.442,17.019
			c-1.925,1.241-3.293,2.449-3.606,3.499c-0.99,3.309-11.212,38.64-11.212,41.905c-0.002,5.547,4.168,9.033,8.071,9.977
			c1.225,10.862,5.72,19.157,6.692,21.877c-6.277,4.732-6.277,9.629,0,9.604c17.201-0.069,18.831-4.114,18.831-4.114h0.497
			c0,0,1.475,4.044,18.985,4.044c9.365,0,6.38-5.488,0-9.534c1.357-2.204,5.86-10.918,7.075-21.933
			C-1.837-370.434,3.554-373.848,3.554-379.354z"/>
		<polygon id="text_anchor_11_" fill="#EBEBEB" stroke="#6D6E71" stroke-miterlimit="10" points="-28,-408 -44,-394 -24,-386 		"/>
	</g>
	<g id="merson2_1_1_">
		<path id="path2_1" fill="#EBEBEB" stroke="#000000" stroke-width="2" stroke-miterlimit="10" d="M-76.446-379.354
			c0-3.43-9.443-33.75-11.737-41.96c-0.299-1.073-1.709-2.318-3.693-3.596c3.927-4.517,6.311-10.412,6.311-16.867
			c0-14.207-11.517-25.724-25.724-25.724c-14.206,0-25.723,11.517-25.723,25.724c0,6.528,2.436,12.483,6.442,17.019
			c-1.925,1.241-3.293,2.449-3.606,3.499c-0.99,3.309-11.212,38.64-11.212,41.905c-0.002,5.547,4.168,9.033,8.071,9.977
			c1.225,10.862,5.72,19.157,6.692,21.877c-6.277,4.732-6.277,9.629,0,9.604c17.201-0.069,18.831-4.114,18.831-4.114h0.497
			c0,0,1.475,4.044,18.985,4.044c9.365,0,6.38-5.488,0-9.534c1.357-2.204,5.86-10.918,7.075-21.933
			C-81.837-370.434-76.446-373.848-76.446-379.354z"/>
		<polygon id="text_anchor_10_" fill="#EBEBEB" stroke="#6D6E71" stroke-miterlimit="10" points="-108,-408 -124,-394 -104,-386 		
			"/>
	</g>
	<text id="BIG" transform="matrix(1 0 0 1 -52.6724 -289.5176)" font-family="'MyriadPro-Regular'" font-size="50">Bigopolis</text>
	<g id="Agents2">
		<polygon id="Nation2_m3_1" points="-150.97,-250.779 -144.81,-246.112 -151.97,-244.112 		"/>
		<polygon id="Nation2_m3_2" points="-86.97,-228.617 -80.81,-223.95 -87.97,-221.95 		"/>
		<polygon id="Nation2_m3_3" points="-197.97,-285.51 -191.81,-280.843 -198.97,-278.843 		"/>
		<polygon id="Nation2_m1_1" points="-31.55,-584.845 -25.39,-580.178 -32.55,-578.178 		"/>
		<polygon id="Nation2_m1_2" points="-134.48,-566.462 -128.32,-561.795 -135.48,-559.795 		"/>
		<polygon id="Nation2_m1_3" points="-204.408,-506.115 -198.248,-501.448 -205.408,-499.448 		"/>
		<polygon id="Nation2_m4_1" points="222.417,-637.722 228.578,-633.055 221.417,-631.055 		"/>
		<polygon id="Nation2_m4_2" points="160.974,-610.716 167.134,-606.049 159.974,-604.049 		"/>
		<polygon id="Nation2_m4_3" points="267.641,-592.179 273.801,-587.512 266.641,-585.512 		"/>
		<polygon id="Nation2_m2_1" points="266.291,-285.51 272.451,-280.843 265.291,-278.843 		"/>
		<polygon id="Nation2_m2_2" points="193.42,-243.289 199.58,-238.622 192.42,-236.622 		"/>
		<polygon id="Nation2_m2_3" points="105.573,-202.5 111.733,-197.833 104.573,-195.833 		"/>
	</g>
	<path id="outline2_1_" fill="none" stroke="#000000" stroke-width="12" stroke-miterlimit="10" d="M277.5-194.5
		c-0.333,2.333-0.667,4.667-1,7c-2.333,3-4.667,6-7,9c-4.005-2.166-12.066-3.194-16,0c-3.974,2.164-3.506,3.532-5,8
		c-10.666-0.666-21.334-1.334-32-2c-0.333,1-0.667,2-1,3c-2.036,2.555-2.164,5.891-2,11c-7.999,0.334-16.001,0.667-24,1
		c1.333,1.666,2.667,3.334,4,5c-3.028,6.955-6.293,9.975-12,14c-11.543-0.582-34.476-7.077-48-2c-3.273,1.229-7.811,7.071-14,6
		c-6.401-1.107-7.936-7.455-18-5c-0.334,5-0.667,10-1,15c-17.665-2-35.335-4-53-6c-10.431,3.172-23.891,8.352-39,4
		c-0.334-6.666-0.667-13.334-1-20c-6.333-0.333-12.668-0.666-19-1c-1.713-4.584-4.135-9.26-9-11c-0.334,0.666-0.667,1.334-1,2
		c-3.666-1.333-7.334-2.667-11-4c-19.664,0.666-39.336,1.334-59,2c-4.529-0.882-8.438-2.996-11-6c-7.446-4.317-7.784-12.519-12-20
		c-3.333-0.666-6.667-1.334-10-2c-7.906,5.934-17.829,6.389-33,6c-1.333-2.666-2.667-5.334-4-8c-12.285,4.925-23.479,8.175-44,8
		c0-3.333,0-6.667,0-10c-8.332-4.666-16.668-9.334-25-14c-9.332-0.666-18.668-1.334-28-2c-1-6.666-2-13.334-3-20
		c1.924-15.383,9.293-28.282,11-42c-7.986-6.271-37.158-71.014-34-86c1.394-6.611,7.42-9.644,9-14c-1.333-7.999-2.667-16.001-4-24
		c2.33-11.709,9.914-10.883,15-18c4.829-6.758,1.664-19.203,3-27c3.333-1.667,6.667-3.333,10-5c-3.467-5.569-7.605-18.653-2-28
		c3-2,6-4,9-6c2.134-4.255-2.647-11.396,2-17c2.666-1.333,5.334-2.667,8-4c7.08-10.292,4.623-26.325,12-36
		c3.676-4.82,9.173-3.209,14-7c6.33-4.971,5.316-10.875,15-14c-0.57-8.844-0.361-14.905,5-18c5.973-2.158,8.243,1.621,14,3
		c0.82-8.481,18.279-28.123,25-31c6,0,12,0,18,0c0.333-2.333,0.666-4.667,1-7c2,0,4,0,6,0c4.683,6.313,10.875,4.61,13,14
		c22.467-2.904,51.053,2.733,80-2c18.484-3.022,30.429-10.297,46-14c22.033-5.239,39.337-5.938,59-14
		c9.227-3.783,36.307-10.601,41-19c4.582-8.198,2.516-25.249,14-23c3.666,3,7.334,6,11,9c45.47-9.348,77.896-56.583,106-85
		c12.665-13.665,25.335-27.334,38-41c2.364-6.062-1.393-11.496,2-17c1.517-1.926,1.791-1.77,4-3c9.676,3.748,21.291,0.704,32,3
		c-0.628-4.311-1.273-5.353,2-8c5.063-1.77,7.441,2.671,11,2c2.333-1.667,4.667-3.333,7-5c0,138.986,0,278.014,0,417
		c0,42.996,0,86.004,0,129c0.001,13.697,2.597,34.842-2,45c-12.504,2.049-28.666,8.924-38,15c0.533,9.123,3.458,16.635,0,24
		c-0.333,0-0.667,0-1,0C293.465-185.021,286.053-193.174,277.5-194.5z"/>
	<circle id="control2" display="none" cx="49.082" cy="-402.698" r="51.229"/>
</g>
<g id="Nation3_1_">
	<path id="background3" fill="#CC0079" stroke="#000000" stroke-width="12" stroke-miterlimit="10" d="M344.5-813.5
		c9.804,0.603,18.467,3.598,25,6c11.665-0.333,23.334-0.667,35-1c12.737,6.353,27.993,33.298,33,48c0.666,0.667,1.333,1.333,2,2
		c11.665,8.999,23.334,18.001,35,27c9.666,10.999,19.334,22.001,29,33c10.531,8.465,22.905,10.244,37,16
		c28.538,11.654,59.06,22.22,85,38c13.358,8.126,21.045,38.88,31,44c30.002,15.432,100.521,23.781,117,49
		c15.597-1.689,27.57-1.82,39-6c0-2.333,0-4.667,0-7c4.905-0.812,9.556-1.724,13,1c-5.245,9.839-17.195,25.242-30,27
		c-17.44,80.579,65.781,83.501,89,134c6.724,14.623,8.596,38.785,6,59c-1.482,11.545,4.013,24.056,1,36
		c-6.938,27.512-22.546,57.172-25,91c-1.656,22.841,21.902,33.177,26,53c3.459,16.736-8.443,25.803-12,37c-1.333,0-2.667,0-4,0
		c-0.215-4.514-0.708-5.391-2-8c-6.999,0.334-14.001,0.667-21,1c-0.529,2.419-13.031,19.07-15,21c-15.943-1.717-27.803-10.709-39-16
		c-7.666,0.666-15.334,1.334-23,2c-2.333-2.666-4.667-5.334-7-8c-10.999,0-22.001,0-33,0c-0.985-8.119-6.129-10.134-15-10
		c-1,2-2,4-3,6c-1-0.333-2-0.666-3-1c-3.46-4.602-5.906-11.783-9-17c-18.242,0.178-24.251,4.649-35,8
		c-14.342,4.471-31.133-4.016-41-6c-10.666,0-21.334,0-32,0c-13.013-2.514-22.827-8.38-34-12c-0.983-51.785-55.19-23.598-98-34
		c-12.602-3.063-17.762-13.705-35-14c-22.852,27.043-68.058,12.342-87-8C344.5-419.48,344.5-616.52,344.5-813.5z"/>
	<g id="merson3_4_1_">
		<path id="path3_4" fill="#EBEBEB" stroke="#000000" stroke-width="2" stroke-miterlimit="10" d="M733.554-379.354
			c0-3.43-9.443-33.75-11.737-41.96c-0.299-1.073-1.709-2.318-3.693-3.596c3.927-4.517,6.311-10.412,6.311-16.867
			c0-14.207-11.517-25.724-25.724-25.724c-14.206,0-25.723,11.517-25.723,25.724c0,6.528,2.436,12.483,6.442,17.019
			c-1.925,1.241-3.293,2.449-3.606,3.499c-0.99,3.309-11.212,38.64-11.212,41.905c-0.002,5.547,4.168,9.033,8.071,9.977
			c1.225,10.862,5.72,19.157,6.692,21.877c-6.277,4.732-6.277,9.629,0,9.604c17.201-0.069,18.831-4.114,18.831-4.114h0.497
			c0,0,1.475,4.044,18.985,4.044c9.365,0,6.38-5.488,0-9.534c1.357-2.204,5.86-10.918,7.075-21.933
			C728.163-370.434,733.554-373.848,733.554-379.354z"/>
		<polygon id="text_anchor_18_" fill="#EBEBEB" stroke="#6D6E71" stroke-miterlimit="10" points="702,-410 686,-396 706,-388 		"/>
	</g>
	<g id="merson3_3_1_">
		<path id="path3_3" fill="#EBEBEB" stroke="#000000" stroke-width="2" stroke-miterlimit="10" d="M653.554-379.354
			c0-3.43-9.443-33.75-11.737-41.96c-0.299-1.073-1.709-2.318-3.693-3.596c3.927-4.517,6.311-10.412,6.311-16.867
			c0-14.207-11.517-25.724-25.724-25.724c-14.206,0-25.723,11.517-25.723,25.724c0,6.528,2.436,12.483,6.442,17.019
			c-1.925,1.241-3.293,2.449-3.606,3.499c-0.99,3.309-11.212,38.64-11.212,41.905c-0.002,5.547,4.168,9.033,8.071,9.977
			c1.225,10.862,5.72,19.157,6.692,21.877c-6.277,4.732-6.277,9.629,0,9.604c17.201-0.069,18.831-4.114,18.831-4.114h0.497
			c0,0,1.475,4.044,18.985,4.044c9.365,0,6.38-5.488,0-9.534c1.357-2.204,5.86-10.918,7.075-21.933
			C648.163-370.434,653.554-373.848,653.554-379.354z"/>
		<polygon id="text_anchor_17_" fill="#EBEBEB" stroke="#6D6E71" stroke-miterlimit="10" points="622,-410 606,-396 626,-388 		"/>
	</g>
	<g id="merson3_2_1_">
		<path id="path3_2" fill="#EBEBEB" stroke="#000000" stroke-width="2" stroke-miterlimit="10" d="M573.554-379.354
			c0-3.43-9.443-33.75-11.737-41.96c-0.299-1.073-1.709-2.318-3.693-3.596c3.927-4.517,6.311-10.412,6.311-16.867
			c0-14.207-11.517-25.724-25.724-25.724c-14.206,0-25.723,11.517-25.723,25.724c0,6.528,2.436,12.483,6.442,17.019
			c-1.925,1.241-3.293,2.449-3.606,3.499c-0.99,3.309-11.212,38.64-11.212,41.905c-0.002,5.547,4.168,9.033,8.071,9.977
			c1.225,10.862,5.72,19.157,6.692,21.877c-6.277,4.732-6.277,9.629,0,9.604c17.201-0.069,18.831-4.114,18.831-4.114h0.497
			c0,0,1.475,4.044,18.985,4.044c9.365,0,6.38-5.488,0-9.534c1.357-2.204,5.86-10.918,7.075-21.933
			C568.163-370.434,573.554-373.848,573.554-379.354z"/>
		<polygon id="text_anchor_16_" fill="#EBEBEB" stroke="#6D6E71" stroke-miterlimit="10" points="542,-410 526,-396 546,-388 		"/>
	</g>
	<g id="merson3_1_1_">
		<path id="path3_1" fill="#EBEBEB" stroke="#000000" stroke-width="2" stroke-miterlimit="10" d="M493.554-379.354
			c0-3.43-9.443-33.75-11.737-41.96c-0.299-1.073-1.709-2.318-3.693-3.596c3.927-4.517,6.311-10.412,6.311-16.867
			c0-14.207-11.517-25.724-25.724-25.724c-14.206,0-25.723,11.517-25.723,25.724c0,6.528,2.436,12.483,6.442,17.019
			c-1.925,1.241-3.293,2.449-3.606,3.499c-0.99,3.309-11.212,38.64-11.212,41.905c-0.002,5.547,4.168,9.033,8.071,9.977
			c1.225,10.862,5.72,19.157,6.692,21.877c-6.277,4.732-6.277,9.629,0,9.604c17.201-0.069,18.831-4.114,18.831-4.114h0.497
			c0,0,1.475,4.044,18.985,4.044c9.365,0,6.38-5.488,0-9.534c1.357-2.204,5.86-10.918,7.075-21.933
			C488.163-370.434,493.554-373.848,493.554-379.354z"/>
		<polygon id="text_anchor_15_" fill="#EBEBEB" stroke="#6D6E71" stroke-miterlimit="10" points="462,-410 446,-396 466,-388 		"/>
	</g>
	<text id="NE" transform="matrix(1 0 0 1 409.7378 -289.5176)" font-family="'MyriadPro-Regular'" font-size="50">Northeasterland</text>
	<g id="Agents3">
		<polygon id="Nation3_m3_1" points="451.61,-257.961 457.771,-253.294 450.61,-251.294 		"/>
		<polygon id="Nation3_m3_2" points="516.974,-246.623 523.134,-241.956 515.974,-239.956 		"/>
		<polygon id="Nation3_m3_3" points="387.364,-264.628 393.524,-259.961 386.364,-257.961 		"/>
		<polygon id="Nation3_m1_1" points="398.644,-686.221 404.804,-681.554 397.644,-679.554 		"/>
		<polygon id="Nation3_m1_2" points="490.893,-662.347 497.053,-657.68 489.893,-655.68 		"/>
		<polygon id="Nation3_m1_3" points="558.665,-611.716 564.825,-607.049 557.665,-605.049 		"/>
		<polygon id="Nation3_m4_1" points="713.221,-543.494 719.381,-538.827 712.221,-536.827 		"/>
		<polygon id="Nation3_m4_2" points="656.502,-560.207 662.662,-555.54 655.502,-553.54 		"/>
		<polygon id="Nation3_m4_3" points="754.974,-496.673 761.134,-492.006 753.974,-490.006 		"/>
		<polygon id="Nation3_m2_1" points="829.186,-298.962 835.346,-294.295 828.186,-292.295 		"/>
		<polygon id="Nation3_m2_2" points="759.43,-243.833 765.59,-239.167 758.43,-237.167 		"/>
		<polygon id="Nation3_m2_3" points="664.656,-211.053 670.816,-206.386 663.656,-204.386 		"/>
	</g>
	<path id="outline3_1_" fill="none" stroke="#000000" stroke-width="12" stroke-miterlimit="10" d="M344.5-813.5
		c9.804,0.603,18.467,3.598,25,6c11.665-0.333,23.334-0.667,35-1c12.737,6.353,27.993,33.298,33,48c0.666,0.667,1.333,1.333,2,2
		c11.665,8.999,23.334,18.001,35,27c9.666,10.999,19.334,22.001,29,33c10.531,8.465,22.905,10.244,37,16
		c28.538,11.654,59.06,22.22,85,38c13.358,8.126,21.045,38.88,31,44c30.002,15.432,100.521,23.781,117,49
		c15.597-1.689,27.57-1.82,39-6c0-2.333,0-4.667,0-7c4.905-0.812,9.556-1.724,13,1c-5.245,9.839-17.195,25.242-30,27
		c-17.44,80.579,65.781,83.501,89,134c6.724,14.623,8.596,38.785,6,59c-1.482,11.545,4.013,24.056,1,36
		c-6.938,27.512-22.546,57.172-25,91c-1.656,22.841,21.902,33.177,26,53c3.459,16.736-8.443,25.803-12,37c-1.333,0-2.667,0-4,0
		c-0.215-4.514-0.708-5.391-2-8c-6.999,0.334-14.001,0.667-21,1c-0.529,2.419-13.031,19.07-15,21c-15.943-1.717-27.803-10.709-39-16
		c-7.666,0.666-15.334,1.334-23,2c-2.333-2.666-4.667-5.334-7-8c-10.999,0-22.001,0-33,0c-0.985-8.119-6.129-10.134-15-10
		c-1,2-2,4-3,6c-1-0.333-2-0.666-3-1c-3.46-4.602-5.906-11.783-9-17c-18.242,0.178-24.251,4.649-35,8
		c-14.342,4.471-31.133-4.016-41-6c-10.666,0-21.334,0-32,0c-13.013-2.514-22.827-8.38-34-12c-0.983-51.785-55.19-23.598-98-34
		c-12.602-3.063-17.762-13.705-35-14c-22.852,27.043-68.058,12.342-87-8C344.5-419.48,344.5-616.52,344.5-813.5z"/>
	<circle id="control3" display="none" cx="579.61" cy="-403.698" r="51.229"/>
</g>
<g id="Nation4_1_">
	<path id="background4" fill="#E66A6D" stroke="#000000" stroke-width="12" stroke-miterlimit="10" d="M873.5-131.5
		c0.333,2.666,0.667,5.334,1,8c1.666,0,3.334,0,5,0c-10.666,17.998-21.334,36.002-32,54c-31.363,81.586,58.438,108.64,88,148
		c0,0.333,0,0.667,0,1c-182.315,0-364.685,0-547,0c-58.994,0-118.006,0-177,0c-27.916,0.001-62.553,3.133-87-2
		c-0.396-13.081-5.625-13.405-6-27c9.321-7.574,25.211-12.129,36-18c-0.298-5.588-1.02-5.838-3-9c-7.666-2.666-15.334-5.334-23-8
		c-2-5.666-4-11.334-6-17c4-1.666,8-3.334,12-5c0.683-8.871,1.131-11.721,0-20c10.173-6.664,11.277-19.363,12-35
		c-4.326-2.733-5.66-2.774-6-10c1.76-0.952,31.77-39.052,32-41c-6-4-12-8-18-12c0.666-4.333,1.334-8.667,2-13
		c19.268,0.446,24.793,0.554,38-5c0.333-4.333,0.667-8.667,1-13c7.332-0.333,14.667-0.666,22-1c-0.862-5.337-0.99-8.977,1-13
		c11.755,0.338,24.329,4.492,34,0c1-2.666,2-5.334,3-8c5.666,0.334,11.334,0.667,17,1c3.729-4.765,7.043-6.047,8-14
		c7.068,5.671,12.414,13.64,24,12c0.333-1,0.667-2,1-3c3.45-9.268-1.812-17.111,2-24c9.029-0.051,30.006-10.055,38-14
		c15.694,7.371,28.375,31.937,59,24c12.571-3.258,21.117-14.258,34-16c8.999,4.666,18.001,9.334,27,14
		c32.879,8.051,79.967-11.773,93,15c1,6,2,12,3,18c7.999,3.666,16.001,7.334,24,11c6.77,2.019,84.11,9.338,88,8
		c9.931-3.416,14.614-8.007,32-8c1.715,9.796,4.234,14.185,12,18c1.666-0.666,3.334-1.334,5-2c1.308-4.472-0.662-2.009,3-4
		c6.185,2.689,5.805,5.028,10,9c10.666,0.334,21.334,0.667,32,1c1.587,0.906,5.264,7.191,7,8c7.666-0.666,15.334-1.334,23-2
		c13.588,4.411,26.258,15.005,45,17c1.986-13.287,10.21-12.193,14-23C862.166-131.5,867.834-131.5,873.5-131.5z"/>
	<g id="merson4_2_1_">
		<path id="path4_2" fill="#EBEBEB" stroke="#000000" stroke-width="2" stroke-miterlimit="10" d="M553.554-41.458
			c0-14.552-7.577-27.071-11.737-41.96c-0.299-1.073-1.709-2.318-3.693-3.596c3.927-4.517,6.311-10.412,6.311-16.867
			c0-14.207-11.517-25.724-25.724-25.724c-14.206,0-25.723,11.517-25.723,25.724c0,6.528,2.436,12.483,6.442,17.019
			c-1.925,1.241-3.293,2.449-3.606,3.499c-0.99,3.309-11.212,38.64-11.212,41.905c-0.002,5.547,4.168,9.033,8.071,9.977
			c1.225,10.862,5.72,19.157,6.692,21.877c-6.277,4.732-6.277,9.629,0,9.604c17.201-0.069,18.831-4.114,18.831-4.114h0.497
			c0,0,1.475,4.044,18.985,4.044c9.365,0,6.38-5.488,0-9.534c1.357-2.204,5.86-10.918,7.075-21.933
			C548.163-32.538,553.554-35.953,553.554-41.458z"/>
		<polygon id="text_anchor_20_" fill="#EBEBEB" stroke="#6D6E71" stroke-miterlimit="10" points="523,-76 507,-62 527,-54 		"/>
	</g>
	<g id="merson4_1_1_">
		<path id="path4_1" fill="#EBEBEB" stroke="#000000" stroke-width="2" stroke-miterlimit="10" d="M473.554-41.458
			c0-14.552-7.577-27.071-11.737-41.96c-0.299-1.073-1.709-2.318-3.693-3.596c3.927-4.517,6.311-10.412,6.311-16.867
			c0-14.207-11.517-25.724-25.724-25.724c-14.206,0-25.723,11.517-25.723,25.724c0,6.528,2.436,12.483,6.442,17.019
			c-1.925,1.241-3.293,2.449-3.606,3.499c-4.506,15.062-11.21,27.392-11.212,41.905c-0.002,5.547,4.168,9.033,8.071,9.977
			c1.225,10.862,5.72,19.157,6.692,21.877c-6.277,4.732-6.277,9.629,0,9.604c17.201-0.069,18.831-4.114,18.831-4.114h0.497
			c0,0,1.475,4.044,18.985,4.044c9.365,0,6.38-5.488,0-9.534c1.357-2.204,5.86-10.918,7.075-21.933
			C468.163-32.538,473.554-35.953,473.554-41.458z"/>
		<polygon id="text_anchor_19_" fill="#EBEBEB" stroke="#6D6E71" stroke-miterlimit="10" points="443,-76 427,-62 447,-54 		"/>
	</g>
	<text id="CT" transform="matrix(1 0 0 1 312.7515 45.9707)" font-family="'MyriadPro-Regular'" font-size="50">Central Tinyville</text>
	<g id="Agents4">
		<polygon id="Nation4_m3_1" points="210.42,33.221 216.58,37.888 209.42,39.888 		"/>
		<polygon id="Nation4_m3_2" points="277.998,34.907 284.158,39.574 276.998,41.574 		"/>
		<polygon id="Nation4_m3_3" points="181.53,-21.69 187.69,-17.023 180.53,-15.023 		"/>
		<polygon id="Nation4_m1_1" points="360.638,-175.186 366.798,-170.519 359.638,-168.519 		"/>
		<polygon id="Nation4_m1_2" points="273.451,-144.917 279.611,-140.25 272.451,-138.25 		"/>
		<polygon id="Nation4_m1_3" points="190.871,-102.583 197.031,-97.917 189.871,-95.917 		"/>
		<polygon id="Nation4_m4_1" points="664.307,-118.578 670.467,-113.911 663.307,-111.911 		"/>
		<polygon id="Nation4_m4_2" points="607.076,-130.624 613.236,-125.957 606.076,-123.957 		"/>
		<polygon id="Nation4_m4_3" points="713.906,-112.5 720.066,-107.833 712.906,-105.833 		"/>
		<polygon id="Nation4_m2_1" points="817.362,-64.802 823.522,-60.135 816.362,-58.135 		"/>
		<polygon id="Nation4_m2_2" points="757.147,-16.441 763.307,-11.774 756.147,-9.774 		"/>
		<polygon id="Nation4_m2_3" points="661.076,6.745 667.236,11.412 660.076,13.412 		"/>
	</g>
	<path id="outline4_1_" fill="none" stroke="#000000" stroke-width="12" stroke-miterlimit="10" d="M873.5-131.5
		c0.333,2.666,0.667,5.334,1,8c1.666,0,3.334,0,5,0c-10.666,17.998-21.334,36.002-32,54c-31.363,81.586,58.438,108.64,88,148
		c0,0.333,0,0.667,0,1c-182.315,0-364.685,0-547,0c-58.994,0-118.006,0-177,0c-27.916,0.001-62.553,3.133-87-2
		c-0.396-13.081-5.625-13.405-6-27c9.321-7.574,25.211-12.129,36-18c-0.298-5.588-1.02-5.838-3-9c-7.666-2.666-15.334-5.334-23-8
		c-2-5.666-4-11.334-6-17c4-1.666,8-3.334,12-5c0.683-8.871,1.131-11.721,0-20c10.173-6.664,11.277-19.363,12-35
		c-4.326-2.733-5.66-2.774-6-10c1.76-0.952,31.77-39.052,32-41c-6-4-12-8-18-12c0.666-4.333,1.334-8.667,2-13
		c19.268,0.446,24.793,0.554,38-5c0.333-4.333,0.667-8.667,1-13c7.332-0.333,14.667-0.666,22-1c-0.862-5.337-0.99-8.977,1-13
		c11.755,0.338,24.329,4.492,34,0c1-2.666,2-5.334,3-8c5.666,0.334,11.334,0.667,17,1c3.729-4.765,7.043-6.047,8-14
		c7.068,5.671,12.414,13.64,24,12c0.333-1,0.667-2,1-3c3.45-9.268-1.812-17.111,2-24c9.029-0.051,30.006-10.055,38-14
		c15.694,7.371,28.375,31.937,59,24c12.571-3.258,21.117-14.258,34-16c8.999,4.666,18.001,9.334,27,14
		c32.879,8.051,79.967-11.773,93,15c1,6,2,12,3,18c7.999,3.666,16.001,7.334,24,11c6.77,2.019,84.11,9.338,88,8
		c9.931-3.416,14.614-8.007,32-8c1.715,9.796,4.234,14.185,12,18c1.666-0.666,3.334-1.334,5-2c1.308-4.472-0.662-2.009,3-4
		c6.185,2.689,5.805,5.028,10,9c10.666,0.334,21.334,0.667,32,1c1.587,0.906,5.264,7.191,7,8c7.666-0.666,15.334-1.334,23-2
		c13.588,4.411,26.258,15.005,45,17c1.986-13.287,10.21-12.193,14-23C862.166-131.5,867.834-131.5,873.5-131.5z"/>
	<circle id="control4" display="none" cx="479.5" cy="-64.698" r="51.229"/>
</g>
<g id="Nation5_1_">
	<path id="background5" fill="#B1ED0D" stroke="#000000" stroke-width="12" stroke-miterlimit="10" d="M418.5,82.5
		c128.987,0,258.013,0,387,0c32.663,0,65.336,0,98,0c9.559,0,30.365-2.868,36,2c13.487,11.66,20.428,36.891,24,58
		c0.333,10.332,0.667,20.668,1,31c4.666,10.666,9.334,21.334,14,32c5.704,20.37,6.407,62.683,0,81
		c-10.359,29.614-34.734,50.73-42,82c-4.014,17.272,1.572,32.367-3,48c-7.339,25.092-25.759,63.199-37,86
		c-7.786,15.792-1.123,36.506-5,57c-5.604,29.623-19.739,60.545-43,72c-5.666,1-11.334,2-17,3c-20.098,6.04-40.258,12.501-62,20
		c-41.941,14.465-114.554,56.936-170,33c-19.658-8.486-25.114-33.498-39-48c-10.233-10.688-25.869-13.805-35-26
		c-5.333-9.332-10.667-18.668-16-28c-8.32-10.106-23.135-1.738-36-6c-9.666-4.666-19.334-9.334-29-14
		c-6.396-5.125-3.732-11.082-13-15c-2-17.332-4-34.668-6-52c-2.333,0-4.667,0-7,0C418.5,359.848,418.5,221.152,418.5,82.5z"/>
	<g id="merson5_3_1_">
		<path id="path5_3" fill="#EBEBEB" stroke="#000000" stroke-width="2" stroke-miterlimit="10" d="M788.554,340.646
			c0-14.552-7.577-27.071-11.737-41.96c-0.299-1.073-1.709-2.318-3.693-3.596c3.927-4.517,6.311-10.412,6.311-16.867
			c0-14.207-11.517-25.724-25.724-25.724c-14.206,0-25.723,11.517-25.723,25.724c0,6.528,2.436,12.483,6.442,17.019
			c-1.925,1.241-3.293,2.449-3.606,3.499c-0.99,3.309-11.212,38.64-11.212,41.905c-0.002,5.547,4.168,9.033,8.071,9.977
			c1.225,10.862,5.72,19.157,6.692,21.877c-6.277,4.732-6.277,9.629,0,9.604c17.201-0.069,18.831-4.114,18.831-4.114h0.497
			c0,0,1.475,4.044,18.985,4.044c9.365,0,6.38-5.488,0-9.534c1.357-2.204,5.86-10.918,7.075-21.933
			C783.163,349.566,788.554,346.152,788.554,340.646z"/>
		<polygon id="text_anchor_6_" fill="#EBEBEB" stroke="#6D6E71" stroke-miterlimit="10" points="759.474,309.302 743.474,323.302 
			763.474,331.302 		"/>
	</g>
	<g id="merson5_2_1_">
		<path id="path5_2" fill="#EBEBEB" stroke="#000000" stroke-width="2" stroke-miterlimit="10" d="M708.554,340.646
			c0-14.552-7.577-27.071-11.737-41.96c-0.299-1.073-1.709-2.318-3.693-3.596c3.927-4.517,6.311-10.412,6.311-16.867
			c0-14.207-11.517-25.724-25.724-25.724c-14.206,0-25.723,11.517-25.723,25.724c0,6.528,2.436,12.483,6.442,17.019
			c-1.925,1.241-3.293,2.449-3.606,3.499c-0.99,3.309-11.212,38.64-11.212,41.905c-0.002,5.547,4.168,9.033,8.071,9.977
			c1.225,10.862,5.72,19.157,6.692,21.877c-6.277,4.732-6.277,9.629,0,9.604c17.201-0.069,18.831-4.114,18.831-4.114h0.497
			c0,0,1.475,4.044,18.985,4.044c9.365,0,6.38-5.488,0-9.534c1.357-2.204,5.86-10.918,7.075-21.933
			C703.163,349.566,708.554,346.152,708.554,340.646z"/>
		<polygon id="text_anchor_7_" fill="#EBEBEB" stroke="#6D6E71" stroke-miterlimit="10" points="678.333,310.657 662.333,324.657 
			682.333,332.657 		"/>
	</g>
	<g id="merson5_1_1_">
		<path id="path5_1" fill="#EBEBEB" stroke="#000000" stroke-width="2" stroke-miterlimit="10" d="M628.554,340.646
			c0-14.552-7.577-27.071-11.737-41.96c-0.299-1.073-1.709-2.318-3.693-3.596c3.927-4.517,6.311-10.412,6.311-16.867
			c0-14.207-11.517-25.724-25.724-25.724c-14.206,0-25.723,11.517-25.723,25.724c0,6.528,2.436,12.483,6.442,17.019
			c-1.925,1.241-3.293,2.449-3.606,3.499c-0.99,3.309-11.212,38.64-11.212,41.905c-0.002,5.547,4.168,9.033,8.071,9.977
			c1.225,10.862,5.72,19.157,6.692,21.877c-6.277,4.732-6.277,9.629,0,9.604c17.201-0.069,18.831-4.114,18.831-4.114h0.497
			c0,0,1.475,4.044,18.985,4.044c9.365,0,6.38-5.488,0-9.534c1.357-2.204,5.86-10.918,7.075-21.933
			C623.163,349.566,628.554,346.152,628.554,340.646z"/>
		<polygon id="text_anchor_4_" fill="#EBEBEB" stroke="#6D6E71" stroke-miterlimit="10" points="597.61,309.657 581.61,323.657 
			601.61,331.657 		"/>
	</g>
	<text id="EB" transform="matrix(1 0 0 1 567.5337 433.959)" font-family="'MyriadPro-Regular'" font-size="50">Eastburgh</text>
	<g id="Agents5">
		<polygon id="Nation5_m3_1" points="526.364,532.377 532.524,537.044 525.364,539.044 		"/>
		<polygon id="Nation5_m3_2" points="581.748,571.038 587.908,575.705 580.748,577.705 		"/>
		<polygon id="Nation5_m3_3" points="471.364,494.044 477.524,498.711 470.364,500.711 		"/>
		<polygon id="Nation5_m1_1" points="633.45,122.167 639.61,126.833 632.45,128.833 		"/>
		<polygon id="Nation5_m1_2" points="531.082,147.167 537.242,151.833 530.082,153.833 		"/>
		<polygon id="Nation5_m1_3" points="462.784,210.199 468.944,214.866 461.784,216.866 		"/>
		<polygon id="Nation5_m4_1" points="897.808,138.172 903.968,142.839 896.808,144.839 		"/>
		<polygon id="Nation5_m4_2" points="832.766,118.793 838.926,123.46 831.766,125.46 		"/>
		<polygon id="Nation5_m4_3" points="927.909,195.959 934.069,200.626 926.909,202.626 		"/>
		<polygon id="Nation5_m2_1" points="864.272,441.509 870.433,446.176 863.272,448.176 		"/>
		<polygon id="Nation5_m2_2" points="817.086,532.377 823.246,537.044 816.086,539.044 		"/>
		<polygon id="Nation5_m2_3" points="732.05,587.377 738.21,592.044 731.05,594.044 		"/>
	</g>
	<path id="outline5_1_" fill="none" stroke="#000000" stroke-width="12" stroke-miterlimit="10" d="M418.5,82.5
		c128.987,0,258.013,0,387,0c32.663,0,65.336,0,98,0c9.559,0,30.365-2.868,36,2c13.487,11.66,20.428,36.891,24,58
		c0.333,10.332,0.667,20.668,1,31c4.666,10.666,9.334,21.334,14,32c5.704,20.37,6.407,62.683,0,81
		c-10.359,29.614-34.734,50.73-42,82c-4.014,17.272,1.572,32.367-3,48c-7.339,25.092-25.759,63.199-37,86
		c-7.786,15.792-1.123,36.506-5,57c-5.604,29.623-19.739,60.545-43,72c-5.666,1-11.334,2-17,3c-20.098,6.04-40.258,12.501-62,20
		c-41.941,14.465-114.554,56.936-170,33c-19.658-8.486-25.114-33.498-39-48c-10.233-10.688-25.869-13.805-35-26
		c-5.333-9.332-10.667-18.668-16-28c-8.32-10.106-23.135-1.738-36-6c-9.666-4.666-19.334-9.334-29-14
		c-6.396-5.125-3.732-11.082-13-15c-2-17.332-4-34.668-6-52c-2.333,0-4.667,0-7,0C418.5,359.848,418.5,221.152,418.5,82.5z"/>
	<circle id="control5" display="none" cx="673.5" cy="315.302" r="51.229"/>
</g>
<g id="Nation6_1_">
	<path id="background6" fill="#2366AD" stroke="#000000" stroke-width="12" stroke-miterlimit="10" d="M415.5,82.5
		c0,138.986,0,278.014,0,417c-13.976-0.613-20.807-6.034-32-8c-11.578-2.033-57.538,20.022-61,26c-1,5-2,10-3,15
		c-5.666,9.332-11.334,18.668-17,28c-5.319,16.216-3.09,28.696-10,42c-6.666,5.666-13.334,11.334-20,17
		c-9.988,12.002-15.224,23.789-28,33c-8.713,6.281-23.309,10.237-36,12c-6.999-0.333-14.001-0.667-21-1c-5,5-10,10.001-15,15
		c-8.999,3-18.001,6-27,9c-18.136,3.248-33.053-6.259-43-12c-6-2-12-4-18-6c-27.654-15.563-44.06-52.928-55-82
		c-7-0.667-14.001-1.333-21-2c0.385-7.33,1.368-17.032-3-20c-13.707-5.659-16.4-4.567-23-17c-10.841-1.101-20.414-2.981-34-3
		c-2.172-18.732-27.613-9.695-19-39c-4.98-5.232-8.015-7.304-19-7c-0.334-4-0.667-8-1-12c-5-0.333-10-0.667-15-1
		c2.234-2.743,2.342-1.908,3-7c-3.329-1.905-5.637-5.164-7-9c4.439-1.67,5.598-3.518,8-7c-0.198-9.934-3.219-9.337-8-14
		c0.274-8.025,2.712-10.324,4-15c2.702-9.808-3.16-20.875-4-30c10.821,0.654,19.301,0.688,23-6c4.187-10.645-5.185-12.078-2-19
		c6.608-2.382,11.711-6.199,15-12c-0.666-1-1.334-2-2-3c-4-1.666-8-3.334-12-5c0.145-12.338-10.189-24.499-18-29
		c3.218-6.851,2.211-20.969,2-31c11.949-9.309,18.704-12.952,18-36c22.068-8.002,9.969-13.546,19-31c0.282-0.545,25-37,25-37
		c6.332-3,12.667-6,19-9c6.88-6.506,4.361-10.846,15-15c0-6.333,0-12.667,0-19c15.665,0,31.335,0,47,0
		c2.333-7.666,4.667-15.334,7-23c4.13,2.503,9.828,3.903,16,2c0.666-2.333,1.334-4.667,2-7c41.611,0.27,42.078-23.304,62-42
		C222.823,82.5,319.176,82.5,415.5,82.5z"/>
	<g id="merson6_4_1_">
		<path id="path6_4" fill="#EBEBEB" stroke="#000000" stroke-width="2" stroke-miterlimit="10" d="M323.554,343.646
			c0-14.552-7.577-27.071-11.737-41.96c-0.299-1.073-1.709-2.318-3.693-3.596c3.927-4.517,6.311-10.412,6.311-16.867
			c0-14.207-11.517-25.724-25.724-25.724c-14.206,0-25.723,11.517-25.723,25.724c0,6.528,2.436,12.483,6.442,17.019
			c-1.925,1.241-3.293,2.449-3.606,3.499c-0.99,3.309-11.212,38.64-11.212,41.905c-0.002,5.547,4.168,9.033,8.071,9.977
			c1.225,10.862,5.72,19.157,6.692,21.877c-6.277,4.732-6.277,9.629,0,9.604c17.201-0.069,18.831-4.114,18.831-4.114h0.497
			c0,0,1.475,4.044,18.985,4.044c9.365,0,6.38-5.488,0-9.534c1.357-2.204,5.86-10.918,7.075-21.933
			C318.163,352.566,323.554,349.152,323.554,343.646z"/>
		<polygon id="text_anchor_24_" fill="#EBEBEB" stroke="#6D6E71" stroke-miterlimit="10" points="292.61,314.657 276.61,328.657 
			296.61,336.657 		"/>
	</g>
	<g id="merson6_3_1_">
		<path id="path6_3" fill="#EBEBEB" stroke="#000000" stroke-width="2" stroke-miterlimit="10" d="M243.554,343.646
			c0-14.552-7.577-27.071-11.737-41.96c-0.299-1.073-1.709-2.318-3.693-3.596c3.927-4.517,6.311-10.412,6.311-16.867
			c0-14.207-11.517-25.724-25.724-25.724c-14.206,0-25.723,11.517-25.723,25.724c0,6.528,2.436,12.483,6.442,17.019
			c-1.925,1.241-3.293,2.449-3.606,3.499c-0.99,3.309-11.212,38.64-11.212,41.905c-0.002,5.547,4.168,9.033,8.071,9.977
			c1.225,10.862,5.72,19.157,6.692,21.877c-6.277,4.732-6.277,9.629,0,9.604c17.201-0.069,18.831-4.114,18.831-4.114h0.497
			c0,0,1.475,4.044,18.985,4.044c9.365,0,6.38-5.488,0-9.534c1.357-2.204,5.86-10.918,7.075-21.933
			C238.163,352.566,243.554,349.152,243.554,343.646z"/>
		<polygon id="text_anchor_23_" fill="#EBEBEB" stroke="#6D6E71" stroke-miterlimit="10" points="212.61,314.657 196.61,328.657 
			216.61,336.657 		"/>
	</g>
	<g id="merson6_2">
		<path id="path6_2" fill="#EBEBEB" stroke="#000000" stroke-width="2" stroke-miterlimit="10" d="M163.554,343.646
			c0-14.552-7.577-27.071-11.737-41.96c-0.299-1.073-1.709-2.318-3.693-3.596c3.927-4.517,6.311-10.412,6.311-16.867
			c0-14.207-11.517-25.724-25.724-25.724c-14.206,0-25.723,11.517-25.723,25.724c0,6.528,2.436,12.483,6.442,17.019
			c-1.925,1.241-3.293,2.449-3.606,3.499c-0.99,3.309-11.212,38.64-11.212,41.905c-0.002,5.547,4.168,9.033,8.071,9.977
			c1.225,10.862,5.72,19.157,6.692,21.877c-6.277,4.732-6.277,9.629,0,9.604c17.201-0.069,18.831-4.114,18.831-4.114h0.497
			c0,0,1.475,4.044,18.985,4.044c9.365,0,6.38-5.488,0-9.534c1.357-2.204,5.86-10.918,7.075-21.933
			C158.163,352.566,163.554,349.152,163.554,343.646z"/>
		<polygon id="text_anchor_22_" fill="#EBEBEB" stroke="#6D6E71" stroke-miterlimit="10" points="132.61,314.657 116.61,328.657 
			136.61,336.657 		"/>
	</g>
	<g id="merson6_1_1_">
		<path id="path6_1" fill="#EBEBEB" stroke="#000000" stroke-width="2" stroke-miterlimit="10" d="M83.554,343.646
			c0-14.552-7.577-27.071-11.737-41.96c-0.299-1.073-1.709-2.318-3.693-3.596c3.927-4.517,6.311-10.412,6.311-16.867
			c0-14.207-11.517-25.724-25.724-25.724c-14.206,0-25.723,11.517-25.723,25.724c0,6.528,2.436,12.483,6.442,17.019
			c-1.925,1.241-3.293,2.449-3.606,3.499c-0.99,3.309-11.212,38.64-11.212,41.905c-0.002,5.547,4.168,9.033,8.071,9.977
			c1.225,10.862,5.72,19.157,6.692,21.877c-6.277,4.732-6.277,9.629,0,9.604c17.201-0.069,18.831-4.114,18.831-4.114h0.497
			c0,0,1.475,4.044,18.985,4.044c9.365,0,6.38-5.488,0-9.534c1.357-2.204,5.86-10.918,7.075-21.933
			C78.163,352.566,83.554,349.152,83.554,343.646z"/>
		<polygon id="text_anchor_21_" fill="#EBEBEB" stroke="#6D6E71" stroke-miterlimit="10" points="52.61,314.657 36.61,328.657 
			56.61,336.657 		"/>
	</g>
	<text id="LM" transform="matrix(1 0 0 1 -8.8721 433.998)" font-family="'MyriadPro-Regular'" font-size="50">Lower Middleton</text>
	<g id="Agents6">
		<polygon id="Nation6_m3_1" points="40.198,530.379 46.358,535.046 39.198,537.046 		"/>
		<polygon id="Nation6_m3_2" points="72.198,585.383 78.358,590.05 71.198,592.05 		"/>
		<polygon id="Nation6_m3_3" points="-20.802,501.377 -14.642,506.044 -21.802,508.044 		"/>
		<polygon id="Nation6_m1_1" points="140.198,120.172 146.358,124.839 139.198,126.839 		"/>
		<polygon id="Nation6_m1_2" points="66.03,157.327 72.19,161.994 65.03,163.994 		"/>
		<polygon id="Nation6_m1_3" points="-20.636,208.167 -14.476,212.833 -21.636,214.833 		"/>
		<polygon id="Nation6_m4_1" points="333.975,147.167 340.135,151.833 332.975,153.833 		"/>
		<polygon id="Nation6_m4_2" points="277.697,115.161 283.857,119.828 276.697,121.828 		"/>
		<polygon id="Nation6_m4_3" points="372.642,194.793 378.802,199.46 371.642,201.46 		"/>
		<polygon id="Nation6_m2_1" points="287.395,463.907 293.555,468.574 286.395,470.574 		"/>
		<polygon id="Nation6_m2_2" points="251.976,534.824 258.136,539.491 250.976,541.491 		"/>
		<polygon id="Nation6_m2_3" points="202.03,599.044 208.19,603.711 201.03,605.711 		"/>
	</g>
	<path id="outline6_1_" fill="none" stroke="#000000" stroke-width="12" stroke-miterlimit="10" d="M415.5,82.5
		c0,138.986,0,278.014,0,417c-13.976-0.613-20.807-6.034-32-8c-11.578-2.033-57.538,20.022-61,26c-1,5-2,10-3,15
		c-5.666,9.332-11.334,18.668-17,28c-5.319,16.216-3.09,28.696-10,42c-6.666,5.666-13.334,11.334-20,17
		c-9.988,12.002-15.224,23.789-28,33c-8.713,6.281-23.309,10.237-36,12c-6.999-0.333-14.001-0.667-21-1c-5,5-10,10.001-15,15
		c-8.999,3-18.001,6-27,9c-18.136,3.248-33.053-6.259-43-12c-6-2-12-4-18-6c-27.654-15.563-44.06-52.928-55-82
		c-7-0.667-14.001-1.333-21-2c0.385-7.33,1.368-17.032-3-20c-13.707-5.659-16.4-4.567-23-17c-10.841-1.101-20.414-2.981-34-3
		c-2.172-18.732-27.613-9.695-19-39c-4.98-5.232-8.015-7.304-19-7c-0.334-4-0.667-8-1-12c-5-0.333-10-0.667-15-1
		c2.234-2.743,2.342-1.908,3-7c-3.329-1.905-5.637-5.164-7-9c4.439-1.67,5.598-3.518,8-7c-0.198-9.934-3.219-9.337-8-14
		c0.274-8.025,2.712-10.324,4-15c2.702-9.808-3.16-20.875-4-30c10.821,0.654,19.301,0.688,23-6c4.187-10.645-5.185-12.078-2-19
		c6.608-2.382,11.711-6.199,15-12c-0.666-1-1.334-2-2-3c-4-1.666-8-3.334-12-5c0.145-12.338-10.189-24.499-18-29
		c3.218-6.851,2.211-20.969,2-31c11.949-9.309,18.704-12.952,18-36c22.068-8.002,9.969-13.546,19-31c0.282-0.545,25-37,25-37
		c6.332-3,12.667-6,19-9c6.88-6.506,4.361-10.846,15-15c0-6.333,0-12.667,0-19c15.665,0,31.335,0,47,0
		c2.333-7.666,4.667-15.334,7-23c4.13,2.503,9.828,3.903,16,2c0.666-2.333,1.334-4.667,2-7c41.611,0.27,42.078-23.304,62-42
		C222.823,82.5,319.176,82.5,415.5,82.5z"/>
	<circle id="control6" display="none" cx="169.5" cy="320.302" r="51.229"/>
</g>
<g id="Nation7_1_">
	<path id="background7" fill="#FF7321" stroke="#000000" stroke-width="12" stroke-miterlimit="10" d="M-108.5,422.5
		c-1.333,9.666-2.667,19.334-4,29c2.666,2.333,5.334,4.667,8,7c-1.104,8.441-5.847,8.945-10,14c0.666,1,1.334,2,2,3
		c2.333,2,4.667,4,7,6c-3.259,3.515-5.113,3.354-4,9c5.666,0,11.334,0,17,0c0.333,4,0.666,8,1,12c7.83-0.204,12.065,0.908,17,3
		c0.053,7.464-1.274,8.992-4,13c7.392,10.776,11.301,16.013,24,22c0.333,2.666,0.666,5.334,1,8c13.757-0.352,25.548,0.374,35,4
		c3.689,12.755,11.102,12.527,24,16c0.333,6.666,0.666,13.334,1,20c8.334-0.46,17.216-0.214,21,4c0.666,4.333,1.334,8.667,2,13
		c4,4,8,8,12,12c0.666,9.332,1.334,18.668,2,28c5.045,29.364-5.158,50.218-25,58c-5.333,0.667-10.667,1.333-16,2
		c-21.512,9.138-35.349,25.283-63,31c-24.193,5.002-39.135-7.271-57,6c-5.596,14.557-15,17.456-25,27
		c0.906,55.483-63.017,58.179-94,34c-13.404-10.461-13.584-28.139-36-31c-38.867,16.438-67.078,5.855-65-43c-7.999,0-16.001,0-24,0
		c-10.552,18.883-25.106,22.717-47,31c-13.332,5.999-26.668,12.001-40,18c-25.959,4.146-66.581-2.262-83-7c-8.666,0-17.334,0-26,0
		c-27.602-6.796-60.282-31.83-70-56c-22.072-54.896,57.566-60.127,70-94c-0.333-4.333-0.667-8.667-1-13
		c-0.244-30.356-12.596-38.393-13-70c4.974-1.069,7.369-2.693,10-6c-0.199-8.767-4.227-12.884-5-17c11.539-4.532,14.234-9.223,33-9
		c0.667-0.333,1.333-0.667,2-1c-0.215-16.146,5.752-16.138,8-27c-1.333-0.667-2.667-1.333-4-2c13.62-11.455,42.121-2.004,60-10
		c3.142-13.344,16.808-15.618,30-19c-1.073-12.4-11.839-15.045-10-22c27.259-5.231,56.112-22.287,81-29
		c7.208-1.944,10.593,3.296,16,4c33.756,4.395,67.37,2.303,96-3c5.74-10.761,8.781-34.722,32-24c10.535,5.899,20.475,27.913,27,39
		c25.026,6.972,64.425,0.344,83-5c0.882,7.95,0.117,6.563-2,14c0.333,0.333,0.666,0.667,1,1
		C-111.834,422.5-110.166,422.5-108.5,422.5z"/>
	<g id="merson7_3_1_">
		<path id="path7_3" fill="#EBEBEB" stroke="#000000" stroke-width="2" stroke-miterlimit="10" d="M-176.446,595.646
			c0-14.552-7.577-27.071-11.737-41.96c-0.299-1.073-1.709-2.318-3.693-3.596c3.927-4.517,6.311-10.412,6.311-16.867
			c0-14.207-11.517-25.724-25.724-25.724c-14.206,0-25.723,11.517-25.723,25.724c0,6.528,2.436,12.483,6.442,17.019
			c-1.925,1.241-3.293,2.449-3.606,3.499c-0.99,3.309-11.212,38.64-11.212,41.905c-0.002,5.547,4.168,9.033,8.071,9.977
			c1.225,10.862,5.72,19.157,6.692,21.877c-6.277,4.732-6.277,9.629,0,9.604c17.201-0.069,18.831-4.114,18.831-4.114h0.497
			c0,0,1.475,4.044,18.985,4.044c9.365,0,6.38-5.488,0-9.534c1.357-2.204,5.86-10.918,7.075-21.933
			C-181.837,604.566-176.446,601.152-176.446,595.646z"/>
		<polygon id="text_anchor_28_" fill="#EBEBEB" stroke="#6D6E71" stroke-miterlimit="10" points="-207.39,567.657 -223.39,581.657 
			-203.39,589.657 		"/>
	</g>
	<g id="merson7_2_1_">
		<path id="path7_2" fill="#EBEBEB" stroke="#000000" stroke-width="2" stroke-miterlimit="10" d="M-256.446,595.646
			c0-14.552-7.577-27.071-11.737-41.96c-0.299-1.073-1.709-2.318-3.693-3.596c3.927-4.517,6.311-10.412,6.311-16.867
			c0-14.207-11.517-25.724-25.724-25.724c-14.206,0-25.723,11.517-25.723,25.724c0,6.528,2.436,12.483,6.442,17.019
			c-1.925,1.241-3.293,2.449-3.606,3.499c-0.99,3.309-11.212,38.64-11.212,41.905c-0.002,5.547,4.168,9.033,8.071,9.977
			c1.225,10.862,5.72,19.157,6.692,21.877c-6.277,4.732-6.277,9.629,0,9.604c17.201-0.069,18.831-4.114,18.831-4.114h0.497
			c0,0,1.475,4.044,18.985,4.044c9.365,0,6.38-5.488,0-9.534c1.357-2.204,5.86-10.918,7.075-21.933
			C-261.837,604.566-256.446,601.152-256.446,595.646z"/>
		<polygon id="text_anchor_26_" fill="#EBEBEB" stroke="#6D6E71" stroke-miterlimit="10" points="-287.39,567.657 -303.39,581.657 
			-283.39,589.657 		"/>
	</g>
	<g id="merson7_1_1_">
		<path id="path7_1" fill="#EBEBEB" stroke="#000000" stroke-width="2" stroke-miterlimit="10" d="M-336.446,595.646
			c0-14.552-7.577-27.071-11.737-41.96c-0.299-1.073-1.709-2.318-3.693-3.596c3.927-4.517,6.311-10.412,6.311-16.867
			c0-14.207-11.517-25.724-25.724-25.724c-14.206,0-25.723,11.517-25.723,25.724c0,6.528,2.436,12.483,6.442,17.019
			c-1.925,1.241-3.293,2.449-3.606,3.499c-0.99,3.309-11.212,38.64-11.212,41.905c-0.002,5.547,4.168,9.033,8.071,9.977
			c1.225,10.862,5.72,19.157,6.692,21.877c-6.277,4.732-6.277,9.629,0,9.604c17.201-0.069,18.831-4.114,18.831-4.114h0.497
			c0,0,1.475,4.044,18.985,4.044c9.365,0,6.38-5.488,0-9.534c1.357-2.204,5.86-10.918,7.075-21.933
			C-341.837,604.566-336.446,601.152-336.446,595.646z"/>
		<polygon id="text_anchor_25_" fill="#EBEBEB" stroke="#6D6E71" stroke-miterlimit="10" points="-368.39,567.657 -384.39,581.657 
			-364.39,589.657 		"/>
	</g>
	<text id="SS" transform="matrix(1 0 0 1 -418.8164 683.4961)" font-family="'MyriadPro-Regular'" font-size="50">South Shore</text>
	<g id="Agents7">
		<polygon id="Nation7_m3_1" points="-517.002,647.823 -510.842,652.49 -518.002,654.49 		"/>
		<polygon id="Nation7_m3_2" points="-557.002,707.823 -550.842,712.49 -558.002,714.49 		"/>
		<polygon id="Nation7_m3_3" points="-495.002,734.823 -488.842,739.49 -496.002,741.49 		"/>
		<polygon id="Nation7_m1_1" points="-380.55,426.833 -374.39,431.5 -381.55,433.5 		"/>
		<polygon id="Nation7_m1_2" points="-451.042,479.24 -444.882,483.907 -452.042,485.907 		"/>
		<polygon id="Nation7_m1_3" points="-528.583,540.195 -522.422,544.862 -529.583,546.862 		"/>
		<polygon id="Nation7_m4_1" points="-222.002,446.823 -215.842,451.49 -223.002,453.49 		"/>
		<polygon id="Nation7_m4_2" points="-160.002,458.823 -153.842,463.49 -161.002,465.49 		"/>
		<polygon id="Nation7_m4_3" points="-130.002,519.823 -123.842,524.49 -131.002,526.49 		"/>
		<polygon id="Nation7_m2_1" points="-27.962,641.156 -21.802,645.823 -28.962,647.823 		"/>
		<polygon id="Nation7_m2_2" points="-122.5,680.657 -116.34,685.324 -123.5,687.324 		"/>
		<polygon id="Nation7_m2_3" points="-196.113,752.203 -189.953,756.87 -197.113,758.87 		"/>
	</g>
	<path id="outline7_1_" fill="none" stroke="#000000" stroke-width="2" stroke-miterlimit="10" d="M-108.5,422.5
		c-1.333,9.666-2.667,19.334-4,29c2.666,2.333,5.334,4.667,8,7c-1.104,8.441-5.847,8.945-10,14c0.666,1,1.334,2,2,3
		c2.333,2,4.667,4,7,6c-3.259,3.515-5.113,3.354-4,9c5.666,0,11.334,0,17,0c0.333,4,0.666,8,1,12c7.83-0.204,12.065,0.908,17,3
		c0.053,7.464-1.274,8.992-4,13c7.392,10.776,11.301,16.013,24,22c0.333,2.666,0.666,5.334,1,8c13.757-0.352,25.548,0.374,35,4
		c3.689,12.755,11.102,12.527,24,16c0.333,6.666,0.666,13.334,1,20c8.334-0.46,17.216-0.214,21,4c0.666,4.333,1.334,8.667,2,13
		c4,4,8,8,12,12c0.666,9.332,1.334,18.668,2,28c5.045,29.364-5.158,50.218-25,58c-5.333,0.667-10.667,1.333-16,2
		c-21.512,9.138-35.349,25.283-63,31c-24.193,5.002-39.135-7.271-57,6c-5.596,14.557-15,17.456-25,27
		c0.906,55.483-63.017,58.179-94,34c-13.404-10.461-13.584-28.139-36-31c-38.867,16.438-67.078,5.855-65-43c-7.999,0-16.001,0-24,0
		c-10.552,18.883-25.106,22.717-47,31c-13.332,5.999-26.668,12.001-40,18c-25.959,4.146-66.581-2.262-83-7c-8.666,0-17.334,0-26,0
		c-27.602-6.796-60.282-31.83-70-56c-22.072-54.896,57.566-60.127,70-94c-0.333-4.333-0.667-8.667-1-13
		c-0.244-30.356-12.596-38.393-13-70c4.974-1.069,7.369-2.693,10-6c-0.199-8.767-4.227-12.884-5-17c11.539-4.532,14.234-9.223,33-9
		c0.667-0.333,1.333-0.667,2-1c-0.215-16.146,5.752-16.138,8-27c-1.333-0.667-2.667-1.333-4-2c13.62-11.455,42.121-2.004,60-10
		c3.142-13.344,16.808-15.618,30-19c-1.073-12.4-11.839-15.045-10-22c27.259-5.231,56.112-22.287,81-29
		c7.208-1.944,10.593,3.296,16,4c33.756,4.395,67.37,2.303,96-3c5.74-10.761,8.781-34.722,32-24c10.535,5.899,20.475,27.913,27,39
		c25.026,6.972,64.425,0.344,83-5c0.882,7.95,0.117,6.563-2,14c0.333,0.333,0.666,0.667,1,1
		C-111.834,422.5-110.166,422.5-108.5,422.5z"/>
	<circle id="control7" display="none" cx="-290.918" cy="572.719" r="51.229"/>
</g>
<g id="Nation8_1_">
	<path id="background8" fill="#BF0000" stroke="#000000" stroke-width="12" stroke-miterlimit="10" d="M-558.5,503.5
		c-0.333,2-0.667,4-1,6c-4.333,2-8.667,4-13,6c0,1.333,0,2.667,0,4c6.292,2.299,9.128,6.559,7,14c-2,0.667-4,1.333-6,2c0-2,0-4,0-6
		c-15.055,1.658-35.96,4.703-50-1c-9.999-4.666-20.001-9.334-30-14c-8.51-1.854-15.598,2.04-21,3c-10.812,1.921-23.544-3.08-34,1
		c-4,4-8,8-12,12c-9.305,6.957-23.601,11.646-37,14c-12.1,2.126-75.258-17.284-83-23c-9.3-6.867-13.417-19.967-22-27
		c-9.333-2.333-18.667-4.667-28-7c-20.221-8.276-51.176-27.127-61-46c-10.246-19.684-3.2-62.117-9-86
		c-4.666-8.666-9.334-17.334-14-26c-7.03-18.559-5.415-42.474,0-60c5.604-18.141,20.529-43.443,35-53c7-4,14-8,21-12
		c22.055-33.448,14.911-73.077,56-90c12.095-4.981,27.124,1.803,40,0c19.138-2.679,29.899-13.374,47-15c6,3,12,6,18,9
		c3.333-1.666,6.667-3.334,10-5c3.666,0.667,7.333,1.333,11,2c0.667,0,1.333,0,2,0c1-2,2-4,3-6c7.181,1.697,8.601,5.833,13,10
		c3.525-8.438,18.391-7.283,28-9c-0.589-5.642,1.379-18.438,4-20c12.899,45.257,28.156,20.723,63,37
		c18.635,8.705,20.835,22.479,34,32c15.224,11.01,30.019,17.661,44,29c11.332-5.666,22.668-11.334,34-17
		c-0.418-19.6,8.575-30.329,21-37c0.333,79.992,0.667,160.008,1,240c35.115,1.975,20.125,23.708,35,41c2.667,0.333,5.333,0.667,8,1
		c-2.283,10.141-9.372,10.324-12,19c5.958,4.765,12.068,11.154,16,18c-12.598,8.93-24.542,6.43-31,22
		c-11.666-0.667-23.334-1.333-35-2c0.333,1.333,0.667,2.667,1,4c-10.496-0.18-18.229,2.33-25,6c1.333,2.666,2.667,5.334,4,8
		c-7.088,6.525-6.162,10.335-9,22C-543.166,503.5-550.834,503.5-558.5,503.5z"/>
	<g id="merson8_4_1_">
		<path id="path8_4" fill="#EBEBEB" stroke="#000000" stroke-width="2" stroke-miterlimit="10" d="M-566.446,325.646
			c0-14.552-7.577-27.071-11.737-41.96c-0.299-1.073-1.709-2.318-3.693-3.596c3.927-4.517,6.311-10.412,6.311-16.867
			c0-14.207-11.517-25.724-25.724-25.724c-14.206,0-25.723,11.517-25.723,25.724c0,6.528,2.436,12.483,6.442,17.019
			c-1.925,1.241-3.293,2.449-3.606,3.499c-0.99,3.309-11.212,38.64-11.212,41.905c-0.002,5.547,4.168,9.033,8.071,9.977
			c1.225,10.862,5.72,19.157,6.692,21.877c-6.277,4.732-6.277,9.629,0,9.604c17.201-0.069,18.831-4.114,18.831-4.114h0.497
			c0,0,1.475,4.044,18.985,4.044c9.365,0,6.38-5.488,0-9.534c1.357-2.204,5.86-10.918,7.075-21.933
			C-571.837,334.566-566.446,331.152-566.446,325.646z"/>
		<polygon id="text_anchor_3_" fill="#EBEBEB" stroke="#6D6E71" stroke-miterlimit="10" points="-597,299 -613,313 -593,321 		"/>
	</g>
	<g id="merson8_3_1_">
		<path id="path8_3" fill="#EBEBEB" stroke="#000000" stroke-width="2" stroke-miterlimit="10" d="M-646.446,325.646
			c0-14.552-7.577-27.071-11.737-41.96c-0.299-1.073-1.709-2.318-3.693-3.596c3.927-4.517,6.311-10.412,6.311-16.867
			c0-14.207-11.517-25.724-25.724-25.724c-14.206,0-25.723,11.517-25.723,25.724c0,6.528,2.436,12.483,6.442,17.019
			c-1.925,1.241-3.293,2.449-3.606,3.499c-0.99,3.309-11.212,38.64-11.212,41.905c-0.002,5.547,4.168,9.033,8.071,9.977
			c1.225,10.862,5.72,19.157,6.692,21.877c-6.277,4.732-6.277,9.629,0,9.604c17.201-0.069,18.831-4.114,18.831-4.114h0.497
			c0,0,1.475,4.044,18.985,4.044c9.365,0,6.38-5.488,0-9.534c1.357-2.204,5.86-10.918,7.075-21.933
			C-651.837,334.566-646.446,331.152-646.446,325.646z"/>
		<polygon id="text_anchor_2_" fill="#EBEBEB" stroke="#6D6E71" stroke-miterlimit="10" points="-677,299 -693,313 -673,321 		"/>
	</g>
	<g id="merson8_2_1_">
		<path id="path8_2" fill="#EBEBEB" stroke="#000000" stroke-width="2" stroke-miterlimit="10" d="M-726.446,325.646
			c0-14.552-7.577-27.071-11.737-41.96c-0.299-1.073-1.709-2.318-3.693-3.596c3.927-4.517,6.311-10.412,6.311-16.867
			c0-14.207-11.517-25.724-25.724-25.724c-14.206,0-25.723,11.517-25.723,25.724c0,6.528,2.436,12.483,6.442,17.019
			c-1.925,1.241-3.293,2.449-3.606,3.499c-0.99,3.309-11.212,38.64-11.212,41.905c-0.002,5.547,4.168,9.033,8.071,9.977
			c1.225,10.862,5.72,19.157,6.692,21.877c-6.277,4.732-6.277,9.629,0,9.604c17.201-0.069,18.831-4.114,18.831-4.114h0.497
			c0,0,1.475,4.044,18.985,4.044c9.365,0,6.38-5.488,0-9.534c1.357-2.204,5.86-10.918,7.075-21.933
			C-731.837,334.566-726.446,331.152-726.446,325.646z"/>
		<polygon id="text_anchor_1_" fill="#EBEBEB" stroke="#6D6E71" stroke-miterlimit="10" points="-757,299 -773,313 -753,321 		"/>
	</g>
	<g id="merson8_1_1_">
		<path id="path8_1" fill="#EBEBEB" stroke="#000000" stroke-width="2" stroke-miterlimit="10" d="M-806.446,325.646
			c0-14.552-7.577-27.071-11.737-41.96c-0.299-1.073-1.709-2.318-3.693-3.596c3.927-4.517,6.311-10.412,6.311-16.867
			c0-14.207-11.517-25.724-25.724-25.724c-14.206,0-25.723,11.517-25.723,25.724c0,6.528,2.436,12.483,6.442,17.019
			c-1.925,1.241-3.293,2.449-3.606,3.499c-0.99,3.309-11.212,38.64-11.212,41.905c-0.002,5.547,4.168,9.033,8.071,9.977
			c1.225,10.862,5.72,19.157,6.692,21.877c-6.277,4.732-6.277,9.629,0,9.604c17.201-0.069,18.831-4.114,18.831-4.114h0.497
			c0,0,1.475,4.044,18.985,4.044c9.365,0,6.38-5.488,0-9.534c1.357-2.204,5.86-10.918,7.075-21.933
			C-811.837,334.566-806.446,331.152-806.446,325.646z"/>
		<polygon id="text_anchor_27_" fill="#EBEBEB" stroke="#6D6E71" stroke-miterlimit="10" points="-836,299 -852,313 -832,321 		"/>
	</g>
	<text id="WL" transform="matrix(1 0 0 1 -818.1411 413.4521)" font-family="'MyriadPro-Regular'" font-size="50">Westland</text>
	<g id="Agents8">
		<polygon id="Nation8_m3_1" points="-847.97,454.221 -841.81,458.888 -848.97,460.888 		"/>
		<polygon id="Nation8_m3_2" points="-791.752,482.573 -785.592,487.24 -792.752,489.24 		"/>
		<polygon id="Nation8_m3_3" points="-900.97,422.823 -894.81,427.49 -901.97,429.49 		"/>
		<polygon id="Nation8_m1_1" points="-788.271,124.553 -782.111,129.22 -789.271,131.22 		"/>
		<polygon id="Nation8_m1_2" points="-890.13,163.172 -883.97,167.839 -891.13,169.839 		"/>
		<polygon id="Nation8_m1_3" points="-945.336,233.632 -939.176,238.299 -946.336,240.299 		"/>
		<polygon id="Nation8_m4_1" points="-586.359,183.172 -580.199,187.839 -587.359,189.839 		"/>
		<polygon id="Nation8_m4_2" points="-640.924,147.126 -634.764,151.793 -641.924,153.793 		"/>
		<polygon id="Nation8_m4_3" points="-525.924,183.126 -519.764,187.793 -526.924,189.793 		"/>
		<polygon id="Nation8_m2_1" points="-518.743,366.134 -512.583,370.801 -519.743,372.801 		"/>
		<polygon id="Nation8_m2_2" points="-566.187,426.833 -560.026,431.5 -567.187,433.5 		"/>
		<polygon id="Nation8_m2_3" points="-654.271,452.156 -648.111,456.823 -655.271,458.823 		"/>
	</g>
	<path id="outline8_1_" fill="none" stroke="#000000" stroke-width="12" stroke-miterlimit="10" d="M-558.5,503.5
		c-0.333,2-0.667,4-1,6c-4.333,2-8.667,4-13,6c0,1.333,0,2.667,0,4c6.292,2.299,9.128,6.559,7,14c-2,0.667-4,1.333-6,2c0-2,0-4,0-6
		c-15.055,1.658-35.96,4.703-50-1c-9.999-4.666-20.001-9.334-30-14c-8.51-1.854-15.598,2.04-21,3c-10.812,1.921-23.544-3.08-34,1
		c-4,4-8,8-12,12c-9.305,6.957-23.601,11.646-37,14c-12.1,2.126-75.258-17.284-83-23c-9.3-6.867-13.417-19.967-22-27
		c-9.333-2.333-18.667-4.667-28-7c-20.221-8.276-51.176-27.127-61-46c-10.246-19.684-3.2-62.117-9-86
		c-4.666-8.666-9.334-17.334-14-26c-7.03-18.559-5.415-42.474,0-60c5.604-18.141,20.529-43.443,35-53c7-4,14-8,21-12
		c22.055-33.448,14.911-73.077,56-90c12.095-4.981,27.124,1.803,40,0c19.138-2.679,29.899-13.374,47-15c6,3,12,6,18,9
		c3.333-1.666,6.667-3.334,10-5c3.666,0.667,7.333,1.333,11,2c0.667,0,1.333,0,2,0c1-2,2-4,3-6c7.181,1.697,8.601,5.833,13,10
		c3.525-8.438,18.391-7.283,28-9c-0.589-5.642,1.379-18.438,4-20c12.899,45.257,28.156,20.723,63,37
		c18.635,8.705,20.835,22.479,34,32c15.224,11.01,30.019,17.661,44,29c11.332-5.666,22.668-11.334,34-17
		c-0.418-19.6,8.575-30.329,21-37c0.333,79.992,0.667,160.008,1,240c35.115,1.975,20.125,23.708,35,41c2.667,0.333,5.333,0.667,8,1
		c-2.283,10.141-9.372,10.324-12,19c5.958,4.765,12.068,11.154,16,18c-12.598,8.93-24.542,6.43-31,22
		c-11.666-0.667-23.334-1.333-35-2c0.333,1.333,0.667,2.667,1,4c-10.496-0.18-18.229,2.33-25,6c1.333,2.666,2.667,5.334,4,8
		c-7.088,6.525-6.162,10.335-9,22C-543.166,503.5-550.834,503.5-558.5,503.5z"/>
	<circle id="control8" display="none" cx="-720.367" cy="302.302" r="51.229"/>
</g>
</svg>
