<?xml version="1.0" encoding="utf-8"?>
<!-- Generator: Adobe Illustrator 15.0.0, SVG Export Plug-In . SVG Version: 6.00 Build 0)  -->
<!DOCTYPE svg PUBLIC "-//W3C//DTD SVG 1.1//EN" "http://www.w3.org/Graphics/SVG/1.1/DTD/svg11.dtd">
<svg version="1.1" id="Map" xmlns="http://www.w3.org/2000/svg" xmlns:xlink="http://www.w3.org/1999/xlink" x="0px" y="0px"
	 width="2000px" height="1660px" viewBox="0 0 2000 1660" enable-background="new 0 0 2000 1660" xml:space="preserve">
<g id="continent">
	<path id="whole_map" fill-rule="evenodd" clip-rule="evenodd" stroke="#000000" stroke-width="20" stroke-miterlimit="10" d="
		M1557.5,548.5c-1.156,24.805-31.631,46.003-48,28c-0.333,0-0.667,0-1,0c-6.636,13.629-26.764,12.008-43,10
		c-10.999,2.666-22.001,5.334-33,8c-3.243,2.489-3.104,7.661-8,9c-4.333-0.667-8.667-1.333-13-2c-12.797,1.507-22.375,6.616-33,12
		c-6.346,3.215-4.98,13.357-12,17c-7.619,1.442-9.298-1.881-15,1c-3.83,11.248-11.666,8.965-22,11
		c-2.666,10.366-28.289,25.507-44,22c-18.91-4.221-41.222-8.774-62-14c-10.332,1.333-20.668,2.667-31,4
		c-6.999-0.667-14.001-1.333-21-2c-17.62,0.729-38.563,2.6-56,0c-0.297,6.521-1.325,6.545-4,10c-32.461,0.643-30.801,35.426-52,32
		c-28.178-4.554-52.423-18.648-73-34c-8.303-6.194-14.596-18.921-24-24c-3.145-1.698-72.653-17.077-74-17
		c-6.814,0.393-20.781,7.708-33,4c-8.138-2.47-7.865-11.876-14-15c-4.666-0.667-9.334-1.333-14-2c-13.241-5.349-23.239-23.213-25-40
		c-12.164-3.142-14.42-10.485-23-16c-14.332-5.666-28.668-11.334-43-17c-12.373-8.626-22.782-25.022-37-32
		c-11.75-5.766-21.631-1.547-37-6c-3.333-3-6.667-6-10-9c-8.999,0.667-18.001,1.333-27,2c-0.84-11.938-8.958-5.915-18-12
		c-6.378-4.292-9.553-14.438-17-19c-18.402,6.044-15.822,32.635-29,44c-27.745,11.389-46.394-4.735-77-9c0,4,0,8,0,12
		c0.666,1.333,1.333,2.667,2,4c24.993,12.484,33.417,27.706,46,53c-5.666,12.332-11.334,24.668-17,37
		c4.333,8.332,8.667,16.668,13,25c2.113,6.933,0.51,19.277,5,24c7.53,8.11,16.464,13.698,21,25c2,6.333,4,12.667,6,19
		c3.333,1.333,6.667,2.667,10,4c11.242,7.425,23.679,20.738,35,28c6.666,0.333,13.334,0.667,20,1c13.06,4.621,26.309,13.116,42,18
		c22.061-17.04,89.138,23.233,83,56c-4.297,6.467-8.035,14.054-16,17c0,1.333,0,2.667,0,4c16.483,16.192,50.983,75.067,33,103
		c-17.949,27.88-57.917,22.666-64,67c13.58,14.281,31.645,59.31,17,82c-2.261,3.502-20.829,18.464-26,24
		c6.54,8.787,14.558,17.353,15,32c13.756,3.116,30.349,3.118,41,11c0,4,0,8,0,12c18.996-0.2,33.198,16.375,39,29
		c2.583,8.45-1.887,15.216-7,19c-14.295-1.743-15.077-9.294-22-18c-10.085-2.242-24.22,5.393-30-7c-16.49,5.699-29.48,2.655-38-13
		c-22.431,9.542-41.623-2.842-52-15c-21.744-2.941-40.909-4.204-57,8c-5.606,4.253-7.931,11.686-16,14
		c-11.666,0.333-23.335,0.667-35,1c-2.089,11.173-11.771,17.372-18,25c2.337,9.645,4.688,20.981,1,29c-5.642,1.16-39.647,2.502-47-1
		c-6.611-3.148-12.429-11.32-22-13c-6.333,0.333-12.667,0.667-19,1c-20.136-3.366-57.21-8.872-73-18
		c-14.798-8.554-30.338-22.037-44-33c-5.333-6.333-10.667-12.667-16-19c-15.567-6.812-38.834-1.408-55-8
		c-29.152-11.888-50.328-47.996-62-77c-5.666,0.667-11.334,1.333-17,2c-3.093,8.188-6.349,16.508-13,21
		c-11.021,7.442-85.927,9.405-101,4c-11.679-4.188-13.932-16.103-23-22c-5.827-3.789-15.57-7.581-21-10c-9.333-2-18.667-4-28-6
		c-4.905,11.793-14.406,16.307-18,31c-5.228,21.37-0.459,41.975-10,59c-8.864,15.817-25.001,21.739-35,35
		c-13.442,17.828-24.917,33.898-38,52c-4,3.666-8,7.334-12,11c-3.414,8.829-1.058,12.984-5,19c-3.667,0.333-7.334,0.667-11,1
		c-1.598,10.177-9.563,24.773-16,31c-1.333-0.333-2.667-0.667-4-1c-8.05-3.517-11.547-12.08-15-20c3.898-4.425,5.932-5.201,6-14
		c-12.312-28.826-31.239-55.67-65-63c-14.332-0.333-28.668-0.667-43-1c-15.23-4.771-30.699-22.514-51-20
		c-12.127,1.502-14.848,6.67-23,10c-14.82,6.055-43.44,8.504-61,5c-9.272-1.85-13.751-9.754-21-12c-13.332-0.333-26.668-0.667-40-1
		c-11.425-2.839-13.13-12.758-21-18c-7-2.666-14.001-5.334-21-8c-7.666-12.999-15.334-26.001-23-39c-7.333-3.666-14.667-7.334-22-11
		c-26.194-17.232-41.621-30.105-57-59c-4.38-8.229-14.787-10.519-18-21c22.769-7.705,27.779-29.24,41-46
		c8.094-10.261,45.263-30.814,58-37c-0.667-0.333-1.333-0.667-2-1c-23.655-24.944-54.431-51.887-56-98
		c-29.869-9.405-64.728-41.192-76-71c-61.604,0.483-60.506-39.089-103-48c-32.825-6.883-69.631,29.853-88,0
		c-3.488-5.368-7.461-24.357-5-31c-3-4.666-6-9.334-9-14c0-11.999,0-24.001,0-36c-4.215-22.743-9.612-48.458-13-72
		c0.333-9.666,0.667-19.334,1-29c-3.333-9.332-6.667-18.668-10-28c0.333-13.332,0.667-26.668,1-40c-2-3.333-4-6.667-6-10
		c0.667-9.999,1.333-20.001,2-30c-0.513-2.793-9.701-41.53-11-43c-10.132-11.458-32.462-33.305-19-58c3.624-6.648,9.259-24.36,8-36
		c-2.196-20.297-15.229-27.802-21-45c-20.389,2.079-65.074-6.433-72-18c-3-10.666-6-21.334-9-32c-4.333-3.333-8.667-6.667-13-10
		c-5.978-10.262-14.882-26.027-18-36c-0.333-11.332-0.667-22.668-1-34c-3-3.333-6-6.667-9-10c-2.52-8.152-1.229-32.153,2-37
		c6.463-9.698,33.203-12.374,45-16c8.526-30.58,27.502-39.729,64-39c0-0.333,0-0.667,0-1c-11.681-19.462,0.806-38.863,6-57
		c0.667-5.333,1.333-10.667,2-16c20.331-13.999,40.669-28.001,61-42c8.455-8.727,14.127-19.613,22-29
		c7.944-9.473,24.11-12.284,29-25c5.57-14.484-0.431-28.059,7-39c7.715-11.36,29.969-18.894,41-27c0.208-12.495,2.038-33.821,8-42
		c4.333-3,8.667-6,13-9c4.372-9.541,1.374-19.737,5-28c3.667-4,7.333-8,11-12c2.667-7.333,5.333-14.667,8-22c4-5,8-10,12-15
		c5.649-14.342-8.146-26.301,1-39c6.199-8.607,35.714-21.964,46-25c5.333,0,10.667,0,16,0c16.061-6.598,31.06-25.708,46-34
		c7.802-4.33,20.967,1.245,31-2c4.666-3,9.334-6,14-9c23.331,0,46.669,0,70,0c15.322,4.349,33.09,19.482,60,12
		c13.301-3.698,11.796-21.491,22-28c8.93-5.696,26.037,2.715,37-2c10.88-4.679,7.771-17.421,14-27c3.674-5.649,12.929-7.741,19-11
		c1.518-26.277,26.053-27.849,52-28c16.169-32.19,27.361-11.396,49-6c13.665,0,27.334,0,41,0c7.97,1.854,18.952,10.281,33,6
		c9.666-7.999,19.334-16.001,29-24c18.75,5.802,67.664,9.167,79,20c2,6,4,12,6,18c6,7.666,12,15.334,18,23
		c14.498,19.11,35.904,24.085,56,38c19.931,13.801,35.626,35.458,55,50c10.37,7.784,60.66,11.023,64,15
		c3.876,10.139-3.883,21.999-3,28c4.333,8.666,8.667,17.334,13,26c0,4,0,8,0,12c3.666,3,7.333,6,11,9
		c0.667,14.665,1.333,29.335,2,44c0.667,0.333,1.333,0.667,2,1c19.049-6.249,42.735-14.471,66-5c7.666,4,15.334,8,23,12
		c17.456,3.051,40.872,1.672,60,5c9.666-0.333,19.334-0.667,29-1c16.468,2.817,34.371,5.247,51-1c31.547-11.852,35.46-38.113,52-65
		c6.207-10.091,39.767-42.656,50-49c17.323-10.739,92.755-16.601,121-12c10.543,1.717,32.409,4.318,44,1
		c4.333-3.666,8.667-7.333,13-11c15.859-10.622,31.68-24.651,50-31c17.806-6.17,35.272-10.063,53-13c9.999,0.667,20.001,1.333,30,2
		c6.666-0.667,13.334-1.333,20-2c12.108,2.042,32.145,3.634,46,1c27.126-5.156,49.291-17.482,73-24
		c39.753-10.928,75.893,14.856,86,41c74.611,4.661,116.965,86.506,142,144c9.72,22.323,29.487,45.661,31,75
		c52.419-26.488,89.045-3.58,112,36c20.668,3.148,41.119,7.245,57,11c16.881-22.326,63.547-30.281,92-13
		c31.438,19.094,31.404,53.683,48,88c3.104,6.417,8.525,10.891,11,19c7.999-0.667,16.001-1.333,24-2
		c33.663,26.997,67.337,54.003,101,81c14.898,9.364,43.162,19.946,52,35c9.307,15.854-1.604,46.675,7,63
		c2.666,1.667,5.334,3.333,8,5c4.518,6.972,12.59,51.523,8,66c-2.251,7.1-11.178,9.312-16,14c0.731,15.393-1.279,17.861-9,26
		c5.063,7.02,7.707,11.868,5,22c-8.349,5.506-18.521,10.711-25,18c-15.577,17.527-17.167,41.316-42,50c0,1.333,0,2.667,0,4
		c9.529,3.308,22.827,11.213,28,19c2.333,12.666,4.667,25.334,7,38c3,2.333,6,4.667,9,7c3.247,6.282,15.702,40.529,16,46
		c-5.957,11.16-15.598,8.081-24,16c-6.569,9.324-3.2,24.693-14,30c-6.333,1.333-12.668,2.667-19,4c-0.969,6.3-20.28,33.343-24,36
		c-5.504,3.932-9.974,1.034-12,9c4.637,9.098,14.65,17.183,17,26C1581.803,532.017,1572.92,546.322,1557.5,548.5z"/>
</g>
<g id="Nation1_1_">
	
		<path id="background1" fill-rule="evenodd" clip-rule="evenodd" fill="#B1ED0D" stroke="#000000" stroke-width="8" stroke-miterlimit="10" d="
		M-849.5,265.5c-14.425-0.294-30.771-0.668-41,3c-0.333,4.333-0.667,8.667-1,13c-7,2-14,4-21,6c-5.151-6.155-16.646-10.383-26-12
		c-1.327-16.045-12.494-28.187-20-40c-10.393,3.294-55.583-4.338-64-10c-11.332-7.623-7.507-28.558-16-39c-4-3-8-6-12-9
		c-6.357-9.878-16.019-27.96-19-38c-0.333-11.332-0.667-22.668-1-34c-2.667-2.333-5.333-4.667-8-7c-4.842-9.403-0.412-33.056,2-40
		c11.958-6.393,33.16-8.847,45-16c2.145-30.665,29.689-37.938,64-37c0-0.333,0-0.667,0-1c-11.937-19.842-0.769-37.711,5-57
		c1-6,2-12,3-18c9.999-6,20.001-12,30-18c13.957-8.776,29.878-21.022,41-33c1.333-3.666,2.667-7.333,4-11
		c9.535-11.952,30.543-17.526,36-33c4.914-13.937-0.025-27.479,7-38c8.955-13.41,30.35-16.021,41-28c0.401-11.889,2.298-32.878,8-41
		c4.333-3.333,8.667-6.667,13-10c4.73-10.529,1.196-20.973,6-30c3.333-3,6.667-6,10-9c3-7.999,6-16.001,9-24
		c3.667-4.666,7.333-9.334,11-14c5.913-16.539-9.275-28.287,3-41c15.332-7.666,30.668-15.334,46-23c4.666,0,9.334,0,14,0
		c15.56-5.247,31.314-24.762,45-33c8.406-5.06,21.886,1.135,33-3c5-3,10-6,15-9c22.331,0,44.669,0,67,0
		c21.586,5.538,32.577,18.111,67,10c13.851-21.457,15.392-28.942,53-28c3.666-3.333,7.333-6.667,11-10c1.333-6,2.667-12,4-18
		c6-3.333,12-6.667,18-10c5.564-8.563,2.146-16.807,11-22c8.767-7.093,30.645-0.6,41-6c10.044-5.238,6.868-16.674,24-18
		c7.999,4,16.001,8,24,12c13.665,0,27.334,0,41,0c8.549,1.958,21.507,10.303,35,5c8.999-7.333,18.001-14.667,27-22
		c23.483,1.648,65.287,10.496,81,21c2.387,20.428,36.143,56.001,51,65c14.343,8.688,28.061,11.7,40,22
		c16.182,13.96,31.458,35.086,51,45c12.455,6.318,39.245,11.092,54,7c0.667,0.333,1.333,0.667,2,1c1.27,10.215-3.738,23.821-3,30
		c4,7.999,8,16.001,12,24c0.333,4.666,0.667,9.334,1,14c3.666,3.333,7.333,6.667,11,10c0.333,14.665,0.667,29.335,1,44
		c-21.771,7.186-15.808,27.303-25,47c-5.333,5.666-10.667,11.334-16,17c-3.436,5.188-3.003,13.429-8,17c-6,3-12,6-18,9
		c0.001,4.779-7.587,44.286-10,48c-3.718,5.723-11.609,9.621-16,16c-11.999,1.333-24.001,2.667-36,4
		c-18.998,13.999-38.002,28.001-57,42c-8.333,0-16.667,0-25,0c-10.935,4.42-20.331,17.386-30,22c-13.724,6.549-23.506,6.337-34,15
		c-6.149,5.076-4.817,12.295-8,21c-3.472,9.493-31.056,43.963-40,48c-5.666,0-11.334,0-17,0c-16.239,5.54-47.816,17.833-56,32
		c-5.086,8.805-2.03,22.792-6,31c-4.333,5.666-8.667,11.334-13,17c0.333,4.666,0.667,9.334,1,14c-7.512,13.05-31.185,21.731-37,36
		c-7.278,17.859,6.338,22.104-8,36c0.333,3,0.667,6,1,9c6.137,1.28,7.669,3.171,11,7c-1.333,1.667-2.667,3.333-4,5
		c-19.072,8.876-31.923,28.517-50,38c-12.999,0.333-26.001,0.667-39,1c-7.219,2.799-6.248,13.644-11,19
		c-8.669,9.772-18.553,2.924-22,20c2.667,0.333,5.333,0.667,8,1c-0.008,18.575-8.936,15.028-14,25c-1.667,6.666-3.333,13.334-5,20
		c-14.175,22.667-42.016,20.743-74,27c-6.883,1.347-27.376,5.63-37,2c-8.923-3.366-12.979-16.178-20-22
		c-23.657-0.388-31.497,7.03-47,10c-8.169-4.257-8.594-11.254-15-16c-14.767-10.94-28.652-13.939-40-28c-2-4.666-4-9.334-6-14
		c-8.333-2.333-16.667-4.667-25-7c-17.368-5.881-27.302-13.832-49-2c0.301,7.417-0.446,11.364-5,14
		C-789.844,299.07-847.902,282.851-849.5,265.5z"/>
	<g id="merson1_7">
		<path id="path1_7" fill="#EBEBEB" stroke="#6D6E71" stroke-width="2" stroke-miterlimit="10" d="M-222.613-145.402
			c0-3.43-9.443-33.75-11.737-41.96c-0.299-1.073-1.709-2.318-3.693-3.596c3.927-4.517,6.311-10.412,6.311-16.867
			c0-14.207-11.517-25.724-25.724-25.724c-14.206,0-25.723,11.517-25.723,25.724c0,6.528,2.436,12.483,6.442,17.019
			c-1.925,1.241-3.293,2.449-3.606,3.499c-0.99,3.309-11.212,38.64-11.212,41.905c-0.002,5.547,4.168,9.033,8.071,9.977
			c1.225,10.862,5.72,19.157,6.692,21.877c-6.277,4.732-6.277,9.629,0,9.604c17.201-0.069,18.831-4.114,18.831-4.114h0.497
			c0,0,1.475,4.044,18.985,4.044c9.365,0,6.38-5.488,0-9.534c1.357-2.204,5.86-10.918,7.075-21.933
			C-228.003-136.482-222.613-139.897-222.613-145.402z"/>
		<polygon id="text_anchor_17_" fill="#EBEBEB" stroke="#6D6E71" stroke-miterlimit="10" points="-254.162,-173.247 
			-270.162,-159.247 -250.162,-151.247 		"/>
	</g>
	<g id="merson1_6">
		<path id="path1_6" fill="#EBEBEB" stroke="#6D6E71" stroke-width="2" stroke-miterlimit="10" d="M-300.613-145.402
			c0-3.43-9.443-33.75-11.737-41.96c-0.299-1.073-1.709-2.318-3.693-3.596c3.927-4.517,6.311-10.412,6.311-16.867
			c0-14.207-11.517-25.724-25.724-25.724c-14.206,0-25.723,11.517-25.723,25.724c0,6.528,2.436,12.483,6.442,17.019
			c-1.925,1.241-3.293,2.449-3.606,3.499c-0.99,3.309-11.212,38.64-11.212,41.905c-0.002,5.547,4.168,9.033,8.071,9.977
			c1.225,10.862,5.72,19.157,6.692,21.877c-6.277,4.732-6.277,9.629,0,9.604c17.201-0.069,18.831-4.114,18.831-4.114h0.497
			c0,0,1.475,4.044,18.985,4.044c9.365,0,6.38-5.488,0-9.534c1.357-2.204,5.86-10.918,7.075-21.933
			C-306.003-136.482-300.613-139.897-300.613-145.402z"/>
		<polygon id="text_anchor_30_" fill="#EBEBEB" stroke="#6D6E71" stroke-miterlimit="10" points="-332.162,-173.247 
			-348.162,-159.247 -328.162,-151.247 		"/>
	</g>
	<g id="merson1_5">
		<path id="path1_3_1_" fill="#EBEBEB" stroke="#6D6E71" stroke-width="2" stroke-miterlimit="10" d="M-380.613-145.402
			c0-3.43-9.443-33.75-11.737-41.96c-0.299-1.073-1.709-2.318-3.693-3.596c3.927-4.517,6.311-10.412,6.311-16.867
			c0-14.207-11.517-25.724-25.724-25.724c-14.206,0-25.723,11.517-25.723,25.724c0,6.528,2.436,12.483,6.442,17.019
			c-1.925,1.241-3.293,2.449-3.606,3.499c-0.99,3.309-11.212,38.64-11.212,41.905c-0.002,5.547,4.168,9.033,8.071,9.977
			c1.243,11.018,5.777,19.316,6.692,21.877c-6.277,4.732-6.277,9.629,0,9.604c17.201-0.069,18.831-4.114,18.831-4.114h0.497
			c0,0,1.475,4.044,18.985,4.044c9.365,0,6.38-5.488,0-9.534c1.357-2.204,5.86-10.918,7.075-21.933
			C-386.003-136.482-380.613-139.897-380.613-145.402z"/>
		<polygon id="text_anchor_2_" fill="#EBEBEB" stroke="#6D6E71" stroke-miterlimit="10" points="-411.162,-173.247 
			-427.162,-159.247 -407.162,-151.247 		"/>
	</g>
	<g id="merson1_4">
		<path id="path1_4" fill="#EBEBEB" stroke="#6D6E71" stroke-width="2" stroke-miterlimit="10" d="M-460.613-145.402
			c0-3.43-9.443-33.75-11.737-41.96c-0.299-1.073-1.709-2.318-3.693-3.596c3.927-4.517,6.311-10.412,6.311-16.867
			c0-14.207-11.517-25.724-25.724-25.724c-14.206,0-25.723,11.517-25.723,25.724c0,6.528,2.436,12.483,6.442,17.019
			c-1.925,1.241-3.293,2.449-3.606,3.499c-0.99,3.309-11.212,38.64-11.212,41.905c-0.002,5.547,4.168,9.033,8.071,9.977
			c1.225,10.862,5.72,19.157,6.692,21.877c-6.277,4.732-6.277,9.629,0,9.604c17.201-0.069,18.831-4.114,18.831-4.114h0.497
			c0,0,1.475,4.044,18.985,4.044c9.365,0,6.38-5.488,0-9.534c1.357-2.204,5.86-10.918,7.075-21.933
			C-466.003-136.482-460.613-139.897-460.613-145.402z"/>
		<polygon id="text_anchor_27_" fill="#EBEBEB" stroke="#6D6E71" stroke-miterlimit="10" points="-492.162,-173.247 
			-508.162,-159.247 -488.162,-151.247 		"/>
	</g>
	<g id="merson1_3">
		<path id="path1_3" fill="#EBEBEB" stroke="#6D6E71" stroke-width="2" stroke-miterlimit="10" d="M-541.613-145.402
			c0-3.43-9.443-33.75-11.737-41.96c-0.299-1.073-1.709-2.318-3.693-3.596c3.927-4.517,6.311-10.412,6.311-16.867
			c0-14.207-11.517-25.724-25.724-25.724c-14.206,0-25.723,11.517-25.723,25.724c0,6.528,2.436,12.483,6.442,17.019
			c-1.925,1.241-3.293,2.449-3.606,3.499c-0.99,3.309-11.212,38.64-11.212,41.905c-0.002,5.547,4.168,9.033,8.071,9.977
			c1.225,10.862,5.72,19.157,6.692,21.877c-6.277,4.732-6.277,9.629,0,9.604c17.201-0.069,18.831-4.114,18.831-4.114h0.497
			c0,0,1.475,4.044,18.985,4.044c9.365,0,6.38-5.488,0-9.534c1.357-2.204,5.86-10.918,7.075-21.933
			C-547.003-136.482-541.613-139.897-541.613-145.402z"/>
		<polygon id="text_anchor_8_" fill="#EBEBEB" stroke="#6D6E71" stroke-miterlimit="10" points="-573.162,-173.247 
			-589.162,-159.247 -569.162,-151.247 		"/>
	</g>
	<g id="merson1_2">
		<path id="path1_2_3_" fill="#EBEBEB" stroke="#6D6E71" stroke-width="2" stroke-miterlimit="10" d="M-622.613-145.402
			c0-3.43-9.443-33.75-11.737-41.96c-0.299-1.073-1.709-2.318-3.693-3.596c3.927-4.517,6.311-10.412,6.311-16.867
			c0-14.207-11.517-25.724-25.724-25.724c-14.206,0-25.723,11.517-25.723,25.724c0,6.528,2.436,12.483,6.442,17.019
			c-1.925,1.241-3.293,2.449-3.606,3.499c-0.99,3.309-11.212,38.64-11.212,41.905c-0.002,5.547,4.168,9.033,8.071,9.977
			c1.243,11.018,5.777,19.316,6.692,21.877c-6.277,4.732-6.277,9.629,0,9.604c17.201-0.069,18.831-4.114,18.831-4.114h0.497
			c0,0,1.475,4.044,18.985,4.044c9.365,0,6.38-5.488,0-9.534c1.357-2.204,5.86-10.918,7.075-21.933
			C-628.003-136.482-622.613-139.897-622.613-145.402z"/>
		<polygon id="text_anchor_6_" fill="#EBEBEB" stroke="#6D6E71" stroke-miterlimit="10" points="-653.162,-173.247 
			-669.162,-159.247 -649.162,-151.247 		"/>
	</g>
	<g id="merson1_1_1_">
		<path id="path1_1" fill="#EBEBEB" stroke="#6D6E71" stroke-width="2" stroke-miterlimit="10" d="M-701.613-145.402
			c0-3.43-9.443-33.75-11.737-41.96c-0.299-1.073-1.709-2.318-3.693-3.596c3.927-4.517,6.311-10.412,6.311-16.867
			c0-14.207-11.517-25.724-25.724-25.724c-14.206,0-25.723,11.517-25.723,25.724c0,6.528,2.436,12.483,6.442,17.019
			c-1.925,1.241-3.293,2.449-3.606,3.499c-0.99,3.309-11.212,38.64-11.212,41.905c-0.002,5.547,4.168,9.033,8.071,9.977
			c1.225,10.862,5.72,19.157,6.692,21.877c-6.277,4.732-6.277,9.629,0,9.604c17.201-0.069,18.831-4.114,18.831-4.114h0.497
			c0,0,1.475,4.044,18.985,4.044c9.365,0,6.38-5.488,0-9.534c1.357-2.204,5.86-10.918,7.075-21.933
			C-707.003-136.482-701.613-139.897-701.613-145.402z"/>
		<polygon id="text_anchor_5_" fill="#EBEBEB" stroke="#6D6E71" stroke-miterlimit="10" points="-733.162,-173.247 
			-749.162,-159.247 -729.162,-151.247 		"/>
	</g>
	<text id="GI" transform="matrix(1 0 0 1 -606.2832 -49.9844)" font-family="'MyriadPro-Regular'" font-size="50">Behemoth</text>
	<g id="Agents1">
		<polygon id="Nation1_m4_3" points="80.154,-319.713 86.314,-315.046 79.154,-313.046 		"/>
		<polygon id="Nation1_m4_2" points="24.65,-400.999 30.811,-396.332 23.65,-394.332 		"/>
		<polygon id="Nation1_m4_1" points="-46.357,-446.237 -40.197,-441.57 -47.357,-439.57 		"/>
		<polygon id="Nation1_m3_3" points="-867.792,184.297 -861.632,188.963 -868.792,190.963 		"/>
		<polygon id="Nation1_m3_2" points="-1016.138,124.179 -1009.978,128.846 -1017.138,130.846 		"/>
		<polygon id="Nation1_m3_1" points="-936.023,9.667 -929.863,14.333 -937.023,16.333 		"/>
		<polygon id="Nation1_m2_3" points="-574.866,229.525 -568.706,234.192 -575.866,236.192 		"/>
		<polygon id="Nation1_m2_2" points="-455.716,187.63 -449.556,192.297 -456.716,194.297 		"/>
		<polygon id="Nation1_m2_1" points="-368.556,109.37 -362.396,114.037 -369.556,116.037 		"/>
		<polygon id="Nation1_m1_3" points="-578.665,-433.624 -572.504,-428.957 -579.665,-426.957 		"/>
		<polygon id="Nation1_m1_2" points="-478.246,-430.291 -472.085,-425.624 -479.246,-423.624 		"/>
		<polygon id="Nation1_m1_1" points="-383.193,-466.319 -377.033,-461.652 -384.193,-459.652 		"/>
	</g>
	
		<path id="outline1" fill-rule="evenodd" clip-rule="evenodd" fill="none" stroke="#000000" stroke-width="8" stroke-miterlimit="10" d="
		M-849.5,265.5c-14.425-0.294-30.771-0.668-41,3c-0.333,4.333-0.667,8.667-1,13c-7,2-14,4-21,6c-5.151-6.155-16.646-10.383-26-12
		c-1.327-16.045-12.494-28.187-20-40c-10.393,3.294-55.583-4.338-64-10c-11.332-7.623-7.507-28.558-16-39c-4-3-8-6-12-9
		c-6.357-9.878-16.019-27.96-19-38c-0.333-11.332-0.667-22.668-1-34c-2.667-2.333-5.333-4.667-8-7c-4.842-9.403-0.412-33.056,2-40
		c11.958-6.393,33.16-8.847,45-16c2.145-30.665,29.689-37.938,64-37c0-0.333,0-0.667,0-1c-11.937-19.842-0.769-37.711,5-57
		c1-6,2-12,3-18c9.999-6,20.001-12,30-18c13.957-8.776,29.878-21.022,41-33c1.333-3.666,2.667-7.333,4-11
		c9.535-11.952,30.543-17.526,36-33c4.914-13.937-0.025-27.479,7-38c8.955-13.41,30.35-16.021,41-28c0.401-11.889,2.298-32.878,8-41
		c4.333-3.333,8.667-6.667,13-10c4.73-10.529,1.196-20.973,6-30c3.333-3,6.667-6,10-9c3-7.999,6-16.001,9-24
		c3.667-4.666,7.333-9.334,11-14c5.913-16.539-9.275-28.287,3-41c15.332-7.666,30.668-15.334,46-23c4.666,0,9.334,0,14,0
		c15.56-5.247,31.314-24.762,45-33c8.406-5.06,21.886,1.135,33-3c5-3,10-6,15-9c22.331,0,44.669,0,67,0
		c21.586,5.538,32.577,18.111,67,10c13.851-21.457,15.392-28.942,53-28c3.666-3.333,7.333-6.667,11-10c1.333-6,2.667-12,4-18
		c6-3.333,12-6.667,18-10c5.564-8.563,2.146-16.807,11-22c8.767-7.093,30.645-0.6,41-6c10.044-5.238,6.868-16.674,24-18
		c7.999,4,16.001,8,24,12c13.665,0,27.334,0,41,0c8.549,1.958,21.507,10.303,35,5c8.999-7.333,18.001-14.667,27-22
		c23.483,1.648,65.287,10.496,81,21c2.387,20.428,36.143,56.001,51,65c14.343,8.688,28.061,11.7,40,22
		c16.182,13.96,31.458,35.086,51,45c12.455,6.318,39.245,11.092,54,7c0.667,0.333,1.333,0.667,2,1c1.27,10.215-3.738,23.821-3,30
		c4,7.999,8,16.001,12,24c0.333,4.666,0.667,9.334,1,14c3.666,3.333,7.333,6.667,11,10c0.333,14.665,0.667,29.335,1,44
		c-21.771,7.186-15.808,27.303-25,47c-5.333,5.666-10.667,11.334-16,17c-3.436,5.188-3.003,13.429-8,17c-6,3-12,6-18,9
		c0.001,4.779-7.587,44.286-10,48c-3.718,5.723-11.609,9.621-16,16c-11.999,1.333-24.001,2.667-36,4
		c-18.998,13.999-38.002,28.001-57,42c-8.333,0-16.667,0-25,0c-10.935,4.42-20.331,17.386-30,22c-13.724,6.549-23.506,6.337-34,15
		c-6.149,5.076-4.817,12.295-8,21c-3.472,9.493-31.056,43.963-40,48c-5.666,0-11.334,0-17,0c-16.239,5.54-47.816,17.833-56,32
		c-5.086,8.805-2.03,22.792-6,31c-4.333,5.666-8.667,11.334-13,17c0.333,4.666,0.667,9.334,1,14c-7.512,13.05-31.185,21.731-37,36
		c-7.278,17.859,6.338,22.104-8,36c0.333,3,0.667,6,1,9c6.137,1.28,7.669,3.171,11,7c-1.333,1.667-2.667,3.333-4,5
		c-19.072,8.876-31.923,28.517-50,38c-12.999,0.333-26.001,0.667-39,1c-7.219,2.799-6.248,13.644-11,19
		c-8.669,9.772-18.553,2.924-22,20c2.667,0.333,5.333,0.667,8,1c-0.008,18.575-8.936,15.028-14,25c-1.667,6.666-3.333,13.334-5,20
		c-14.175,22.667-42.016,20.743-74,27c-6.883,1.347-27.376,5.63-37,2c-8.923-3.366-12.979-16.178-20-22
		c-23.657-0.388-31.497,7.03-47,10c-8.169-4.257-8.594-11.254-15-16c-14.767-10.94-28.652-13.939-40-28c-2-4.666-4-9.334-6-14
		c-8.333-2.333-16.667-4.667-25-7c-17.368-5.881-27.302-13.832-49-2c0.301,7.417-0.446,11.364-5,14
		C-789.844,299.07-847.902,282.851-849.5,265.5z"/>
	<circle id="control1" display="none" cx="-496.162" cy="-168.747" r="51.229"/>
</g>
<g id="Nation2_1_">
	
		<path id="background2_1_" fill-rule="evenodd" clip-rule="evenodd" fill="#E66A6D" stroke="#000000" stroke-width="4" stroke-miterlimit="10" d="
		M626.5,488.5c-1-2.666-2-5.334-3-8c-16.969-3.894-20.84-14.061-32-23c-1.333,0.333-2.667,0.667-4,1
		c-17.209,9.912-7.503,16.282-16,32c-2.2,4.07-6.574,5.54-9,11c-10.394,0.175-18.479,6.263-24,6c-9.352-0.445-24.305-11.263-33-14
		c-13.772-4.335-20.627,4.586-32,2c-11.869-2.699-15.791-11.45-24-17c-15.998-4.999-32.002-10-48-15
		c-4.482-15.309-15.138-11.347-22-22c-4.057-6.298-4.496-9.998-9-15c-113.322,0-226.678,0-340,0c-50.328,0-100.672,0-151,0
		c-3.333-3.666-6.667-7.334-10-11c-5.666,0-11.334,0-17,0c-8.666-4.333-17.334-8.667-26-13c-0.297-10.747-3.358-17.949-8-24
		c-26.684-7.878-11.697-21.092-22-36c-5.668-8.202-18.947-10.02-24-20c-3.268-6.455-1.01-13.785-6-18
		c-13.666-0.333-27.335-0.667-41-1c-28.759-6.569-54.706-19.358-78-32c-1.777-12.804-11.015-22.161-9-30
		c4.292-7.464,44.694-35.995,54-42c-0.271-12.512-5.5-10.5-12-16c13.214-15.989,1.337-23.435,9-38c4.78-9.086,28.77-28.493,37-37
		c-1.31-17.043,6.296-18.217,12-31c2-10.332,4-20.668,6-31c7.99-12.47,40.058-25.438,55-30c5.666,0,11.334,0,17,0
		c7.031-3.149,36.61-40.301,40-48c3.974-9.027,1.418-15.4,8-21c10.162-8.645,21.188-7.934,34-15c9.799-5.405,18.879-18.093,31-22
		c7.999,0,16.001,0,24,0c17.332-12.999,34.668-26.001,52-39c10.132-4.394,30.844-0.673,41-7c21.698-13.516,16.486-45.173,29-67
		c11.186-2.174,38.232-36.021,41-45c3.898-12.646,2.987-25.677,10-35c7.999-5,16.001-10,24-15c31.086-12.741,55.187,6.052,76,12
		c6.333,0,12.667,0,19,0c36.718,6.827,81.873,8.461,120,4c1,13.332,2,26.668,3,40c3.333,7.666,6.667,15.334,10,23
		c2.366,16.144-10.721,28.681-3,46c3.805,8.534,16.8,8.017,22,15c10.418,13.99,14.963,32.532,19,50c2.666,0.333,5.334,0.667,8,1
		c3.445,19.878,10.537,29.762,25,39c3.333,16.665,6.667,33.335,10,50c5,3.667,10,7.334,15,11c5.326,9.955,2.331,15.714,9,23
		c4.241,4.634,10.358,0.368,14,6c15.83,24.479,4.91,72.959,18,93c9.939,15.217,45.351,31.313,62,42
		c14.485,9.298,19.761,31.912,29,39c8.141,6.245,26.053,8.383,33,16c13.739,15.063,11,44.991,11,74
		c-0.333,66.993-0.667,134.007-1,201C641.834,487.833,634.166,488.167,626.5,488.5z"/>
	<g id="merson2_6">
		<path id="path2_6" fill="#EBEBEB" stroke="#000000" stroke-width="2" stroke-miterlimit="10" d="M387.94,150.637
			c0-3.43-9.443-33.75-11.737-41.96c-0.299-1.073-1.709-2.318-3.693-3.596c3.927-4.517,6.311-10.412,6.311-16.867
			c0-14.207-11.517-25.724-25.724-25.724c-14.206,0-25.723,11.517-25.723,25.724c0,6.528,2.436,12.483,6.442,17.019
			c-1.925,1.241-3.293,2.449-3.606,3.499c-0.99,3.309-11.212,38.64-11.212,41.905c-0.002,5.547,4.168,9.033,8.071,9.977
			c1.225,10.862,5.72,19.157,6.692,21.877c-6.277,4.732-6.277,9.629,0,9.604c17.201-0.069,18.831-4.114,18.831-4.114h0.497
			c0,0,1.475,4.044,18.985,4.044c9.365,0,6.38-5.488,0-9.534c1.357-2.204,5.86-10.918,7.075-21.933
			C382.549,159.557,387.94,156.142,387.94,150.637z"/>
		<polygon id="text_anchor_10_" fill="#EBEBEB" stroke="#6D6E71" stroke-miterlimit="10" points="356.386,121.99 340.386,135.99 
			360.386,143.99 		"/>
	</g>
	<g id="merson2_5">
		<path id="path2_5" fill="#EBEBEB" stroke="#000000" stroke-width="2" stroke-miterlimit="10" d="M307.94,150.637
			c0-3.43-9.443-33.75-11.737-41.96c-0.299-1.073-1.709-2.318-3.693-3.596c3.927-4.517,6.311-10.412,6.311-16.867
			c0-14.207-11.517-25.724-25.724-25.724c-14.206,0-25.723,11.517-25.723,25.724c0,6.528,2.436,12.483,6.442,17.019
			c-1.925,1.241-3.293,2.449-3.606,3.499c-0.99,3.309-11.212,38.64-11.212,41.905c-0.002,5.547,4.168,9.033,8.071,9.977
			c1.225,10.862,5.72,19.157,6.692,21.877c-6.277,4.732-6.277,9.629,0,9.604c17.201-0.069,18.831-4.114,18.831-4.114h0.497
			c0,0,1.475,4.044,18.985,4.044c9.365,0,6.38-5.488,0-9.534c1.357-2.204,5.86-10.918,7.075-21.933
			C302.549,159.557,307.94,156.142,307.94,150.637z"/>
		<polygon id="text_anchor_31_" fill="#EBEBEB" stroke="#6D6E71" stroke-miterlimit="10" points="276.386,121.99 260.386,135.99 
			280.386,143.99 		"/>
	</g>
	<g id="merson2_4_1_">
		<path id="path2_4" fill="#EBEBEB" stroke="#000000" stroke-width="2" stroke-miterlimit="10" d="M227.94,150.637
			c0-3.43-9.443-33.75-11.737-41.96c-0.299-1.073-1.709-2.318-3.693-3.596c3.927-4.517,6.311-10.412,6.311-16.867
			c0-14.207-11.517-25.724-25.724-25.724c-14.206,0-25.723,11.517-25.723,25.724c0,6.528,2.436,12.483,6.442,17.019
			c-1.925,1.241-3.293,2.449-3.606,3.499c-0.99,3.309-11.212,38.64-11.212,41.905c-0.002,5.547,4.168,9.033,8.071,9.977
			c1.225,10.862,5.72,19.157,6.692,21.877c-6.277,4.732-6.277,9.629,0,9.604c17.201-0.069,18.831-4.114,18.831-4.114h0.497
			c0,0,1.475,4.044,18.985,4.044c9.365,0,6.38-5.488,0-9.534c1.357-2.204,5.86-10.918,7.075-21.933
			C222.549,159.557,227.94,156.142,227.94,150.637z"/>
		<polygon id="text_anchor_13_" fill="#EBEBEB" stroke="#6D6E71" stroke-miterlimit="10" points="196.386,121.99 180.386,135.99 
			200.386,143.99 		"/>
	</g>
	<g id="merson2_3_1_">
		<path id="path2_3_2_" fill="#EBEBEB" stroke="#000000" stroke-width="2" stroke-miterlimit="10" d="M147.94,150.637
			c0-3.43-9.443-33.75-11.737-41.96c-0.299-1.073-1.709-2.318-3.693-3.596c3.927-4.517,6.311-10.412,6.311-16.867
			c0-14.207-11.517-25.724-25.724-25.724c-14.206,0-25.723,11.517-25.723,25.724c0,6.528,2.436,12.483,6.442,17.019
			c-1.925,1.241-3.293,2.449-3.606,3.499c-0.99,3.309-11.212,38.64-11.212,41.905c-0.002,5.547,4.168,9.033,8.071,9.977
			c1.225,10.862,5.72,19.157,6.692,21.877c-6.277,4.732-6.277,9.629,0,9.604c17.201-0.069,18.831-4.114,18.831-4.114h0.497
			c0,0,1.475,4.044,18.985,4.044c9.365,0,6.38-5.488,0-9.534c1.357-2.204,5.86-10.918,7.075-21.933
			C142.549,159.557,147.94,156.142,147.94,150.637z"/>
		<polygon id="text_anchor_26_" fill="#EBEBEB" stroke="#6D6E71" stroke-miterlimit="10" points="116.386,121.99 100.386,135.99 
			120.386,143.99 		"/>
	</g>
	<g id="merson2_2_1_">
		<path id="path2_2" fill="#EBEBEB" stroke="#000000" stroke-width="2" stroke-miterlimit="10" d="M67.94,150.637
			c0-3.43-9.443-33.75-11.737-41.96c-0.299-1.073-1.709-2.318-3.693-3.596c3.927-4.517,6.311-10.412,6.311-16.867
			c0-14.207-11.517-25.724-25.724-25.724c-14.206,0-25.723,11.517-25.723,25.724c0,6.528,2.436,12.483,6.442,17.019
			c-1.925,1.241-3.293,2.449-3.606,3.499c-0.99,3.309-11.212,38.64-11.212,41.905c-0.002,5.547,4.168,9.033,8.071,9.977
			c1.225,10.862,5.72,19.157,6.692,21.877c-6.277,4.732-6.277,9.629,0,9.604c17.201-0.069,18.831-4.114,18.831-4.114h0.497
			c0,0,1.475,4.044,18.985,4.044c9.365,0,6.38-5.488,0-9.534c1.357-2.204,5.86-10.918,7.075-21.933
			C62.549,159.557,67.94,156.142,67.94,150.637z"/>
		<polygon id="text_anchor_11_" fill="#EBEBEB" stroke="#6D6E71" stroke-miterlimit="10" points="36.386,121.99 20.386,135.99 
			40.386,143.99 		"/>
	</g>
	<g id="merson2_1_1_">
		<path id="path2_1_2_" fill="#EBEBEB" stroke="#000000" stroke-width="2" stroke-miterlimit="10" d="M-12.06,150.637
			c0-3.43-9.443-33.75-11.737-41.96c-0.299-1.073-1.709-2.318-3.693-3.596c3.927-4.517,6.311-10.412,6.311-16.867
			c0-14.207-11.517-25.724-25.724-25.724c-14.206,0-25.723,11.517-25.723,25.724c0,6.528,2.436,12.483,6.442,17.019
			c-1.925,1.241-3.293,2.449-3.606,3.499c-0.99,3.309-11.212,38.64-11.212,41.905c-0.002,5.547,4.168,9.033,8.071,9.977
			c1.225,10.862,5.72,19.157,6.692,21.877c-6.277,4.732-6.277,9.629,0,9.604c17.201-0.069,18.831-4.114,18.831-4.114h0.497
			c0,0,1.475,4.044,18.985,4.044c9.365,0,6.38-5.488,0-9.534c1.357-2.204,5.86-10.918,7.075-21.933
			C-17.451,159.557-12.06,156.142-12.06,150.637z"/>
		<polygon id="text_anchor_3_" fill="#EBEBEB" stroke="#6D6E71" stroke-miterlimit="10" points="-43.614,121.99 -59.614,135.99 
			-39.614,143.99 		"/>
	</g>
	<text id="UB" transform="matrix(1 0 0 1 -32.5815 244.4727)" font-family="'MyriadPro-Regular'" font-size="50">Upper Hugeopolis</text>
	<g id="Agents2">
		<polygon id="Nation2_m4_3" points="426.34,-13.167 432.5,-8.5 425.34,-6.5 		"/>
		<polygon id="Nation2_m4_2" points="361.386,-97.861 367.546,-93.194 360.386,-91.194 		"/>
		<polygon id="Nation2_m4_1" points="316.417,-185.167 322.577,-180.5 315.417,-178.5 		"/>
		<polygon id="Nation2_m3_3" points="174.226,-232.194 180.386,-227.527 173.226,-225.527 		"/>
		<polygon id="Nation2_m3_2" points="128.474,-146.194 134.634,-141.527 127.474,-139.527 		"/>
		<polygon id="Nation2_m3_1" points="27.806,-91.194 33.966,-86.527 26.806,-84.527 		"/>
		<polygon id="Nation2_m2_3" points="422.76,397.833 428.92,402.5 421.76,404.5 		"/>
		<polygon id="Nation2_m2_2" points="527.34,347.833 533.5,352.5 526.34,354.5 		"/>
		<polygon id="Nation2_m2_1" points="610.034,277.833 616.194,282.5 609.034,284.5 		"/>
		<polygon id="Nation2_m1_3" points="-42.194,364.833 -36.034,369.5 -43.194,371.5 		"/>
		<polygon id="Nation2_m1_2" points="-257.507,236.953 -251.347,241.62 -258.507,243.62 		"/>
		<polygon id="Nation2_m1_1" points="-150.66,300.833 -144.5,305.5 -151.66,307.5 		"/>
	</g>
	
		<path id="outline2" fill-rule="evenodd" clip-rule="evenodd" fill="none" stroke="#000000" stroke-width="8" stroke-miterlimit="10" d="
		M626.5,488.5c-1-2.666-2-5.334-3-8c-16.969-3.894-20.84-14.061-32-23c-1.333,0.333-2.667,0.667-4,1
		c-17.209,9.912-7.503,16.282-16,32c-2.2,4.07-6.574,5.54-9,11c-10.394,0.175-18.479,6.263-24,6c-9.352-0.445-24.305-11.263-33-14
		c-13.772-4.335-20.627,4.586-32,2c-11.869-2.699-15.791-11.45-24-17c-15.998-4.999-32.002-10-48-15
		c-4.482-15.309-15.138-11.347-22-22c-4.057-6.298-4.496-9.998-9-15c-113.322,0-226.678,0-340,0c-50.328,0-100.672,0-151,0
		c-3.333-3.666-6.667-7.334-10-11c-5.666,0-11.334,0-17,0c-8.666-4.333-17.334-8.667-26-13c-0.297-10.747-3.358-17.949-8-24
		c-26.684-7.878-11.697-21.092-22-36c-5.668-8.202-18.947-10.02-24-20c-3.268-6.455-1.01-13.785-6-18
		c-13.666-0.333-27.335-0.667-41-1c-28.759-6.569-54.706-19.358-78-32c-1.777-12.804-11.015-22.161-9-30
		c4.292-7.464,44.694-35.995,54-42c-0.271-12.512-5.5-10.5-12-16c13.214-15.989,1.337-23.435,9-38c4.78-9.086,28.77-28.493,37-37
		c-1.31-17.043,6.296-18.217,12-31c2-10.332,4-20.668,6-31c7.99-12.47,40.058-25.438,55-30c5.666,0,11.334,0,17,0
		c7.031-3.149,36.61-40.301,40-48c3.974-9.027,1.418-15.4,8-21c10.162-8.645,21.188-7.934,34-15c9.799-5.405,18.879-18.093,31-22
		c7.999,0,16.001,0,24,0c17.332-12.999,34.668-26.001,52-39c10.132-4.394,30.844-0.673,41-7c21.698-13.516,16.486-45.173,29-67
		c11.186-2.174,38.232-36.021,41-45c3.898-12.646,2.987-25.677,10-35c7.999-5,16.001-10,24-15c31.086-12.741,55.187,6.052,76,12
		c6.333,0,12.667,0,19,0c36.718,6.827,81.873,8.461,120,4c1,13.332,2,26.668,3,40c3.333,7.666,6.667,15.334,10,23
		c2.366,16.144-10.721,28.681-3,46c3.805,8.534,16.8,8.017,22,15c10.418,13.99,14.963,32.532,19,50c2.666,0.333,5.334,0.667,8,1
		c3.445,19.878,10.537,29.762,25,39c3.333,16.665,6.667,33.335,10,50c5,3.667,10,7.334,15,11c5.326,9.955,2.331,15.714,9,23
		c4.241,4.634,10.358,0.368,14,6c15.83,24.479,4.91,72.959,18,93c9.939,15.217,45.351,31.313,62,42
		c14.485,9.298,19.761,31.912,29,39c8.141,6.245,26.053,8.383,33,16c13.739,15.063,11,44.991,11,74
		c-0.333,66.993-0.667,134.007-1,201C641.834,487.833,634.166,488.167,626.5,488.5z"/>
	<circle id="control2" display="none" cx="151.94" cy="129.179" r="51.229"/>
</g>
<g id="Nation3_1_">
	
		<path id="background3" fill-rule="evenodd" clip-rule="evenodd" fill="#FF7321" stroke="#000000" stroke-width="4" stroke-miterlimit="10" d="
		M927.5-486.5c44.79-0.917,63.918,15.744,80,43c25.6,0.27,34.864,12.46,50,22c9.691,6.108,19.53,8.262,28,15
		c9.606,7.643,12.047,18.394,19,29c5.333,5.666,10.667,11.334,16,17c3,7.666,6,15.334,9,23c8.805,17.273,23.244,38.091,31,57
		c7.88,19.212,10.62,36.246,20,55c48.459-26.585,91.783-2.515,110,36c17.889,2.271,43.751,0.712,54,11
		c-1.226,9.848-5.027,16.047-3,27c4.41,2.182,5.13,3.504,8,7c-3.572,5.05-5.167,7.425-5,17c-20.905,6.998-13.665,28.457-26,43
		c-11.332,6.333-22.668,12.667-34,19c-3,3.667-6,7.334-9,11c-6.41,2.93-10.979,0.811-16,4c-8.492,5.394-12.448,18.28-20,23
		c-9.71,6.069-25.545-0.573-37-2c-4.807,4.48-8.729,14.662-14,18c-7.333,3.333-14.668,6.667-22,10c-1,4.333-2,8.667-3,13
		c-1.085,1.584-21.471,20.085-23,21c-9.666,0.333-19.334,0.667-29,1c-12.215,2.812-13.917,11.199-22,17
		c-6.333,2.667-12.667,5.333-19,8c-7.999,9.999-16.001,20.001-24,30c-5,3-10,6-15,9c-5,13.332-10,26.668-15,40
		c-9.332,4.333-18.668,8.667-28,13c-2,3-4,6-6,9c-7.333,3.333-14.668,6.667-22,10c-2,2.667-4,5.333-6,8c-5.666,0-11.334,0-17,0
		c-10.487,4.146-13.788,17.723-24,21c-6,0-12.001,0-18,0c-13.317,3.275-30.01,13.784-50,9c-12.938-3.097-18.174-17.392-39-13
		c-4.666,2-9.334,4-14,6c-8.666,0-17.334,0-26,0c-6.074,2.591-13.287,13.417-20,15c-6.037,1.423-11.063-3.301-18,0c-3,3-6,6-9,9
		c-8.163,2.28-24.422-4.678-36-2c-9.999,2.667-20.001,5.333-30,8c-10.824-27.257-24.673-21.297-44-37
		c-4.666-8.333-9.334-16.667-14-25c-9.398-10.138-21.739-12.347-33-21c-5.666-6.333-11.334-12.667-17-19
		c-7.908-4.831-21.175-5.371-27-15c-11.232-18.567,0.724-53.694-8-75c-4.666-7.999-9.334-16.001-14-24
		c-5.691-3.979-10.659-0.457-15-6c-3.671-4.688,0.083-10.963-3-17c-5.333-4-10.667-8-16-12c-6.966-10.211-6.201-39.701-12-52
		c-16.71-6.354-18.27-22.369-24-39c-2.333-0.333-4.667-0.667-7-1c-0.749-30.357-20.968-47.916-40-61c-0.917-6.899-4.851-11.956-3-21
		c2-8.333,4-16.667,6-25c-3.29-16.021-20.108-43.959-12-65c31.141-12.623,33.409-35.212,50-62c11.283-18.219,46.556-51.255,69-58
		c37.864-11.379,85.559,3.043,121-3c8.666,0,17.334,0,26,0c16.115-5.432,31.834-25.214,46-34c14.061-8.72,41.538-14.917,58-19
		c24.564-6.092,50.249,2.244,74,1C859.076-461.834,895.169-470.861,927.5-486.5z"/>
	<g id="merson3_5">
		<path id="path3_5_2_" fill="#EBEBEB" stroke="#000000" stroke-width="2" stroke-miterlimit="10" d="M989.62-145.402
			c0-3.43-9.443-33.75-11.737-41.96c-0.3-1.073-1.71-2.318-3.693-3.596c3.927-4.517,6.311-10.412,6.311-16.867
			c0-14.207-11.517-25.724-25.724-25.724s-25.724,11.517-25.724,25.724c0,6.528,2.437,12.483,6.442,17.019
			c-1.925,1.241-3.293,2.449-3.606,3.499c-0.989,3.309-11.212,38.64-11.212,41.905c-0.002,5.547,4.168,9.033,8.071,9.977
			c1.225,10.862,5.721,19.157,6.692,21.877c-6.277,4.732-6.277,9.629,0,9.604c17.2-0.069,18.831-4.114,18.831-4.114h0.496
			c0,0,1.475,4.044,18.986,4.044c9.364,0,6.379-5.488,0-9.534c1.357-2.204,5.859-10.918,7.074-21.933
			C984.229-136.482,989.62-139.897,989.62-145.402z"/>
		<polygon id="text_anchor_35_" fill="#EBEBEB" stroke="#6D6E71" stroke-miterlimit="10" points="958.065,-176.049 
			942.065,-162.049 962.065,-154.049 		"/>
	</g>
	<g id="merson3_4">
		<path id="path3_4_1_" fill="#EBEBEB" stroke="#000000" stroke-width="2" stroke-miterlimit="10" d="M909.62-145.402
			c0-3.43-9.443-33.75-11.737-41.96c-0.299-1.073-1.709-2.318-3.693-3.596c3.927-4.517,6.311-10.412,6.311-16.867
			c0-14.207-11.517-25.724-25.724-25.724c-14.206,0-25.723,11.517-25.723,25.724c0,6.528,2.436,12.483,6.442,17.019
			c-1.925,1.241-3.293,2.449-3.606,3.499c-0.99,3.309-11.212,38.64-11.212,41.905c-0.002,5.547,4.168,9.033,8.071,9.977
			c1.225,10.862,5.72,19.157,6.692,21.877c-6.277,4.732-6.277,9.629,0,9.604c17.201-0.069,18.831-4.114,18.831-4.114h0.497
			c0,0,1.475,4.044,18.985,4.044c9.365,0,6.38-5.488,0-9.534c1.357-2.204,5.86-10.918,7.075-21.933
			C904.229-136.482,909.62-139.897,909.62-145.402z"/>
		<polygon id="text_anchor_34_" fill="#EBEBEB" stroke="#6D6E71" stroke-miterlimit="10" points="878.066,-176.049 
			862.066,-162.049 882.066,-154.049 		"/>
	</g>
	<g id="merson3_3_1_">
		<path id="path3_3_1_" fill="#EBEBEB" stroke="#000000" stroke-width="2" stroke-miterlimit="10" d="M830.594-145.402
			c0-3.43-9.443-33.75-11.737-41.96c-0.299-1.073-1.709-2.318-3.693-3.596c3.927-4.517,6.311-10.412,6.311-16.867
			c0-14.207-11.517-25.724-25.724-25.724c-14.206,0-25.723,11.517-25.723,25.724c0,6.528,2.436,12.483,6.442,17.019
			c-1.925,1.241-3.293,2.449-3.606,3.499c-0.99,3.309-11.212,38.64-11.212,41.905c-0.002,5.547,4.168,9.033,8.071,9.977
			c1.225,10.862,5.72,19.157,6.692,21.877c-6.277,4.732-6.277,9.629,0,9.604c17.201-0.069,18.831-4.114,18.831-4.114h0.497
			c0,0,1.475,4.044,18.985,4.044c9.365,0,6.38-5.488,0-9.534c1.357-2.204,5.86-10.918,7.075-21.933
			C825.204-136.482,830.594-139.897,830.594-145.402z"/>
		<polygon id="text_anchor_32_" fill="#EBEBEB" stroke="#6D6E71" stroke-miterlimit="10" points="799.041,-176.049 
			783.041,-162.049 803.041,-154.049 		"/>
	</g>
	<g id="merson3_2_1_">
		<path id="path3_2_2_" fill="#EBEBEB" stroke="#000000" stroke-width="2" stroke-miterlimit="10" d="M750.594-145.402
			c0-3.43-9.443-33.75-11.737-41.96c-0.299-1.073-1.709-2.318-3.693-3.596c3.927-4.517,6.311-10.412,6.311-16.867
			c0-14.207-11.517-25.724-25.724-25.724c-14.206,0-25.723,11.517-25.723,25.724c0,6.528,2.436,12.483,6.442,17.019
			c-1.925,1.241-3.293,2.449-3.606,3.499c-0.99,3.309-11.212,38.64-11.212,41.905c-0.002,5.547,4.168,9.033,8.071,9.977
			c1.225,10.862,5.72,19.157,6.692,21.877c-6.277,4.732-6.277,9.629,0,9.604c17.201-0.069,18.831-4.114,18.831-4.114h0.497
			c0,0,1.475,4.044,18.985,4.044c9.365,0,6.38-5.488,0-9.534c1.357-2.204,5.86-10.918,7.075-21.933
			C745.204-136.482,750.594-139.897,750.594-145.402z"/>
		<polygon id="text_anchor_25_" fill="#EBEBEB" stroke="#6D6E71" stroke-miterlimit="10" points="719.041,-176.049 
			703.041,-162.049 723.041,-154.049 		"/>
	</g>
	<g id="merson3_1_1_">
		<path id="path3_1_1_" fill="#EBEBEB" stroke="#000000" stroke-width="2" stroke-miterlimit="10" d="M670.594-145.402
			c0-3.43-9.443-33.75-11.737-41.96c-0.299-1.073-1.709-2.318-3.693-3.596c3.927-4.517,6.311-10.412,6.311-16.867
			c0-14.207-11.517-25.724-25.724-25.724c-14.206,0-25.723,11.517-25.723,25.724c0,6.528,2.436,12.483,6.442,17.019
			c-1.925,1.241-3.293,2.449-3.606,3.499c-0.99,3.309-11.212,38.64-11.212,41.905c-0.002,5.547,4.168,9.033,8.071,9.977
			c1.225,10.862,5.72,19.157,6.692,21.877c-6.277,4.732-6.277,9.629,0,9.604c17.201-0.069,18.831-4.114,18.831-4.114h0.497
			c0,0,1.475,4.044,18.985,4.044c9.365,0,6.38-5.488,0-9.534c1.357-2.204,5.86-10.918,7.075-21.933
			C665.204-136.482,670.594-139.897,670.594-145.402z"/>
		<polygon id="text_anchor_9_" fill="#EBEBEB" stroke="#6D6E71" stroke-miterlimit="10" points="639.041,-176.049 623.041,-162.049 
			643.041,-154.049 		"/>
	</g>
	<text id="Th" transform="matrix(1 0 0 1 660.5874 -54.6841)" font-family="'MyriadPro-Regular'" font-size="50">North Bigton</text>
	<g id="Agents3">
		<polygon id="Nation3_m4_3" points="1091.5,-283.167 1097.66,-278.5 1090.5,-276.5 		"/>
		<polygon id="Nation3_m4_2" points="1025.5,-380.167 1031.66,-375.5 1024.5,-373.5 		"/>
		<polygon id="Nation3_m4_1" points="940.34,-440 946.5,-435.333 939.34,-433.333 		"/>
		<polygon id="Nation3_m3_3" points="758.583,123.167 764.744,127.833 757.583,129.833 		"/>
		<polygon id="Nation3_m3_2" points="657.34,104.667 663.5,109.334 656.34,111.334 		"/>
		<polygon id="Nation3_m3_1" points="579.5,53.833 585.66,58.5 578.5,60.5 		"/>
		<polygon id="Nation3_m2_3" points="1095.08,-38.167 1101.24,-33.5 1094.08,-31.5 		"/>
		<polygon id="Nation3_m2_2" points="1175.34,-90.167 1181.5,-85.5 1174.34,-83.5 		"/>
		<polygon id="Nation3_m2_1" points="1245.34,-140.167 1251.5,-135.5 1244.34,-133.5 		"/>
		<polygon id="Nation3_m1_3" points="413.34,-245.167 419.5,-240.5 412.34,-238.5 		"/>
		<polygon id="Nation3_m1_2" points="464.34,-322.04 470.5,-317.373 463.34,-315.373 		"/>
		<polygon id="Nation3_m1_1" points="540.34,-380.167 546.5,-375.5 539.34,-373.5 		"/>
	</g>
	
		<path id="outline3" fill-rule="evenodd" clip-rule="evenodd" fill="none" stroke="#000000" stroke-width="8" stroke-miterlimit="10" d="
		M927.5-486.5c44.79-0.917,63.918,15.744,80,43c25.6,0.27,34.864,12.46,50,22c9.691,6.108,19.53,8.262,28,15
		c9.606,7.643,12.047,18.394,19,29c5.333,5.666,10.667,11.334,16,17c3,7.666,6,15.334,9,23c8.805,17.273,23.244,38.091,31,57
		c7.88,19.212,10.62,36.246,20,55c48.459-26.585,91.783-2.515,110,36c17.889,2.271,43.751,0.712,54,11
		c-1.226,9.848-5.027,16.047-3,27c4.41,2.182,5.13,3.504,8,7c-3.572,5.05-5.167,7.425-5,17c-20.905,6.998-13.665,28.457-26,43
		c-11.332,6.333-22.668,12.667-34,19c-3,3.667-6,7.334-9,11c-6.41,2.93-10.979,0.811-16,4c-8.492,5.394-12.448,18.28-20,23
		c-9.71,6.069-25.545-0.573-37-2c-4.807,4.48-8.729,14.662-14,18c-7.333,3.333-14.668,6.667-22,10c-1,4.333-2,8.667-3,13
		c-1.085,1.584-21.471,20.085-23,21c-9.666,0.333-19.334,0.667-29,1c-12.215,2.812-13.917,11.199-22,17
		c-6.333,2.667-12.667,5.333-19,8c-7.999,9.999-16.001,20.001-24,30c-5,3-10,6-15,9c-5,13.332-10,26.668-15,40
		c-9.332,4.333-18.668,8.667-28,13c-2,3-4,6-6,9c-7.333,3.333-14.668,6.667-22,10c-2,2.667-4,5.333-6,8c-5.666,0-11.334,0-17,0
		c-10.487,4.146-13.788,17.723-24,21c-6,0-12.001,0-18,0c-13.317,3.275-30.01,13.784-50,9c-12.938-3.097-18.174-17.392-39-13
		c-4.666,2-9.334,4-14,6c-8.666,0-17.334,0-26,0c-6.074,2.591-13.287,13.417-20,15c-6.037,1.423-11.063-3.301-18,0c-3,3-6,6-9,9
		c-8.163,2.28-24.422-4.678-36-2c-9.999,2.667-20.001,5.333-30,8c-10.824-27.257-24.673-21.297-44-37
		c-4.666-8.333-9.334-16.667-14-25c-9.398-10.138-21.739-12.347-33-21c-5.666-6.333-11.334-12.667-17-19
		c-7.908-4.831-21.175-5.371-27-15c-11.232-18.567,0.724-53.694-8-75c-4.666-7.999-9.334-16.001-14-24
		c-5.691-3.979-10.659-0.457-15-6c-3.671-4.688,0.083-10.963-3-17c-5.333-4-10.667-8-16-12c-6.966-10.211-6.201-39.701-12-52
		c-16.71-6.354-18.27-22.369-24-39c-2.333-0.333-4.667-0.667-7-1c-0.749-30.357-20.968-47.916-40-61c-0.917-6.899-4.851-11.956-3-21
		c2-8.333,4-16.667,6-25c-3.29-16.021-20.108-43.959-12-65c31.141-12.623,33.409-35.212,50-62c11.283-18.219,46.556-51.255,69-58
		c37.864-11.379,85.559,3.043,121-3c8.666,0,17.334,0,26,0c16.115-5.432,31.834-25.214,46-34c14.061-8.72,41.538-14.917,58-19
		c24.564-6.092,50.249,2.244,74,1C859.076-461.834,895.169-470.861,927.5-486.5z"/>
	<circle id="control3" display="none" cx="796.123" cy="-168.747" r="51.229"/>
</g>
<g id="Nation4_1_">
	
		<path id="background4" fill-rule="evenodd" clip-rule="evenodd" fill="#73D7DE" stroke="#000000" stroke-width="4" stroke-miterlimit="10" d="
		M1115.5,652.5c-0.333,1.666-0.667,3.334-1,5c-0.667,1.333-1.334,2.667-2,4c-36.77,6.397-23.033,20.319-44,31
		c-40.823,11.339-83.741-41.795-105-56c-1.602-1.07-77-18-77-18c-6.249,1.378-21.358,9.224-33,4c-6.302-2.827-4.717-8.479-9-13
		c-4.92-5.192-20.464-4.688-26-9c-9.57-7.455-11.485-23.297-17-35c-12.237-2.333-14.373-10.834-23-16
		c-14.332-5.666-28.668-11.334-43-17c-16.229-12.02-28.6-30.66-51-37c-8.297-2.349-19.563-0.411-26-2c-8.642-12.527-5-43.495-5-64
		c0-45.329,0-90.671,0-136c0-17.227-4.021-45.694,2-59c9.666-2.667,19.334-5.333,29-8c12.665,0.333,25.335,0.667,38,1
		c2.333-2.667,4.667-5.333,7-8c7.418-3.968,13.437,1.635,20-1c6.06-2.433,12.974-11.27,19-14c7.332,0,14.667,0,22,0
		c5.666-2,11.334-4,17-6c25.93-5.44,31.247,21.455,62,13c8.999-3,18.001-6,27-9c6.666-0.333,13.334-0.667,20-1
		c9.137-4.564,12.556-15.748,22-20c5.666,0,11.334,0,17,0c8.292-3.212,29.366-23.567,37-29c8.482-6.038,21.779-5.852,28-14
		c4.333-12.332,8.667-24.668,13-37c5.666-3.666,11.334-7.333,17-11c9.165-7.438,14.184-23.378,24-30c5.666-2,11.334-4,17-6
		c7.698-4.842,8.857-14.315,20-17c8.999,0,18.001,0,27,0c9.332-7.666,18.668-15.334,28-23c3.212-4.684,2.236-12.901,7-16
		c13.717-8.925,20.795-9.635,29-24c15.7,2.084,25.688,4.429,40,1c15.129-30.608,70.304-38.758,83-62
		c11.076-20.276-0.166-27.684,23-39c0.512-13.101,6.141-17.805,1-28c-4.526-0.859-2.976,0.116-5-3c-11.8-34.262,53.651-52.885,85-40
		c30.035,12.345,35.897,31.694,47,64c7.666,15.999,15.334,32.001,23,48c7.332-0.667,14.667-1.333,22-2
		c23.461,13.493,40.981,35.177,62,51c17.998,12.999,36.002,26.001,54,39c14.686,10.963,37.686,14.757,42,36c0,11.332,0,22.668,0,34
		c4.177,19.698,43.813,88.625,4,102c0.139,15.883-0.359,21.115-10,27c6.32,5.432,7.852,13.43,6,22
		c-14.132,9.787-25.303,20.994-36,34c-5.429,6.6-5.528,15.848-11,22c-6.999,4.666-14.001,9.334-21,14c0.333,1,0.667,2,1,3
		c8.999,6,18.001,12,27,18c5.35,7.637,0.966,16.702,4,28c4.1,15.267,30.758,47.68,28,66c-6.541,8.587-14.275,5.449-23,12
		c-7.723,5.798-3.537,24.031-12,30c-4.17,3.683-11.937,4.232-20,4c-5.087,19.283-21.583,34.461-38,43
		c2.798,7.989,19.616,24.177,15,30c-10.015,7.976-26.722,11.03-36,20c-6.828,6.601-3.868,21.425-12,27c-4,0.667-8,1.333-12,2
		c-4.757,2.58-6.955,8.799-14,7c-6.435-1.411-6.834-3.566-9-9c-1,0.667-2,1.333-3,2c-7.753,16.881-27.791,5.459-44,8
		c-6.535,1.024-22.546,4.114-30,8c-2.333,3-4.667,6-7,9c-7.46,3.604-20.599-1.937-30,2c-1.055,0.441-17.601,7.928-19,9
		c-5.863,4.492-3.1,16.299-13,18c-3.666-1-7.334-2-11-3c-4.863,12.671-12.721,11.937-24,13c-2.458,10.857-27.588,25.229-42,23
		c-23.068-3.567-41.74-9.116-64-14c-10.666,1.333-21.334,2.667-32,4C1169.229,656.59,1137.129,654.052,1115.5,652.5z"/>
	<g id="merson4_5">
		<path id="path4_5" fill="#EBEBEB" stroke="#000000" stroke-width="2" stroke-miterlimit="10" d="M1442.486,310.146
			c0-14.552-7.578-27.071-11.737-41.96c-0.3-1.073-1.71-2.318-3.693-3.596c3.927-4.517,6.311-10.412,6.311-16.867
			c0-14.207-11.517-25.724-25.724-25.724s-25.724,11.517-25.724,25.724c0,6.528,2.437,12.483,6.442,17.019
			c-1.925,1.241-3.293,2.449-3.606,3.499c-0.989,3.309-11.212,38.64-11.212,41.905c-0.002,5.547,4.168,9.033,8.07,9.977
			c1.225,10.862,5.721,19.157,6.692,21.877c-6.277,4.732-6.277,9.629,0,9.604c17.2-0.069,18.831-4.114,18.831-4.114h0.496
			c0,0,1.475,4.044,18.986,4.044c9.364,0,6.379-5.488,0-9.534c1.357-2.204,5.859-10.918,7.074-21.933
			C1437.096,319.066,1442.486,315.652,1442.486,310.146z"/>
		<polygon id="text_anchor_24_" fill="#EBEBEB" stroke="#6D6E71" stroke-miterlimit="10" points="1412,275.604 1396,289.604 
			1416,297.604 		"/>
	</g>
	<g id="merson4_4">
		<path id="path4_4" fill="#EBEBEB" stroke="#000000" stroke-width="2" stroke-miterlimit="10" d="M1363.472,310.146
			c0-14.552-7.577-27.071-11.737-41.96c-0.299-1.073-1.709-2.318-3.693-3.596c3.928-4.517,6.311-10.412,6.311-16.867
			c0-14.207-11.517-25.724-25.724-25.724c-14.206,0-25.724,11.517-25.724,25.724c0,6.528,2.437,12.483,6.443,17.019
			c-1.926,1.241-3.293,2.449-3.607,3.499c-0.989,3.309-11.211,38.64-11.212,41.905c-0.002,5.547,4.168,9.033,8.071,9.977
			c1.225,10.862,5.72,19.157,6.691,21.877c-6.277,4.732-6.277,9.629,0,9.604c17.201-0.069,18.832-4.114,18.832-4.114h0.496
			c0,0,1.475,4.044,18.985,4.044c9.364,0,6.38-5.488,0-9.534c1.357-2.204,5.86-10.918,7.075-21.933
			C1358.081,319.066,1363.472,315.652,1363.472,310.146z"/>
		<polygon id="text_anchor_36_" fill="#EBEBEB" stroke="#6D6E71" stroke-miterlimit="10" points="1335,275.604 1319,289.604 
			1339,297.604 		"/>
	</g>
	<g id="merson4_3">
		<path id="path4_3" fill="#EBEBEB" stroke="#000000" stroke-width="2" stroke-miterlimit="10" d="M1282.486,310.146
			c0-14.552-7.578-27.071-11.737-41.96c-0.3-1.073-1.71-2.318-3.693-3.596c3.927-4.517,6.311-10.412,6.311-16.867
			c0-14.207-11.517-25.724-25.724-25.724s-25.724,11.517-25.724,25.724c0,6.528,2.437,12.483,6.442,17.019
			c-1.925,1.241-3.293,2.449-3.606,3.499c-0.989,3.309-11.212,38.64-11.212,41.905c-0.002,5.547,4.168,9.033,8.07,9.977
			c1.225,10.862,5.721,19.157,6.692,21.877c-6.277,4.732-6.277,9.629,0,9.604c17.2-0.069,18.831-4.114,18.831-4.114h0.496
			c0,0,1.475,4.044,18.986,4.044c9.364,0,6.379-5.488,0-9.534c1.357-2.204,5.859-10.918,7.074-21.933
			C1277.096,319.066,1282.486,315.652,1282.486,310.146z"/>
		<polygon id="text_anchor_12_" fill="#EBEBEB" stroke="#6D6E71" stroke-miterlimit="10" points="1252,275.604 1236,289.604 
			1256,297.604 		"/>
	</g>
	<g id="merson4_2_1_">
		<path id="path4_2_1_" fill="#EBEBEB" stroke="#000000" stroke-width="2" stroke-miterlimit="10" d="M1203.472,310.146
			c0-14.552-7.577-27.071-11.737-41.96c-0.299-1.073-1.709-2.318-3.693-3.596c3.928-4.517,6.311-10.412,6.311-16.867
			c0-14.207-11.517-25.724-25.724-25.724c-14.206,0-25.724,11.517-25.724,25.724c0,6.528,2.437,12.483,6.443,17.019
			c-1.926,1.241-3.293,2.449-3.607,3.499c-0.989,3.309-11.211,38.64-11.212,41.905c-0.002,5.547,4.168,9.033,8.071,9.977
			c1.225,10.862,5.72,19.157,6.691,21.877c-6.277,4.732-6.277,9.629,0,9.604c17.201-0.069,18.832-4.114,18.832-4.114h0.496
			c0,0,1.475,4.044,18.985,4.044c9.364,0,6.38-5.488,0-9.534c1.357-2.204,5.86-10.918,7.075-21.933
			C1198.081,319.066,1203.472,315.652,1203.472,310.146z"/>
		<polygon id="text_anchor_28_" fill="#EBEBEB" stroke="#6D6E71" stroke-miterlimit="10" points="1175,275.604 1159,289.604 
			1179,297.604 		"/>
	</g>
	<g id="merson4_1_1_">
		<path id="path4_1" fill="#EBEBEB" stroke="#000000" stroke-width="2" stroke-miterlimit="10" d="M1125.554,310.146
			c0-14.552-7.577-27.071-11.737-41.96c-0.299-1.073-1.709-2.318-3.693-3.596c3.928-4.517,6.311-10.412,6.311-16.867
			c0-14.207-11.517-25.724-25.724-25.724c-14.206,0-25.724,11.517-25.724,25.724c0,6.528,2.437,12.483,6.443,17.019
			c-1.926,1.241-3.293,2.449-3.607,3.499c-4.506,15.062-11.21,27.392-11.212,41.905c-0.002,5.547,4.168,9.033,8.071,9.977
			c1.225,10.862,5.72,19.157,6.691,21.877c-6.277,4.732-6.277,9.629,0,9.604c17.201-0.069,18.832-4.114,18.832-4.114h0.496
			c0,0,1.475,4.044,18.985,4.044c9.364,0,6.38-5.488,0-9.534c1.357-2.204,5.86-10.918,7.075-21.933
			C1120.163,319.066,1125.554,315.652,1125.554,310.146z"/>
		<polygon id="text_anchor_19_" fill="#EBEBEB" stroke="#6D6E71" stroke-miterlimit="10" points="1095,275.604 1079,289.604 
			1099,297.604 		"/>
	</g>
	<text id="SB" transform="matrix(1 0 0 1 1112.4766 397.5752)" font-family="'MyriadPro-Regular'" font-size="50">South Bigton</text>
	<g id="Agents4">
		<polygon id="Nation4_m4_3" points="1594.899,62.49 1601.06,67.157 1593.899,69.157 		"/>
		<polygon id="Nation4_m4_2" points="1509.403,-3.333 1515.563,1.333 1508.403,3.333 		"/>
		<polygon id="Nation4_m4_1" points="1413.42,-53.318 1419.58,-48.651 1412.42,-46.651 		"/>
		<polygon id="Nation4_m3_3" points="1166.42,591.5 1172.58,596.167 1165.42,598.167 		"/>
		<polygon id="Nation4_m3_2" points="1031.539,564.322 1037.699,568.989 1030.539,570.989 		"/>
		<polygon id="Nation4_m3_1" points="903.986,527.773 910.146,532.44 902.986,534.44 		"/>
		<polygon id="Nation4_m2_3" points="1405.434,524.439 1411.594,529.106 1404.434,531.106 		"/>
		<polygon id="Nation4_m2_2" points="1512.983,474.563 1519.144,479.23 1511.983,481.23 		"/>
		<polygon id="Nation4_m2_1" points="1591.319,387.461 1597.479,392.128 1590.319,394.128 		"/>
		<polygon id="Nation4_m1_3" points="689.92,401.833 696.08,406.5 688.92,408.5 		"/>
		<polygon id="Nation4_m1_2" points="753.34,294.271 759.5,298.938 752.34,300.938 		"/>
		<polygon id="Nation4_m1_1" points="868.34,243.404 874.5,248.071 867.34,250.071 		"/>
	</g>
	
		<path id="outline4" fill-rule="evenodd" clip-rule="evenodd" fill="none" stroke="#000000" stroke-width="8" stroke-miterlimit="10" d="
		M1115.5,652.5c-0.333,1.666-0.667,3.334-1,5c-0.667,1.333-1.334,2.667-2,4c-36.77,6.397-23.033,20.319-44,31
		c-40.823,11.339-83.741-41.795-105-56c-1.602-1.07-77-18-77-18c-6.249,1.378-21.358,9.224-33,4c-6.302-2.827-4.717-8.479-9-13
		c-4.92-5.192-20.464-4.688-26-9c-9.57-7.455-11.485-23.297-17-35c-12.237-2.333-14.373-10.834-23-16
		c-14.332-5.666-28.668-11.334-43-17c-16.229-12.02-28.6-30.66-51-37c-8.297-2.349-19.563-0.411-26-2c-8.642-12.527-5-43.495-5-64
		c0-45.329,0-90.671,0-136c0-17.227-4.021-45.694,2-59c9.666-2.667,19.334-5.333,29-8c12.665,0.333,25.335,0.667,38,1
		c2.333-2.667,4.667-5.333,7-8c7.418-3.968,13.437,1.635,20-1c6.06-2.433,12.974-11.27,19-14c7.332,0,14.667,0,22,0
		c5.666-2,11.334-4,17-6c25.93-5.44,31.247,21.455,62,13c8.999-3,18.001-6,27-9c6.666-0.333,13.334-0.667,20-1
		c9.137-4.564,12.556-15.748,22-20c5.666,0,11.334,0,17,0c8.292-3.212,29.366-23.567,37-29c8.482-6.038,21.779-5.852,28-14
		c4.333-12.332,8.667-24.668,13-37c5.666-3.666,11.334-7.333,17-11c9.165-7.438,14.184-23.378,24-30c5.666-2,11.334-4,17-6
		c7.698-4.842,8.857-14.315,20-17c8.999,0,18.001,0,27,0c9.332-7.666,18.668-15.334,28-23c3.212-4.684,2.236-12.901,7-16
		c13.717-8.925,20.795-9.635,29-24c15.7,2.084,25.688,4.429,40,1c15.129-30.608,70.304-38.758,83-62
		c11.076-20.276-0.166-27.684,23-39c0.512-13.101,6.141-17.805,1-28c-4.526-0.859-2.976,0.116-5-3c-11.8-34.262,53.651-52.885,85-40
		c30.035,12.345,35.897,31.694,47,64c7.666,15.999,15.334,32.001,23,48c7.332-0.667,14.667-1.333,22-2
		c23.461,13.493,40.981,35.177,62,51c17.998,12.999,36.002,26.001,54,39c14.686,10.963,37.686,14.757,42,36c0,11.332,0,22.668,0,34
		c4.177,19.698,43.813,88.625,4,102c0.139,15.883-0.359,21.115-10,27c6.32,5.432,7.852,13.43,6,22
		c-14.132,9.787-25.303,20.994-36,34c-5.429,6.6-5.528,15.848-11,22c-6.999,4.666-14.001,9.334-21,14c0.333,1,0.667,2,1,3
		c8.999,6,18.001,12,27,18c5.35,7.637,0.966,16.702,4,28c4.1,15.267,30.758,47.68,28,66c-6.541,8.587-14.275,5.449-23,12
		c-7.723,5.798-3.537,24.031-12,30c-4.17,3.683-11.937,4.232-20,4c-5.087,19.283-21.583,34.461-38,43
		c2.798,7.989,19.616,24.177,15,30c-10.015,7.976-26.722,11.03-36,20c-6.828,6.601-3.868,21.425-12,27c-4,0.667-8,1.333-12,2
		c-4.757,2.58-6.955,8.799-14,7c-6.435-1.411-6.834-3.566-9-9c-1,0.667-2,1.333-3,2c-7.753,16.881-27.791,5.459-44,8
		c-6.535,1.024-22.546,4.114-30,8c-2.333,3-4.667,6-7,9c-7.46,3.604-20.599-1.937-30,2c-1.055,0.441-17.601,7.928-19,9
		c-5.863,4.492-3.1,16.299-13,18c-3.666-1-7.334-2-11-3c-4.863,12.671-12.721,11.937-24,13c-2.458,10.857-27.588,25.229-42,23
		c-23.068-3.567-41.74-9.116-64-14c-10.666,1.333-21.334,2.667-32,4C1169.229,656.59,1137.129,654.052,1115.5,652.5z"/>
	<circle id="control4" display="none" cx="1249" cy="286.802" r="51.229"/>
</g>
<g id="Nation5_1_">
	
		<path id="background5" fill-rule="evenodd" clip-rule="evenodd" fill="#BF0000" stroke="#000000" stroke-width="4" stroke-miterlimit="10" d="
		M-117.5,430.5c162.65,0.333,325.35,0.667,488,1c10.479,15.758,26.232,35.054,45,42c10.991,4.068,21.667,2.676,31,8
		c12.802,7.303,14.764,17.761,37,18c1.727,9.355,16.375,22.163,23,27c4.333,1.666,8.667,3.334,13,5c18.434,20.535,6.95,45.772-4,66
		c4.333,8.999,8.667,18.001,13,27c1.333,7.999,2.667,16.001,4,24c22.717,9.774,15.424,34.027,29,45c3.333,1,6.667,2,10,3
		c7.956,5.534,27.559,25.277,36,28c7.241,2.336,13.052-1.937,20,1c12.818,5.417,23.877,14.493,41,17c2.84-3.894,8.769-7.692,14-6
		c25.094,3.601,66.865,29.366,69,59c-5.894,8.914-9.721,14.521-18,21c3.619,7.367,9.982,8.109,14,14c3.21,4.706,0.486,9.664,3,16
		c8.664,21.841,35.408,48.066,16,77c-8.279,12.343-18.068,10.324-30,18c-2.333,4-4.667,8-7,12c-4.666,1-9.334,2-14,3
		c-6.081,3.501-9.628,23.722-13,31c3.08,5.629,7.908,7.397,11,12c3.738,5.565,0.39,9.528,2,16c3.333,5.333,6.667,10.667,10,16
		c1.575,4.629-2.816,36.487-6,41c-4.666,2.666-9.334,5.334-14,8c-3.666,5-7.334,10.001-11,15c7.175,9.937,12.296,19.811,15,32
		c13.228,3.842,28.251,2.162,40,10c1.336,5.1,1.777,8.21,1,14c19.655-2.406,54.277,33.778,32,46c-1,0.333-2,0.667-3,1
		c-10.097-7.299-16.44-15.806-27-22c-4.221,2.92-5.678,4.597-13,5c-3.333-2.666-6.667-5.334-10-8c-5.199,2.301-6.267,4.468-14,5
		c-8.792-4.146-19.106-7.46-22-18c-18.233,4.078-47.013,4.13-51-15c-11.609-1.303-21.938-0.819-31-5
		c-33.058,12.201-28.716,26.902-79,27c-2.146,11.948-12.249,19.042-19,27c4.767,9.091,5.067,21.713,0,29
		c-14.665-0.667-29.335-1.333-44-2c-6.819-2.859-12.355-11.066-22-13c-6.333,0.333-12.667,0.667-19,1
		c-23.769-4.336-58.201-8.435-77-20c-9.814-6.038-35.721-26.565-44-35c-4-5.333-8-10.667-12-16c-17.856-9.275-47.361-1.08-67-13
		c-19.357-11.749-33.419-37.815-45-57c-1.667-4.666-3.333-9.334-5-14c-6.333,0.667-12.667,1.333-19,2
		c-1.755,10.189-8.063,19.111-16,23c-14.213,6.964-90.984,5.031-101,0c-8.564-4.302-10.602-15.139-18-20c-6-2.666-12-5.334-18-8
		c-11.332-3-22.668-6-34-9c-3.347-5.076-2.455-19.368-1-26c8.517-4.725,17.307-14.4,23-22c0.392-26.502-9.816-33.982-14-57
		c-10.479,0.346-25.094-2.446-29-9c-6.364-15.713-12.563-33.927-23-46c5.87-13.081,12.041-21.278,12-42
		c-6.251-5.147-19.479-15.882-22-24c-2.667-8.587-0.808-12.979-5-19c-5.914-8.494-14.942-6.634-23-13
		c-6.578-5.197-21.678-24.886-24-34c-5.392-21.168,14.093-39.107,7-67c-3-1-6-2-9-3c0.51-17.885,12.381-17.771,16-30
		c-0.667-14.332-1.333-28.668-2-43c5.333-7.333,10.667-14.667,16-22c11.039-24.802,10.038-78.608-5-100c-5-3.666-10-7.334-15-11
		c0-12.999,0-26.001,0-39C-122.833,433.834-120.167,432.166-117.5,430.5z"/>
	<g id="merson5_3_1_">
		<path id="path5_3_1_" fill="#EBEBEB" stroke="#000000" stroke-width="2" stroke-miterlimit="10" d="M387.712,777.542
			c0-14.552-7.577-27.071-11.737-41.96c-0.299-1.073-1.709-2.318-3.693-3.596c3.927-4.517,6.311-10.412,6.311-16.867
			c0-14.207-11.517-25.724-25.724-25.724c-14.206,0-25.723,11.517-25.723,25.724c0,6.528,2.436,12.483,6.442,17.019
			c-1.925,1.241-3.293,2.449-3.606,3.499c-0.99,3.309-11.212,38.64-11.212,41.905c-0.002,5.547,4.168,9.033,8.071,9.977
			c1.225,10.862,5.72,19.157,6.692,21.877c-6.277,4.732-6.277,9.629,0,9.604c17.201-0.069,18.831-4.114,18.831-4.114h0.497
			c0,0,1.475,4.044,18.985,4.044c9.365,0,6.38-5.488,0-9.534c1.357-2.204,5.86-10.918,7.075-21.933
			C382.321,786.462,387.712,783.047,387.712,777.542z"/>
		<polygon id="text_anchor_29_" fill="#EBEBEB" stroke="#6D6E71" stroke-miterlimit="10" points="358.632,746.198 342.632,760.198 
			362.632,768.198 		"/>
	</g>
	<g id="merson5_2_1_">
		<path id="path5_2_1_" fill="#EBEBEB" stroke="#000000" stroke-width="2" stroke-miterlimit="10" d="M307.712,777.542
			c0-14.552-7.577-27.071-11.737-41.96c-0.299-1.073-1.709-2.318-3.693-3.596c3.927-4.517,6.311-10.412,6.311-16.867
			c0-14.207-11.517-25.724-25.724-25.724c-14.206,0-25.723,11.517-25.723,25.724c0,6.528,2.436,12.483,6.442,17.019
			c-1.925,1.241-3.293,2.449-3.606,3.499c-0.99,3.309-11.212,38.64-11.212,41.905c-0.002,5.547,4.168,9.033,8.071,9.977
			c1.225,10.862,5.72,19.157,6.692,21.877c-6.277,4.732-6.277,9.629,0,9.604c17.201-0.069,18.831-4.114,18.831-4.114h0.497
			c0,0,1.475,4.044,18.985,4.044c9.365,0,6.38-5.488,0-9.534c1.357-2.204,5.86-10.918,7.075-21.933
			C302.321,786.462,307.712,783.047,307.712,777.542z"/>
		<polygon id="text_anchor_7_" fill="#EBEBEB" stroke="#6D6E71" stroke-miterlimit="10" points="277.492,747.553 261.492,761.553 
			281.492,769.553 		"/>
	</g>
	<g id="merson5_1_1_">
		<path id="path5_1_1_" fill="#EBEBEB" stroke="#000000" stroke-width="2" stroke-miterlimit="10" d="M227.712,777.542
			c0-14.552-7.577-27.071-11.737-41.96c-0.299-1.073-1.709-2.318-3.693-3.596c3.927-4.517,6.311-10.412,6.311-16.867
			c0-14.207-11.517-25.724-25.724-25.724c-14.206,0-25.723,11.517-25.723,25.724c0,6.528,2.436,12.483,6.442,17.019
			c-1.925,1.241-3.293,2.449-3.606,3.499c-0.99,3.309-11.212,38.64-11.212,41.905c-0.002,5.547,4.168,9.033,8.071,9.977
			c1.225,10.862,5.72,19.157,6.692,21.877c-6.277,4.732-6.277,9.629,0,9.604c17.201-0.069,18.831-4.114,18.831-4.114h0.497
			c0,0,1.475,4.044,18.985,4.044c9.365,0,6.38-5.488,0-9.534c1.357-2.204,5.86-10.918,7.075-21.933
			C222.321,786.462,227.712,783.047,227.712,777.542z"/>
		<polygon id="text_anchor_14_" fill="#EBEBEB" stroke="#6D6E71" stroke-miterlimit="10" points="196.769,746.553 180.769,760.553 
			200.769,768.553 		"/>
	</g>
	<text id="CC" transform="matrix(1 0 0 1 154.6929 864.1719)" font-family="'MyriadPro-Regular'" font-size="50">Capital City</text>
	<g id="Agents5">
		<polygon id="Nation5_m4_3" points="499.34,676.833 505.5,681.5 498.34,683.5 		"/>
		<polygon id="Nation5_m4_2" points="452.362,560.989 458.522,565.656 451.362,567.656 		"/>
		<polygon id="Nation5_m4_1" points="360.052,492.833 366.212,497.5 359.052,499.5 		"/>
		<polygon id="Nation5_m3_3" points="301.552,1053.499 307.712,1058.167 300.552,1060.167 		"/>
		<polygon id="Nation5_m3_2" points="188.188,991.166 194.349,995.834 187.188,997.834 		"/>
		<polygon id="Nation5_m3_1" points="62.5,994.499 68.66,999.166 61.5,1001.166 		"/>
		<polygon id="Nation5_m2_3" points="502.92,1103.833 509.08,1108.5 501.92,1110.5 		"/>
		<polygon id="Nation5_m2_2" points="603.34,1056.833 609.5,1061.5 602.34,1063.5 		"/>
		<polygon id="Nation5_m2_1" points="658.5,987.832 664.66,992.5 657.5,994.5 		"/>
		<polygon id="Nation5_m1_3" points="27.5,594.833 33.66,599.5 26.5,601.5 		"/>
		<polygon id="Nation5_m1_2" points="-67.66,548.767 -61.5,553.434 -68.66,555.434 		"/>
		<polygon id="Nation5_m1_1" points="73.34,466.833 79.5,471.5 72.34,473.5 		"/>
	</g>
	
		<path id="outline5" fill-rule="evenodd" clip-rule="evenodd" fill="none" stroke="#000000" stroke-width="8" stroke-miterlimit="10" d="
		M-117.5,430.5c162.65,0.333,325.35,0.667,488,1c10.479,15.758,26.232,35.054,45,42c10.991,4.068,21.667,2.676,31,8
		c12.802,7.303,14.764,17.761,37,18c1.727,9.355,16.375,22.163,23,27c4.333,1.666,8.667,3.334,13,5c18.434,20.535,6.95,45.772-4,66
		c4.333,8.999,8.667,18.001,13,27c1.333,7.999,2.667,16.001,4,24c22.717,9.774,15.424,34.027,29,45c3.333,1,6.667,2,10,3
		c7.956,5.534,27.559,25.277,36,28c7.241,2.336,13.052-1.937,20,1c12.818,5.417,23.877,14.493,41,17c2.84-3.894,8.769-7.692,14-6
		c25.094,3.601,66.865,29.366,69,59c-5.894,8.914-9.721,14.521-18,21c3.619,7.367,9.982,8.109,14,14c3.21,4.706,0.486,9.664,3,16
		c8.664,21.841,35.408,48.066,16,77c-8.279,12.343-18.068,10.324-30,18c-2.333,4-4.667,8-7,12c-4.666,1-9.334,2-14,3
		c-6.081,3.501-9.628,23.722-13,31c3.08,5.629,7.908,7.397,11,12c3.738,5.565,0.39,9.528,2,16c3.333,5.333,6.667,10.667,10,16
		c1.575,4.629-2.816,36.487-6,41c-4.666,2.666-9.334,5.334-14,8c-3.666,5-7.334,10.001-11,15c7.175,9.937,12.296,19.811,15,32
		c13.228,3.842,28.251,2.162,40,10c1.336,5.1,1.777,8.21,1,14c19.655-2.406,54.277,33.778,32,46c-1,0.333-2,0.667-3,1
		c-10.097-7.299-16.44-15.806-27-22c-4.221,2.92-5.678,4.597-13,5c-3.333-2.666-6.667-5.334-10-8c-5.199,2.301-6.267,4.468-14,5
		c-8.792-4.146-19.106-7.46-22-18c-18.233,4.078-47.013,4.13-51-15c-11.609-1.303-21.938-0.819-31-5
		c-33.058,12.201-28.716,26.902-79,27c-2.146,11.948-12.249,19.042-19,27c4.767,9.091,5.067,21.713,0,29
		c-14.665-0.667-29.335-1.333-44-2c-6.819-2.859-12.355-11.066-22-13c-6.333,0.333-12.667,0.667-19,1
		c-23.769-4.336-58.201-8.435-77-20c-9.814-6.038-35.721-26.565-44-35c-4-5.333-8-10.667-12-16c-17.856-9.275-47.361-1.08-67-13
		c-19.357-11.749-33.419-37.815-45-57c-1.667-4.666-3.333-9.334-5-14c-6.333,0.667-12.667,1.333-19,2
		c-1.755,10.189-8.063,19.111-16,23c-14.213,6.964-90.984,5.031-101,0c-8.564-4.302-10.602-15.139-18-20c-6-2.666-12-5.334-18-8
		c-11.332-3-22.668-6-34-9c-3.347-5.076-2.455-19.368-1-26c8.517-4.725,17.307-14.4,23-22c0.392-26.502-9.816-33.982-14-57
		c-10.479,0.346-25.094-2.446-29-9c-6.364-15.713-12.563-33.927-23-46c5.87-13.081,12.041-21.278,12-42
		c-6.251-5.147-19.479-15.882-22-24c-2.667-8.587-0.808-12.979-5-19c-5.914-8.494-14.942-6.634-23-13
		c-6.578-5.197-21.678-24.886-24-34c-5.392-21.168,14.093-39.107,7-67c-3-1-6-2-9-3c0.51-17.885,12.381-17.771,16-30
		c-0.667-14.332-1.333-28.668-2-43c5.333-7.333,10.667-14.667,16-22c11.039-24.802,10.038-78.608-5-100c-5-3.666-10-7.334-15-11
		c0-12.999,0-26.001,0-39C-122.833,433.834-120.167,432.166-117.5,430.5z"/>
	<circle id="control5" display="none" cx="273.468" cy="754.198" r="51.229"/>
</g>
<g id="Nation6_1_">
	
		<path id="background6" fill-rule="evenodd" clip-rule="evenodd" fill="#2366AD" stroke="#000000" stroke-width="4" stroke-miterlimit="10" d="
		M-400.5,242.5c8.147,2.867,20.456,0.217,33,0c5.296,11.685,8.772,19.246,13,33c40.293,14.847,56.659,30.83,117,31
		c4.333,9.333,8.667,18.667,13,28c6,3.667,12,7.334,18,11c0.667,6.666,1.333,13.334,2,20c8.666,7.333,17.334,14.667,26,22
		c1,6.333,2,12.667,3,19c6.936,2.219,11.347,7.498,17,10c8.333,1,16.667,2,25,3c3.333,3.666,6.667,7.334,10,11c-1.667,1-3.333,2-5,3
		c0,14.665,0,29.335,0,44c26.473,19.229,35.895,68.438,20,105c-5.333,7.333-10.667,14.667-16,22c0.667,13.999,1.333,28.001,2,42
		c-2.919,14.4-20.538,15.842-15,38c3,1,6,2,9,3c-0.136,21.895-13.001,52.118-8,67c3.568,10.618,17.313,28.206,26,34
		c7.371,4.916,14.844,3.141,20,10c4.995,6.646,3.448,17.338,8,25c6.666,6.999,13.334,14.001,20,21
		c-0.465,18.746-11.078,24.702-12,41c11.367,13.71,16.053,31.807,24,49c9.333,2.333,18.667,4.667,28,7
		c3.398,21.174,13.564,28.075,14,51c-8.233,6.283-17.675,15.852-24,24c-0.31,12.103-0.287,24.989,3,33c-3.667,4-7.334,8-11,12
		c-9.958,19.479-0.962,51.339-14,73c-8.802,14.623-21.868,20.305-33,32c-4.333,7.333-8.667,14.667-13,22
		c-17.878,18.627-31.921,31.543-41,60c-3.17,1.239-10.584,2.607-13,5c-5.333,9.666-10.667,19.334-16,29c-1.333,0-2.667,0-4,0
		c-5.624-6.783-11.994-11.276-14-22c19.52-25.428-35.635-70.769-59-76c-13.999-0.333-28.001-0.667-42-1
		c-14.999-6.666-30.001-13.334-45-20c-21.392-4.779-32.789,10.317-50,14c-15.999-0.333-32.001-0.667-48-1
		c-5.333-3.666-10.667-7.334-16-11c-13.666-0.333-27.335-0.667-41-1c-9.168-3.135-10.842-10.319-17-16c-7-2.666-14.001-5.334-21-8
		c-11.319-8.262-14.47-26.855-23-38c-16.665-10.332-33.335-20.668-50-31c-19.462-14.281-35.946-40.74-49-61c0-0.333,0-0.667,0-1
		c13.282-3.588,29.412-21.38,36-32c1.667-4.666,3.333-9.334,5-14c9.895-11.788,43.792-28.527,58-37c-0.667-1-1.333-2-2-3
		c-15.945-6.68-43.256-47.624-50-64c-2.333-10.999-4.667-22.001-7-33c-22.469-4.915-69.665-44.952-74-70
		c-63.089-2.198-60.081-38.152-103-48c-40.541-9.303-49.33,24.977-89,1c-12.239-44.792-15.827-100.987-26-149
		c0-11.665,0-23.334,0-35c-3-7.333-6-14.667-9-22c0-15.332,0-30.668,0-46c-2-3.666-4-7.334-6-11c0.667-9.666,1.333-19.334,2-29
		c-3.416-13.361-8.881-24.013-9-42c-46.596-25.49-6.575-57.889-14-96c23.031,6.832,23.974,14.915,50,4c-0.178-5.76,0.388-9.729,2-13
		c8.844-1.203,23.1-3.732,33-1c2.8,18.236,68.156,32.711,93,21c1.333-5,2.667-10,4-15c8.666-1.667,17.334-3.333,26-5
		c10.095,2.268,28.906,12.763,42,17c5.504,25.71,25.879,27.95,44,41c5.667,4.081,6.274,13.72,14,16c18.394,5.43,26.131-17.061,48-9
		c9.052,4.769,10.604,17.891,21,21c11.339,3.391,33.593-0.101,42-2c31.863-7.2,62.789-3.879,75-29c1.333-6,2.667-12,4-18
		c4.616-10.385,18.708-11.296,13-32c-3.635-0.644-3.027-0.403-5-2c2-2.333,4-4.667,6-7C-409.936,262-409.81,252.364-400.5,242.5z"/>
	<g id="merson6_6">
		<path id="path6_6" fill="#EBEBEB" stroke="#000000" stroke-width="2" stroke-miterlimit="10" d="M-226.16,648.01
			c0-14.552-7.576-27.071-11.736-41.96c-0.299-1.073-1.709-2.318-3.693-3.596c3.928-4.517,6.311-10.412,6.311-16.867
			c0-14.207-11.518-25.724-25.725-25.724c-14.205,0-25.723,11.517-25.723,25.724c0,6.528,2.436,12.483,6.442,17.019
			c-1.925,1.241-3.293,2.449-3.606,3.499c-0.99,3.309-11.212,38.64-11.213,41.905c-0.002,5.547,4.168,9.033,8.071,9.977
			c1.226,10.862,5.72,19.157,6.692,21.877c-6.277,4.732-6.277,9.629,0,9.604c17.201-0.069,18.831-4.114,18.831-4.114h0.497
			c0,0,1.475,4.044,18.984,4.044c9.365,0,6.381-5.488,0-9.534c1.357-2.204,5.86-10.918,7.075-21.933
			C-231.55,656.93-226.16,653.516-226.16,648.01z"/>
		<polygon id="text_anchor_20_" fill="#EBEBEB" stroke="#6D6E71" stroke-miterlimit="10" points="-257.103,619.021 
			-273.103,633.021 -253.103,641.021 		"/>
	</g>
	<g id="merson6_5">
		<path id="path6_5" fill="#EBEBEB" stroke="#000000" stroke-width="2" stroke-miterlimit="10" d="M-306.16,648.01
			c0-14.552-7.576-27.071-11.736-41.96c-0.299-1.073-1.709-2.318-3.693-3.596c3.928-4.517,6.311-10.412,6.311-16.867
			c0-14.207-11.518-25.724-25.725-25.724c-14.205,0-25.723,11.517-25.723,25.724c0,6.528,2.436,12.483,6.442,17.019
			c-1.925,1.241-3.293,2.449-3.606,3.499c-0.99,3.309-11.212,38.64-11.213,41.905c-0.002,5.547,4.168,9.033,8.071,9.977
			c1.226,10.862,5.72,19.157,6.692,21.877c-6.277,4.732-6.277,9.629,0,9.604c17.201-0.069,18.831-4.114,18.831-4.114h0.497
			c0,0,1.475,4.044,18.984,4.044c9.365,0,6.381-5.488,0-9.534c1.357-2.204,5.86-10.918,7.075-21.933
			C-311.55,656.93-306.16,653.516-306.16,648.01z"/>
		<polygon id="text_anchor_18_" fill="#EBEBEB" stroke="#6D6E71" stroke-miterlimit="10" points="-337.103,619.021 
			-353.103,633.021 -333.103,641.021 		"/>
	</g>
	<g id="merson6_4_1_">
		<path id="path6_4_2_" fill="#EBEBEB" stroke="#000000" stroke-width="2" stroke-miterlimit="10" d="M-386.16,648.01
			c0-14.552-7.576-27.071-11.736-41.96c-0.299-1.073-1.709-2.318-3.693-3.596c3.928-4.517,6.311-10.412,6.311-16.867
			c0-14.207-11.518-25.724-25.725-25.724c-14.205,0-25.723,11.517-25.723,25.724c0,6.528,2.436,12.483,6.442,17.019
			c-1.925,1.241-3.293,2.449-3.606,3.499c-0.99,3.309-11.212,38.64-11.213,41.905c-0.002,5.547,4.168,9.033,8.071,9.977
			c1.226,10.862,5.72,19.157,6.692,21.877c-6.277,4.732-6.277,9.629,0,9.604c17.201-0.069,18.831-4.114,18.831-4.114h0.497
			c0,0,1.475,4.044,18.984,4.044c9.365,0,6.381-5.488,0-9.534c1.357-2.204,5.86-10.918,7.075-21.933
			C-391.55,656.93-386.16,653.516-386.16,648.01z"/>
		<polygon id="text_anchor_22_" fill="#EBEBEB" stroke="#6D6E71" stroke-miterlimit="10" points="-417.103,619.021 
			-433.103,633.021 -413.103,641.021 		"/>
	</g>
	<g id="merson6_3_1_">
		<path id="path6_3_2_" fill="#EBEBEB" stroke="#000000" stroke-width="2" stroke-miterlimit="10" d="M-466.16,648.01
			c0-14.552-7.576-27.071-11.736-41.96c-0.299-1.073-1.709-2.318-3.693-3.596c3.928-4.517,6.311-10.412,6.311-16.867
			c0-14.207-11.518-25.724-25.725-25.724c-14.205,0-25.723,11.517-25.723,25.724c0,6.528,2.436,12.483,6.442,17.019
			c-1.925,1.241-3.293,2.449-3.606,3.499c-0.99,3.309-11.212,38.64-11.213,41.905c-0.002,5.547,4.168,9.033,8.071,9.977
			c1.226,10.862,5.72,19.157,6.692,21.877c-6.277,4.732-6.277,9.629,0,9.604c17.201-0.069,18.831-4.114,18.831-4.114h0.497
			c0,0,1.475,4.044,18.984,4.044c9.365,0,6.381-5.488,0-9.534c1.357-2.204,5.86-10.918,7.075-21.933
			C-471.55,656.93-466.16,653.516-466.16,648.01z"/>
		<polygon id="text_anchor_21_" fill="#EBEBEB" stroke="#6D6E71" stroke-miterlimit="10" points="-497.103,619.021 
			-513.103,633.021 -493.103,641.021 		"/>
	</g>
	<g id="merson6_2_1_">
		<path id="path6_2_1_" fill="#EBEBEB" stroke="#000000" stroke-width="2" stroke-miterlimit="10" d="M-546.16,648.01
			c0-14.552-7.576-27.071-11.736-41.96c-0.299-1.073-1.709-2.318-3.693-3.596c3.928-4.517,6.311-10.412,6.311-16.867
			c0-14.207-11.518-25.724-25.725-25.724c-14.205,0-25.723,11.517-25.723,25.724c0,6.528,2.436,12.483,6.442,17.019
			c-1.925,1.241-3.293,2.449-3.606,3.499c-0.99,3.309-11.212,38.64-11.213,41.905c-0.002,5.547,4.168,9.033,8.071,9.977
			c1.226,10.862,5.72,19.157,6.692,21.877c-6.277,4.732-6.277,9.629,0,9.604c17.201-0.069,18.831-4.114,18.831-4.114h0.497
			c0,0,1.475,4.044,18.984,4.044c9.365,0,6.381-5.488,0-9.534c1.357-2.204,5.86-10.918,7.075-21.933
			C-551.55,656.93-546.16,653.516-546.16,648.01z"/>
		<polygon id="text_anchor_16_" fill="#EBEBEB" stroke="#6D6E71" stroke-miterlimit="10" points="-577.103,619.021 
			-593.103,633.021 -573.103,641.021 		"/>
	</g>
	<g id="merson6_1_2_">
		<path id="path6_1_1_" fill="#EBEBEB" stroke="#000000" stroke-width="2" stroke-miterlimit="10" d="M-626.16,648.01
			c0-14.552-7.576-27.071-11.736-41.96c-0.3-1.073-1.71-2.318-3.693-3.596c3.927-4.517,6.311-10.412,6.311-16.867
			c0-14.207-11.517-25.724-25.724-25.724c-14.207,0-25.724,11.517-25.724,25.724c0,6.528,2.436,12.483,6.442,17.019
			c-1.925,1.241-3.293,2.449-3.606,3.499c-0.99,3.309-11.212,38.64-11.212,41.905c-0.002,5.547,4.168,9.033,8.071,9.977
			c1.225,10.862,5.72,19.157,6.692,21.877c-6.277,4.732-6.277,9.629,0,9.604c17.2-0.069,18.831-4.114,18.831-4.114h0.496
			c0,0,1.475,4.044,18.986,4.044c9.364,0,6.38-5.488,0-9.534c1.357-2.204,5.859-10.918,7.074-21.933
			C-631.55,656.93-626.16,653.516-626.16,648.01z"/>
		<polygon id="text_anchor_4_" fill="#EBEBEB" stroke="#6D6E71" stroke-miterlimit="10" points="-657.102,619.021 -673.103,633.021 
			-653.102,641.021 		"/>
	</g>
	<text id="NE_1_" transform="matrix(1 0 0 1 -655.3345 736.3618)" font-family="'MyriadPro-Regular'" font-size="50">Lower  Hugeopolis</text>
	<g id="Agents6">
		<polygon id="Nation6_m4_3" points="-203.052,471.229 -196.892,475.896 -204.052,477.896 		"/>
		<polygon id="Nation6_m4_2" points="-297.683,384.128 -291.522,388.795 -298.683,390.795 		"/>
		<polygon id="Nation6_m4_1" points="-388.739,339.056 -382.579,343.723 -389.739,345.723 		"/>
		<polygon id="Nation6_m3_3" points="-392.319,1096.729 -386.159,1101.397 -393.319,1103.397 		"/>
		<polygon id="Nation6_m3_2" points="-495.683,1069.488 -489.522,1074.155 -496.683,1076.155 		"/>
		<polygon id="Nation6_m3_1" points="-575.683,991.685 -569.522,996.352 -576.683,998.352 		"/>
		<polygon id="Nation6_m2_3" points="-249.151,1122.092 -242.991,1126.758 -250.151,1128.758 		"/>
		<polygon id="Nation6_m2_2" points="-141.847,1084.952 -135.687,1089.619 -142.847,1091.619 		"/>
		<polygon id="Nation6_m2_1" points="-81.166,1004.498 -75.005,1009.165 -82.166,1011.165 		"/>
		<polygon id="Nation6_m1_3" points="-860.369,498.256 -854.208,502.923 -861.369,504.923 		"/>
		<polygon id="Nation6_m1_2" points="-823.276,384.128 -817.116,388.795 -824.276,390.795 		"/>
		<polygon id="Nation6_m1_1" points="-724.561,335.723 -718.4,340.39 -725.561,342.39 		"/>
	</g>
	
		<path id="outline6" fill-rule="evenodd" clip-rule="evenodd" fill="none" stroke="#000000" stroke-width="8" stroke-miterlimit="10" d="
		M-400.5,242.5c8.147,2.867,20.456,0.217,33,0c5.296,11.685,8.772,19.246,13,33c40.293,14.847,56.659,30.83,117,31
		c4.333,9.333,8.667,18.667,13,28c6,3.667,12,7.334,18,11c0.667,6.666,1.333,13.334,2,20c8.666,7.333,17.334,14.667,26,22
		c1,6.333,2,12.667,3,19c6.936,2.219,11.347,7.498,17,10c8.333,1,16.667,2,25,3c3.333,3.666,6.667,7.334,10,11c-1.667,1-3.333,2-5,3
		c0,14.665,0,29.335,0,44c26.473,19.229,35.895,68.438,20,105c-5.333,7.333-10.667,14.667-16,22c0.667,13.999,1.333,28.001,2,42
		c-2.919,14.4-20.538,15.842-15,38c3,1,6,2,9,3c-0.136,21.895-13.001,52.118-8,67c3.568,10.618,17.313,28.206,26,34
		c7.371,4.916,14.844,3.141,20,10c4.995,6.646,3.448,17.338,8,25c6.666,6.999,13.334,14.001,20,21
		c-0.465,18.746-11.078,24.702-12,41c11.367,13.71,16.053,31.807,24,49c9.333,2.333,18.667,4.667,28,7
		c3.398,21.174,13.564,28.075,14,51c-8.233,6.283-17.675,15.852-24,24c-0.31,12.103-0.287,24.989,3,33c-3.667,4-7.334,8-11,12
		c-9.958,19.479-0.962,51.339-14,73c-8.802,14.623-21.868,20.305-33,32c-4.333,7.333-8.667,14.667-13,22
		c-17.878,18.627-31.921,31.543-41,60c-3.17,1.239-10.584,2.607-13,5c-5.333,9.666-10.667,19.334-16,29c-1.333,0-2.667,0-4,0
		c-5.624-6.783-11.994-11.276-14-22c19.52-25.428-35.635-70.769-59-76c-13.999-0.333-28.001-0.667-42-1
		c-14.999-6.666-30.001-13.334-45-20c-21.392-4.779-32.789,10.317-50,14c-15.999-0.333-32.001-0.667-48-1
		c-5.333-3.666-10.667-7.334-16-11c-13.666-0.333-27.335-0.667-41-1c-9.168-3.135-10.842-10.319-17-16c-7-2.666-14.001-5.334-21-8
		c-11.319-8.262-14.47-26.855-23-38c-16.665-10.332-33.335-20.668-50-31c-19.462-14.281-35.946-40.74-49-61c0-0.333,0-0.667,0-1
		c13.282-3.588,29.412-21.38,36-32c1.667-4.666,3.333-9.334,5-14c9.895-11.788,43.792-28.527,58-37c-0.667-1-1.333-2-2-3
		c-15.945-6.68-43.256-47.624-50-64c-2.333-10.999-4.667-22.001-7-33c-22.469-4.915-69.665-44.952-74-70
		c-63.089-2.198-60.081-38.152-103-48c-40.541-9.303-49.33,24.977-89,1c-12.239-44.792-15.827-100.987-26-149
		c0-11.665,0-23.334,0-35c-3-7.333-6-14.667-9-22c0-15.332,0-30.668,0-46c-2-3.666-4-7.334-6-11c0.667-9.666,1.333-19.334,2-29
		c-3.416-13.361-8.881-24.013-9-42c-46.596-25.49-6.575-57.889-14-96c23.031,6.832,23.974,14.915,50,4c-0.178-5.76,0.388-9.729,2-13
		c8.844-1.203,23.1-3.732,33-1c2.8,18.236,68.156,32.711,93,21c1.333-5,2.667-10,4-15c8.666-1.667,17.334-3.333,26-5
		c10.095,2.268,28.906,12.763,42,17c5.504,25.71,25.879,27.95,44,41c5.667,4.081,6.274,13.72,14,16c18.394,5.43,26.131-17.061,48-9
		c9.052,4.769,10.604,17.891,21,21c11.339,3.391,33.593-0.101,42-2c31.863-7.2,62.789-3.879,75-29c1.333-6,2.667-12,4-18
		c4.616-10.385,18.708-11.296,13-32c-3.635-0.644-3.027-0.403-5-2c2-2.333,4-4.667,6-7C-409.936,262-409.81,252.364-400.5,242.5z"/>
	<circle id="control6" display="none" cx="-460.586" cy="624.084" r="51.229"/>
</g>
</svg>
